{
.appVersion = "903";
classes = (
{
code = "Alphatonos Epsilontonos Etatonos Iotatonos Omicrontonos Upsilontonos Omegatonos uni1F0A uni1F0B uni1F0C uni1F0D uni1FBA uni1FBB uni1F1A uni1F1B uni1F1C uni1F1D uni1FC8 uni1FC9 uni1F2A uni1F2B uni1F2C uni1F2D uni1FCA uni1FCB uni1F3A uni1F3B uni1F3C uni1F3D uni1FDA uni1FDB uni1F4A uni1F4B uni1F4C uni1F4D uni1FF8 uni1FF9 uni1F5B uni1F5D uni1FEA uni1FEB uni1F6A uni1F6B uni1F6C uni1F6D uni1FFA uni1FFB";
name = case4;
},
{
code = "Alphatonos Epsilontonos Etatonos Iotatonos Omicrontonos Upsilontonos Omegatonos uni1F08 uni1F09 uni1F0A uni1F0B uni1F0C uni1F0D uni1F0E uni1F0F uni1F18 uni1F19 uni1F1A uni1F1B uni1F1C uni1F1D uni1F28 uni1F29 uni1F2A uni1F2B uni1F2C uni1F2D uni1F2E uni1F2F uni1F38 uni1F39 uni1F3A uni1F3B uni1F3C uni1F3D uni1F3E uni1F3F uni1F48 uni1F49 uni1F4A uni1F4B uni1F4C uni1F4D uni1F59 uni1F5B uni1F5D uni1F5F uni1F68 uni1F69 uni1F6A uni1F6B uni1F6C uni1F6D uni1F6E uni1F6F uni1F88 uni1F89 uni1F8A uni1F8B uni1F8C uni1F8D uni1F8E uni1F8F uni1F98 uni1F99 uni1F9A uni1F9B uni1F9C uni1F9D uni1F9E uni1F9F uni1FA8 uni1FA9 uni1FAA uni1FAB uni1FAC uni1FAD uni1FAE uni1FAF uni1FB8 uni1FB9 uni1FBA uni1FBB uni1FBC uni1FC8 uni1FC9 uni1FCA uni1FCB uni1FCC uni1FD8 uni1FD9 uni1FDA uni1FDB uni1FE8 uni1FE9 uni1FEA uni1FEB uni1FEC uni1FF8 uni1FF9 uni1FFA uni1FFB uni1FFC uni1FBC.ad uni1F88.ad uni1F89.ad uni1F8A.ad uni1F8B.ad uni1F8C.ad uni1F8D.ad uni1F8E.ad uni1F8F.ad uni1FCC.ad uni1F98.ad uni1F99.ad uni1F9A.ad uni1F9B.ad uni1F9C.ad uni1F9D.ad uni1F9E.ad uni1F9F.ad uni1FFC.ad uni1FA8.ad uni1FA9.ad uni1FAA.ad uni1FAB.ad uni1FAC.ad uni1FAD.ad uni1FAE.ad uni1FAF.ad";
name = case5;
},
{

glyphs = (
{
glyphname = exclam;
layers = (
{
background = {
paths = (
{
closed = 1;
nodes = (
"135 193 LINE",
"191 193 LINE",
"191 264 LINE SMOOTH",
"191 436 OFFCURVE",
"232 576 OFFCURVE",
"232 650 CURVE SMOOTH",
"232 693 OFFCURVE",
"206 714 OFFCURVE",
"168 714 CURVE SMOOTH",
"130 714 OFFCURVE",
"98 694 OFFCURVE",
"98 649 CURVE SMOOTH",
"98 567 OFFCURVE",
"135 422 OFFCURVE",
"135 265 CURVE SMOOTH"
);
},
{
closed = 1;
nodes = (
"93 15 OFFCURVE",
"123 -14 OFFCURVE",
"164 -14 CURVE SMOOTH",
"205 -14 OFFCURVE",
"234 16 OFFCURVE",
"234 56 CURVE SMOOTH",
"234 97 OFFCURVE",
"205 126 OFFCURVE",
"164 126 CURVE SMOOTH",
"123 126 OFFCURVE",
"93 97 OFFCURVE",
"93 55 CURVE SMOOTH"
);
}
);
};
hints = (
{
place = "{98, 93}";
},
{
place = "{135, 56}";
},
{
place = "{135, 97}";
},
{
horizontal = 1;
place = "{-14, 140}";
},
{
horizontal = 1;
place = "{714, -20}";
target = down;
type = TopGhost;
}
);
layerId = UUID0;
paths = (
{
closed = 1;
nodes = (
"191 193 LINE",
"191 264 LINE SMOOTH",
"191 436 OFFCURVE",
"232 576 OFFCURVE",
"232 650 CURVE SMOOTH",
"232 693 OFFCURVE",
"206 714 OFFCURVE",
"168 714 CURVE SMOOTH",
"130 714 OFFCURVE",
"98 694 OFFCURVE",
"98 649 CURVE SMOOTH",
"98 567 OFFCURVE",
"135 422 OFFCURVE",
"135 265 CURVE SMOOTH",
"135 193 LINE"
);
},
{
closed = 1;
nodes = (
"205 -14 OFFCURVE",
"234 16 OFFCURVE",
"234 56 CURVE SMOOTH",
"234 97 OFFCURVE",
"205 126 OFFCURVE",
"164 126 CURVE SMOOTH",
"123 126 OFFCURVE",
"93 97 OFFCURVE",
"93 55 CURVE SMOOTH",
"93 15 OFFCURVE",
"123 -14 OFFCURVE",
"164 -14 CURVE SMOOTH"
);
}
);
width = 322;
},
{
background = {
paths = (
{
closed = 1;
nodes = (
"126 188 LINE",
"198 188 LINE",
"198 225 LINE SMOOTH",
"198 330 OFFCURVE",
"213 424 OFFCURVE",
"226 508 CURVE SMOOTH",
"235 561 OFFCURVE",
"247 610 OFFCURVE",
"247 641 CURVE SMOOTH",
"247 690 OFFCURVE",
"215 714 OFFCURVE",
"164 714 CURVE SMOOTH",
"120 714 OFFCURVE",
"81 690 OFFCURVE",
"81 637 CURVE SMOOTH",
"81 603 OFFCURVE",
"92 547 OFFCURVE",
"102 489 CURVE SMOOTH",
"117 404 OFFCURVE",
"126 315 OFFCURVE",
"126 226 CURVE SMOOTH"
);
},
{
closed = 1;
nodes = (
"81 6 OFFCURVE",
"115 -15 OFFCURVE",
"163 -15 CURVE SMOOTH",
"213 -15 OFFCURVE",
"247 7 OFFCURVE",
"247 63 CURVE SMOOTH",
"247 118 OFFCURVE",
"213 140 OFFCURVE",
"163 140 CURVE SMOOTH",
"115 140 OFFCURVE",
"81 117 OFFCURVE",
"81 61 CURVE SMOOTH"
);
}
);
};
hints = (
{
place = "{81, 166}";
},
{
place = "{126, 72}";
},
{
horizontal = 1;
place = "{-15, 155}";
},
{
horizontal = 1;
place = "{714, -20}";
target = down;
type = TopGhost;
}
);
layerId = "4181654C-020A-47A3-85ED-5DF79C071187";
paths = (
{
closed = 1;
nodes = (
"198 188 LINE",
"198 225 LINE SMOOTH",
"198 378 OFFCURVE",
"247 560 OFFCURVE",
"247 641 CURVE SMOOTH",
"247 690 OFFCURVE",
"215 714 OFFCURVE",
"164 714 CURVE SMOOTH",
"120 714 OFFCURVE",
"81 690 OFFCURVE",
"81 637 CURVE SMOOTH",
"81 566 OFFCURVE",
"126 387 OFFCURVE",
"126 226 CURVE SMOOTH",
"126 188 LINE"
);
},
{
closed = 1;
nodes = (
"213 -15 OFFCURVE",
"247 7 OFFCURVE",
"247 63 CURVE SMOOTH",
"247 118 OFFCURVE",
"213 140 OFFCURVE",
"163 140 CURVE SMOOTH",
"115 140 OFFCURVE",
"81 117 OFFCURVE",
"81 61 CURVE SMOOTH",
"81 6 OFFCURVE",
"115 -15 OFFCURVE",
"163 -15 CURVE SMOOTH"
);
}
);
width = 355;
}
);
unicode = 0021;
},
{
glyphname = quotedbl;
layers = (
{
background = {
paths = (
{
closed = 1;
nodes = (
"328 719 LINE SMOOTH",
"330 730 OFFCURVE",
"331 738 OFFCURVE",
"331 745 CURVE SMOOTH",
"331 768 OFFCURVE",
"308 782 OFFCURVE",
"289 782 CURVE SMOOTH",
"256 782 OFFCURVE",
"236 755 OFFCURVE",
"236 726 CURVE SMOOTH",
"236 720 OFFCURVE",
"237 714 OFFCURVE",
"238 707 CURVE SMOOTH",
"264 549 LINE",
"298 549 LINE"
);
},
{
closed = 1;
nodes = (
"177 719 LINE SMOOTH",
"179 730 OFFCURVE",
"180 738 OFFCURVE",
"180 745 CURVE SMOOTH",
"180 768 OFFCURVE",
"157 782 OFFCURVE",
"138 782 CURVE SMOOTH",
"105 782 OFFCURVE",
"85 755 OFFCURVE",
"85 726 CURVE SMOOTH",
"85 720 OFFCURVE",
"86 714 OFFCURVE",
"87 707 CURVE SMOOTH",
"113 549 LINE",
"147 549 LINE"
);
}
);
};
hints = (
{
horizontal = 1;
place = "{782, -20}";
target = down;
type = TopGhost;
},
{
horizontal = 1;
place = "{549, 21}";
target = up;
type = BottomGhost;
}
);
layerId = UUID0;
paths = (
{
closed = 1;
nodes = (
"298 549 LINE",
"328 719 LINE SMOOTH",
"330 730 OFFCURVE",
"331 738 OFFCURVE",
"331 745 CURVE SMOOTH",
"331 768 OFFCURVE",
"308 782 OFFCURVE",
"289 782 CURVE SMOOTH",
"256 782 OFFCURVE",
"236 755 OFFCURVE",
"236 726 CURVE SMOOTH",
"236 720 OFFCURVE",
"237 714 OFFCURVE",
"238 707 CURVE SMOOTH",
"264 549 LINE"
);
},
{
closed = 1;
nodes = (
"147 549 LINE",
"177 719 LINE SMOOTH",
"179 730 OFFCURVE",
"180 738 OFFCURVE",
"180 745 CURVE SMOOTH",
"180 768 OFFCURVE",
"157 782 OFFCURVE",
"138 782 CURVE SMOOTH",
"105 782 OFFCURVE",
"85 755 OFFCURVE",
"85 726 CURVE SMOOTH",
"85 720 OFFCURVE",
"86 714 OFFCURVE",
"87 707 CURVE SMOOTH",
"113 549 LINE"
);
}
);
width = 401;
},
{
background = {
paths = (
{
closed = 1;
nodes = (
"186 716 LINE SMOOTH",
"188 724 OFFCURVE",
"189 735 OFFCURVE",
"189 739 CURVE SMOOTH",
"189 770 OFFCURVE",
"159 787 OFFCURVE",
"134 787 CURVE SMOOTH",
"95 787 OFFCURVE",
"72 761 OFFCURVE",
"72 728 CURVE SMOOTH",
"72 723 OFFCURVE",
"74 709 OFFCURVE",
"76 697 CURVE SMOOTH",
"104 540 LINE",
"148 540 LINE"
);
},
{
closed = 1;
nodes = (
"343 716 LINE SMOOTH",
"345 724 OFFCURVE",
"346 735 OFFCURVE",
"346 739 CURVE SMOOTH",
"346 770 OFFCURVE",
"316 787 OFFCURVE",
"291 787 CURVE SMOOTH",
"252 787 OFFCURVE",
"229 761 OFFCURVE",
"229 728 CURVE SMOOTH",
"229 723 OFFCURVE",
"231 709 OFFCURVE",
"233 697 CURVE SMOOTH",
"261 540 LINE",
"305 540 LINE"
);
}
);
};
hints = (
{
place = "{72, 117}";
},
{
place = "{229, 117}";
},
{
horizontal = 1;
place = "{787, -20}";
target = down;
type = TopGhost;
},
{
horizontal = 1;
place = "{540, 21}";
target = up;
type = BottomGhost;
}
);
layerId = "4181654C-020A-47A3-85ED-5DF79C071187";
paths = (
{
closed = 1;
nodes = (
"305 540 LINE",
"343 716 LINE SMOOTH",
"345 724 OFFCURVE",
"346 735 OFFCURVE",
"346 739 CURVE SMOOTH",
"346 770 OFFCURVE",
"316 787 OFFCURVE",
"291 787 CURVE SMOOTH",
"252 787 OFFCURVE",
"229 761 OFFCURVE",
"229 728 CURVE SMOOTH",
"229 723 OFFCURVE",
"231 709 OFFCURVE",
"233 697 CURVE SMOOTH",
"261 540 LINE"
);
},
{
closed = 1;
nodes = (
"148 540 LINE",
"186 716 LINE SMOOTH",
"188 724 OFFCURVE",
"189 735 OFFCURVE",
"189 739 CURVE SMOOTH",
"189 770 OFFCURVE",
"159 787 OFFCURVE",
"134 787 CURVE SMOOTH",
"95 787 OFFCURVE",
"72 761 OFFCURVE",
"72 728 CURVE SMOOTH",
"72 723 OFFCURVE",
"74 709 OFFCURVE",
"76 697 CURVE SMOOTH",
"104 540 LINE"
);
}
);
width = 403;
}
);
leftKerningGroup = quotesingle;
rightKerningGroup = quotesingle;
unicode = 0022;
},
{
glyphname = numbersign;
layers = (
{
background = {
paths = (
{
closed = 1;
nodes = (
"201 0 LINE",
"223 140 LINE",
"408 140 LINE",
"386 0 LINE",
"440 0 LINE",
"462 140 LINE",
"591 140 LINE",
"600 191 LINE",
"470 191 LINE",
"497 367 LINE",
"620 367 LINE",
"629 419 LINE",
"504 419 LINE",
"524 550 LINE",
"469 550 LINE",
"450 419 LINE",
"266 419 LINE",
"286 550 LINE",
"232 550 LINE",
"212 419 LINE",
"89 419 LINE",
"79 367 LINE",
"204 367 LINE",
"177 191 LINE",
"56 191 LINE",
"45 140 LINE",
"168 140 LINE",
"147 0 LINE"
);
},
{
closed = 1;
nodes = (
"443 367 LINE",
"416 191 LINE",
"231 191 LINE",
"257 367 LINE"
);
}
);
};
hints = (
{
horizontal = 1;
place = "{0, 191}";
},
{
horizontal = 1;
place = "{140, 51}";
},
{
horizontal = 1;
place = "{367, 52}";
},
{
horizontal = 1;
place = "{367, 183}";
}
);
layerId = UUID0;
paths = (
{
closed = 1;
nodes = (
"201 0 LINE",
"223 140 LINE",
"408 140 LINE",
"386 0 LINE",
"440 0 LINE",
"462 140 LINE",
"591 140 LINE",
"600 191 LINE",
"470 191 LINE",
"497 367 LINE",
"620 367 LINE",
"629 419 LINE",
"504 419 LINE",
"524 550 LINE",
"469 550 LINE",
"450 419 LINE",
"266 419 LINE",
"286 550 LINE",
"232 550 LINE",
"212 419 LINE",
"89 419 LINE",
"79 367 LINE",
"204 367 LINE",
"177 191 LINE",
"56 191 LINE",
"45 140 LINE",
"168 140 LINE",
"147 0 LINE"
);
},
{
closed = 1;
nodes = (
"257 367 LINE",
"443 367 LINE",
"416 191 LINE",
"231 191 LINE"
);
}
);
width = 674;
},
{
background = {
paths = (
{
closed = 1;
nodes = (
"221 -7 LINE",
"243 133 LINE",
"388 133 LINE",
"366 -7 LINE",
"451 -7 LINE",
"473 133 LINE",
"607 133 LINE",
"619 197 LINE",
"483 197 LINE",
"507 362 LINE",
"637 362 LINE",
"648 426 LINE",
"518 426 LINE",
"539 557 LINE",
"454 557 LINE",
"434 426 LINE",
"288 426 LINE",
"309 557 LINE",
"224 557 LINE",
"204 426 LINE",
"79 426 LINE",
"67 362 LINE",
"194 362 LINE",
"169 197 LINE",
"45 197 LINE",
"32 133 LINE",
"158 133 LINE",
"136 -7 LINE"
);
},
{
closed = 1;
nodes = (
"424 362 LINE",
"399 197 LINE",
"253 197 LINE",
"277 362 LINE"
);
}
);
};
hints = (
{
horizontal = 1;
place = "{133, 64}";
},
{
horizontal = 1;
place = "{362, 64}";
},
{
horizontal = 1;
place = "{362, 195}";
},
{
horizontal = 1;
place = "{-7, 21}";
target = up;
type = BottomGhost;
}
);
layerId = "4181654C-020A-47A3-85ED-5DF79C071187";
paths = (
{
closed = 1;
nodes = (
"221 -7 LINE",
"243 133 LINE",
"388 133 LINE",
"366 -7 LINE",
"451 -7 LINE",
"473 133 LINE",
"607 133 LINE",
"619 197 LINE",
"483 197 LINE",
"507 362 LINE",
"637 362 LINE",
"648 426 LINE",
"518 426 LINE",
"539 557 LINE",
"454 557 LINE",
"434 426 LINE",
"288 426 LINE",
"309 557 LINE",
"224 557 LINE",
"204 426 LINE",
"79 426 LINE",
"67 362 LINE",
"194 362 LINE",
"169 197 LINE",
"45 197 LINE",
"32 133 LINE",
"158 133 LINE",
"136 -7 LINE"
);
},
{
closed = 1;
nodes = (
"277 362 LINE",
"424 362 LINE",
"399 197 LINE",
"253 197 LINE"
);
}
);
width = 680;
}
);
unicode = 0023;
},
{
color = 0;
glyphname = dollar;
layers = (
{
background = {
paths = (
{
closed = 1;
nodes = (
"284 -96 LINE",
"284 -11 LINE",
"409 -5 OFFCURVE",
"468 82 OFFCURVE",
"468 160 CURVE SMOOTH",
"468 279 OFFCURVE",
"370 306 OFFCURVE",
"284 333 CURVE",
"284 512 LINE",
"331 507 OFFCURVE",
"373 482 OFFCURVE",
"398 400 CURVE",
"454 406 LINE",
"436 568 LINE",
"387 568 LINE",
"377 528 LINE",
"355 547 OFFCURVE",
"320 560 OFFCURVE",
"284 565 CURVE",
"284 658 LINE",
"234 658 LINE",
"234 567 LINE",
"124 560 OFFCURVE",
"66 490 OFFCURVE",
"66 416 CURVE SMOOTH",
"66 302 OFFCURVE",
"152 272 OFFCURVE",
"234 248 CURVE",
"234 52 LINE",
"183 61 OFFCURVE",
"136 94 OFFCURVE",
"107 176 CURVE",
"50 172 LINE",
"66 -5 LINE",
"112 -5 LINE",
"125 42 LINE",
"144 22 OFFCURVE",
"183 0 OFFCURVE",
"234 -8 CURVE",
"234 -96 LINE"
);
},
{
closed = 1;
nodes = (
"379 84 OFFCURVE",
"342 54 OFFCURVE",
"284 49 CURVE",
"284 232 LINE",
"337 214 OFFCURVE",
"379 191 OFFCURVE",
"379 136 CURVE SMOOTH"
);
},
{
closed = 1;
nodes = (
"155 485 OFFCURVE",
"189 507 OFFCURVE",
"234 512 CURVE",
"234 350 LINE",
"188 367 OFFCURVE",
"155 390 OFFCURVE",
"155 438 CURVE SMOOTH"
);
}
);
};
hints = (
{
place = "{66, 89}";
},
{
place = "{234, 50}";
},
{
place = "{379, 89}";
},
{
horizontal = 1;
place = "{-96, 21}";
target = up;
type = BottomGhost;
},
{
horizontal = 1;
place = "{568, -20}";
target = down;
type = TopGhost;
},
{
horizontal = 1;
place = "{658, -20}";
target = down;
type = TopGhost;
},
{
horizontal = 1;
place = "{-5, 21}";
target = up;
type = BottomGhost;
}
);
layerId = UUID0;
paths = (
{
closed = 1;
nodes = (
"284 -96 LINE",
"284 -11 LINE",
"409 -5 OFFCURVE",
"468 82 OFFCURVE",
"468 160 CURVE SMOOTH",
"468 279 OFFCURVE",
"370 306 OFFCURVE",
"284 333 CURVE",
"284 512 LINE",
"331 507 OFFCURVE",
"373 482 OFFCURVE",
"398 400 CURVE",
"454 406 LINE",
"436 568 LINE",
"387 568 LINE",
"377 528 LINE",
"355 547 OFFCURVE",
"320 560 OFFCURVE",
"284 565 CURVE",
"284 658 LINE",
"234 658 LINE",
"234 567 LINE",
"124 560 OFFCURVE",
"66 490 OFFCURVE",
"66 416 CURVE SMOOTH",
"66 302 OFFCURVE",
"152 272 OFFCURVE",
"234 248 CURVE",
"234 52 LINE",
"183 61 OFFCURVE",
"136 94 OFFCURVE",
"107 176 CURVE",
"50 172 LINE",
"66 -5 LINE",
"112 -5 LINE",
"125 42 LINE",
"144 22 OFFCURVE",
"183 0 OFFCURVE",
"234 -8 CURVE",
"234 -96 LINE"
);
},
{
closed = 1;
nodes = (
"284 232 LINE",
"337 214 OFFCURVE",
"379 191 OFFCURVE",
"379 136 CURVE SMOOTH",
"379 84 OFFCURVE",
"342 54 OFFCURVE",
"284 49 CURVE"
);
},
{
closed = 1;
nodes = (
"188 367 OFFCURVE",
"155 390 OFFCURVE",
"155 438 CURVE SMOOTH",
"155 485 OFFCURVE",
"189 507 OFFCURVE",
"234 512 CURVE",
"234 350 LINE"
);
}
);
width = 518;
},
{
background = {
paths = (
{
closed = 1;
nodes = (
"236 -99 LINE",
"236 -12 LINE",
"246 -13 OFFCURVE",
"256 -14 OFFCURVE",
"266 -14 CURVE SMOOTH",
"273 -14 OFFCURVE",
"280 -13 OFFCURVE",
"288 -13 CURVE",
"288 -99 LINE",
"359 -99 LINE",
"359 2 LINE",
"425 28 OFFCURVE",
"471 84 OFFCURVE",
"471 163 CURVE SMOOTH",
"471 275 OFFCURVE",
"386 307 OFFCURVE",
"298 341 CURVE SMOOTH",
"220 370 OFFCURVE",
"179 382 OFFCURVE",
"179 432 CURVE SMOOTH",
"179 475 OFFCURVE",
"211 499 OFFCURVE",
"258 499 CURVE SMOOTH",
"315 499 OFFCURVE",
"354 476 OFFCURVE",
"384 390 CURVE",
"456 401 LINE",
"442 574 LINE",
"389 574 LINE",
"378 533 LINE",
"368 539 OFFCURVE",
"357 547 OFFCURVE",
"342 554 CURVE",
"342 670 LINE",
"271 670 LINE",
"271 573 LINE",
"263 573 OFFCURVE",
"255 574 OFFCURVE",
"246 574 CURVE SMOOTH",
"236 574 OFFCURVE",
"227 573 OFFCURVE",
"219 573 CURVE",
"219 670 LINE",
"151 670 LINE",
"151 557 LINE",
"78 527 OFFCURVE",
"50 463 OFFCURVE",
"50 405 CURVE SMOOTH",
"50 302 OFFCURVE",
"114 255 OFFCURVE",
"222 222 CURVE SMOOTH",
"299 198 OFFCURVE",
"339 182 OFFCURVE",
"339 134 CURVE SMOOTH",
"339 105 OFFCURVE",
"322 63 OFFCURVE",
"250 63 CURVE SMOOTH",
"177 63 OFFCURVE",
"131 109 OFFCURVE",
"104 170 CURVE",
"37 161 LINE",
"52 -13 LINE",
"111 -13 LINE",
"124 27 LINE",
"136 17 OFFCURVE",
"152 9 OFFCURVE",
"168 3 CURVE",
"168 -99 LINE"
);
}
);
};
hints = (
{
place = "{50, 129}";
},
{
place = "{151, 68}";
},
{
place = "{168, 68}";
},
{
place = "{271, 71}";
},
{
place = "{288, 71}";
},
{
place = "{339, 132}";
},
{
horizontal = 1;
place = "{-99, 137}";
},
{
horizontal = 1;
place = "{-14, 52}";
},
{
horizontal = 1;
place = "{499, 75}";
},
{
horizontal = 1;
place = "{529, 45}";
},
{
horizontal = 1;
place = "{529, 141}";
},
{
horizontal = 1;
place = "{-14, 77}";
},
{
horizontal = 1;
place = "{-13, 21}";
target = up;
type = BottomGhost;
}
);
layerId = "4181654C-020A-47A3-85ED-5DF79C071187";
paths = (
{
closed = 1;
nodes = (
"236 -99 LINE",
"236 -12 LINE",
"246 -13 OFFCURVE",
"256 -14 OFFCURVE",
"266 -14 CURVE SMOOTH",
"273 -14 OFFCURVE",
"280 -13 OFFCURVE",
"288 -13 CURVE",
"288 -99 LINE",
"359 -99 LINE",
"359 2 LINE",
"425 28 OFFCURVE",
"471 84 OFFCURVE",
"471 163 CURVE SMOOTH",
"471 275 OFFCURVE",
"386 307 OFFCURVE",
"298 341 CURVE SMOOTH",
"220 370 OFFCURVE",
"179 382 OFFCURVE",
"179 432 CURVE SMOOTH",
"179 475 OFFCURVE",
"211 499 OFFCURVE",
"258 499 CURVE SMOOTH",
"315 499 OFFCURVE",
"354 476 OFFCURVE",
"384 390 CURVE",
"456 401 LINE",
"442 574 LINE",
"389 574 LINE",
"378 533 LINE",
"368 539 OFFCURVE",
"357 547 OFFCURVE",
"342 554 CURVE",
"342 670 LINE",
"271 670 LINE",
"271 573 LINE",
"263 573 OFFCURVE",
"255 574 OFFCURVE",
"246 574 CURVE SMOOTH",
"236 574 OFFCURVE",
"227 573 OFFCURVE",
"219 573 CURVE",
"219 670 LINE",
"151 670 LINE",
"151 557 LINE",
"78 527 OFFCURVE",
"50 463 OFFCURVE",
"50 405 CURVE SMOOTH",
"50 302 OFFCURVE",
"114 255 OFFCURVE",
"222 222 CURVE SMOOTH",
"299 198 OFFCURVE",
"339 182 OFFCURVE",
"339 134 CURVE SMOOTH",
"339 105 OFFCURVE",
"322 63 OFFCURVE",
"250 63 CURVE SMOOTH",
"177 63 OFFCURVE",
"131 109 OFFCURVE",
"104 170 CURVE",
"37 161 LINE",
"52 -13 LINE",
"111 -13 LINE",
"124 27 LINE",
"136 17 OFFCURVE",
"152 9 OFFCURVE",
"168 3 CURVE",
"168 -99 LINE"
);
}
);
width = 511;
}
);
unicode = 0024;
},
{
glyphname = percent;
layers = (
{
background = {
paths = (
{
closed = 1;
nodes = (
"491 51 OFFCURVE",
"549 -14 OFFCURVE",
"646 -14 CURVE SMOOTH",
"733 -14 OFFCURVE",
"804 45 OFFCURVE",
"804 157 CURVE SMOOTH",
"804 260 OFFCURVE",
"733 309 OFFCURVE",
"651 309 CURVE SMOOTH",
"570 309 OFFCURVE",
"491 265 OFFCURVE",
"491 141 CURVE SMOOTH"
);
},
{
closed = 1;
nodes = (
"569 222 OFFCURVE",
"601 254 OFFCURVE",
"644 254 CURVE SMOOTH",
"694 254 OFFCURVE",
"724 215 OFFCURVE",
"724 147 CURVE SMOOTH",
"724 76 OFFCURVE",
"697 43 OFFCURVE",
"651 43 CURVE SMOOTH",
"600 43 OFFCURVE",
"569 87 OFFCURVE",
"569 152 CURVE SMOOTH"
);
},
{
closed = 1;
nodes = (
"204 -14 LINE",
"279 -14 LINE",
"641 597 LINE",
"567 597 LINE"
);
},
{
closed = 1;
nodes = (
"47 339 OFFCURVE",
"105 274 OFFCURVE",
"202 274 CURVE SMOOTH",
"289 274 OFFCURVE",
"360 333 OFFCURVE",
"360 445 CURVE SMOOTH",
"360 548 OFFCURVE",
"289 597 OFFCURVE",
"207 597 CURVE SMOOTH",
"126 597 OFFCURVE",
"47 553 OFFCURVE",
"47 429 CURVE SMOOTH"
);
},
{
closed = 1;
nodes = (
"125 510 OFFCURVE",
"157 542 OFFCURVE",
"200 542 CURVE SMOOTH",
"250 542 OFFCURVE",
"280 503 OFFCURVE",
"280 435 CURVE SMOOTH",
"280 364 OFFCURVE",
"253 331 OFFCURVE",
"207 331 CURVE SMOOTH",
"156 331 OFFCURVE",
"125 375 OFFCURVE",
"125 440 CURVE SMOOTH"
);
}
);
};
hints = (
{
place = "{47, 78}";
},
{
place = "{280, 80}";
},
{
place = "{491, 78}";
},
{
place = "{724, 80}";
},
{
horizontal = 1;
place = "{-14, 57}";
},
{
horizontal = 1;
place = "{254, 55}";
},
{
horizontal = 1;
place = "{274, 57}";
},
{
horizontal = 1;
place = "{542, 55}";
}
);
layerId = UUID0;
paths = (
{
closed = 1;
nodes = (
"279 -14 LINE",
"641 597 LINE",
"567 597 LINE",
"204 -14 LINE"
);
},
{
closed = 1;
nodes = (
"289 274 OFFCURVE",
"360 333 OFFCURVE",
"360 445 CURVE SMOOTH",
"360 548 OFFCURVE",
"289 597 OFFCURVE",
"207 597 CURVE SMOOTH",
"126 597 OFFCURVE",
"47 553 OFFCURVE",
"47 429 CURVE SMOOTH",
"47 339 OFFCURVE",
"105 274 OFFCURVE",
"202 274 CURVE SMOOTH"
);
},
{
closed = 1;
nodes = (
"156 331 OFFCURVE",
"125 375 OFFCURVE",
"125 440 CURVE SMOOTH",
"125 510 OFFCURVE",
"157 542 OFFCURVE",
"200 542 CURVE SMOOTH",
"250 542 OFFCURVE",
"280 503 OFFCURVE",
"280 435 CURVE SMOOTH",
"280 364 OFFCURVE",
"253 331 OFFCURVE",
"207 331 CURVE SMOOTH"
);
},
{
closed = 1;
nodes = (
"733 -14 OFFCURVE",
"804 45 OFFCURVE",
"804 157 CURVE SMOOTH",
"804 260 OFFCURVE",
"733 309 OFFCURVE",
"651 309 CURVE SMOOTH",
"570 309 OFFCURVE",
"491 265 OFFCURVE",
"491 141 CURVE SMOOTH",
"491 51 OFFCURVE",
"549 -14 OFFCURVE",
"646 -14 CURVE SMOOTH"
);
},
{
closed = 1;
nodes = (
"600 43 OFFCURVE",
"569 87 OFFCURVE",
"569 152 CURVE SMOOTH",
"569 222 OFFCURVE",
"601 254 OFFCURVE",
"644 254 CURVE SMOOTH",
"694 254 OFFCURVE",
"724 215 OFFCURVE",
"724 147 CURVE SMOOTH",
"724 76 OFFCURVE",
"697 43 OFFCURVE",
"651 43 CURVE SMOOTH"
);
}
);
width = 851;
},
{
background = {
paths = (
{
closed = 1;
nodes = (
"184 -14 LINE",
"286 -14 LINE",
"649 597 LINE",
"549 597 LINE"
);
},
{
closed = 1;
nodes = (
"35 335 OFFCURVE",
"100 274 OFFCURVE",
"205 274 CURVE SMOOTH",
"300 274 OFFCURVE",
"377 333 OFFCURVE",
"377 444 CURVE SMOOTH",
"377 547 OFFCURVE",
"300 596 OFFCURVE",
"210 596 CURVE SMOOTH",
"122 596 OFFCURVE",
"35 548 OFFCURVE",
"35 425 CURVE SMOOTH"
);
},
{
closed = 1;
nodes = (
"152 512 OFFCURVE",
"174 535 OFFCURVE",
"203 535 CURVE SMOOTH",
"237 535 OFFCURVE",
"258 509 OFFCURVE",
"258 434 CURVE SMOOTH",
"258 359 OFFCURVE",
"239 336 OFFCURVE",
"208 336 CURVE SMOOTH",
"173 336 OFFCURVE",
"152 372 OFFCURVE",
"152 439 CURVE SMOOTH"
);
},
{
closed = 1;
nodes = (
"463 46 OFFCURVE",
"528 -14 OFFCURVE",
"633 -14 CURVE SMOOTH",
"728 -14 OFFCURVE",
"805 45 OFFCURVE",
"805 156 CURVE SMOOTH",
"805 259 OFFCURVE",
"728 308 OFFCURVE",
"638 308 CURVE SMOOTH",
"550 308 OFFCURVE",
"463 259 OFFCURVE",
"463 136 CURVE SMOOTH"
);
},
{
closed = 1;
nodes = (
"580 224 OFFCURVE",
"602 247 OFFCURVE",
"631 247 CURVE SMOOTH",
"665 247 OFFCURVE",
"686 221 OFFCURVE",
"686 146 CURVE SMOOTH",
"686 71 OFFCURVE",
"667 48 OFFCURVE",
"636 48 CURVE SMOOTH",
"601 48 OFFCURVE",
"580 84 OFFCURVE",
"580 151 CURVE SMOOTH"
);
}
);
};
hints = (
{
place = "{35, 117}";
},
{
place = "{258, 119}";
},
{
place = "{463, 117}";
},
{
place = "{686, 119}";
},
{
horizontal = 1;
place = "{-14, 62}";
},
{
horizontal = 1;
place = "{247, 61}";
},
{
horizontal = 1;
place = "{274, 62}";
},
{
horizontal = 1;
place = "{535, 61}";
},
{
horizontal = 1;
place = "{597, -20}";
target = down;
type = TopGhost;
}
);
layerId = "4181654C-020A-47A3-85ED-5DF79C071187";
paths = (
{
closed = 1;
nodes = (
"286 -14 LINE",
"649 597 LINE",
"549 597 LINE",
"184 -14 LINE"
);
},
{
closed = 1;
nodes = (
"300 274 OFFCURVE",
"377 333 OFFCURVE",
"377 444 CURVE SMOOTH",
"377 547 OFFCURVE",
"300 596 OFFCURVE",
"210 596 CURVE SMOOTH",
"122 596 OFFCURVE",
"35 548 OFFCURVE",
"35 425 CURVE SMOOTH",
"35 335 OFFCURVE",
"100 274 OFFCURVE",
"205 274 CURVE SMOOTH"
);
},
{
closed = 1;
nodes = (
"173 336 OFFCURVE",
"152 372 OFFCURVE",
"152 439 CURVE SMOOTH",
"152 512 OFFCURVE",
"174 535 OFFCURVE",
"203 535 CURVE SMOOTH",
"237 535 OFFCURVE",
"258 509 OFFCURVE",
"258 434 CURVE SMOOTH",
"258 359 OFFCURVE",
"239 336 OFFCURVE",
"208 336 CURVE SMOOTH"
);
},
{
closed = 1;
nodes = (
"728 -14 OFFCURVE",
"805 45 OFFCURVE",
"805 156 CURVE SMOOTH",
"805 259 OFFCURVE",
"728 308 OFFCURVE",
"638 308 CURVE SMOOTH",
"550 308 OFFCURVE",
"463 259 OFFCURVE",
"463 136 CURVE SMOOTH",
"463 46 OFFCURVE",
"528 -14 OFFCURVE",
"633 -14 CURVE SMOOTH"
);
},
{
closed = 1;
nodes = (
"601 48 OFFCURVE",
"580 84 OFFCURVE",
"580 151 CURVE SMOOTH",
"580 224 OFFCURVE",
"602 247 OFFCURVE",
"631 247 CURVE SMOOTH",
"665 247 OFFCURVE",
"686 221 OFFCURVE",
"686 146 CURVE SMOOTH",
"686 71 OFFCURVE",
"667 48 OFFCURVE",
"636 48 CURVE SMOOTH"
);
}
);
width = 839;
}
);
unicode = 0025;
},
{
glyphname = ampersand;
layers = (
{
background = {
paths = (
{
closed = 1;
nodes = (
"325 394 LINE",
"404 433 OFFCURVE",
"455 491 OFFCURVE",
"455 573 CURVE SMOOTH",
"455 656 OFFCURVE",
"394 714 OFFCURVE",
"305 714 CURVE SMOOTH",
"197 714 OFFCURVE",
"119 653 OFFCURVE",
"119 544 CURVE SMOOTH",
"119 474 OFFCURVE",
"163 421 OFFCURVE",
"201 383 CURVE",
"117 348 OFFCURVE",
"45 289 OFFCURVE",
"45 181 CURVE SMOOTH",
"45 58 OFFCURVE",
"145 -14 OFFCURVE",
"280 -14 CURVE SMOOTH",
"387 -14 OFFCURVE",
"455 37 OFFCURVE",
"489 95 CURVE",
"554 32 OFFCURVE",
"599 7 OFFCURVE",
"639 7 CURVE SMOOTH",
"691 7 OFFCURVE",
"723 35 OFFCURVE",
"766 95 CURVE",
"746 129 LINE",
"703 97 OFFCURVE",
"684 92 OFFCURVE",
"669 92 CURVE SMOOTH",
"637 92 OFFCURVE",
"604 110 OFFCURVE",
"525 188 CURVE",
"555 360 OFFCURVE",
"611 412 OFFCURVE",
"645 419 CURVE",
"660 382 OFFCURVE",
"665 372 OFFCURVE",
"677 364 CURVE SMOOTH",
"683 360 OFFCURVE",
"690 357 OFFCURVE",
"703 357 CURVE SMOOTH",
"734 357 OFFCURVE",
"752 386 OFFCURVE",
"752 418 CURVE SMOOTH",
"752 460 OFFCURVE",
"717 487 OFFCURVE",
"675 487 CURVE SMOOTH",
"606 487 OFFCURVE",
"529 443 OFFCURVE",
"482 231 CURVE"
);
},
{
closed = 1;
nodes = (
"210 45 OFFCURVE",
"147 99 OFFCURVE",
"147 198 CURVE SMOOTH",
"147 281 OFFCURVE",
"187 324 OFFCURVE",
"233 349 CURVE",
"447 133 LINE",
"421 80 OFFCURVE",
"371 45 OFFCURVE",
"301 45 CURVE SMOOTH"
);
},
{
closed = 1;
nodes = (
"206 625 OFFCURVE",
"243 659 OFFCURVE",
"299 659 CURVE SMOOTH",
"349 659 OFFCURVE",
"390 634 OFFCURVE",
"390 570 CURVE SMOOTH",
"390 525 OFFCURVE",
"367 467 OFFCURVE",
"291 426 CURVE",
"242 473 OFFCURVE",
"206 515 OFFCURVE",
"206 568 CURVE SMOOTH"
);
}
);
};
hints = (
{
place = "{45, 102}";
},
{
place = "{119, 28}";
},
{
place = "{390, 65}";
},
{
place = "{119, 87}";
},
{
horizontal = 1;
place = "{-14, 59}";
},
{
horizontal = 1;
place = "{7, 85}";
},
{
horizontal = 1;
place = "{357, 130}";
},
{
horizontal = 1;
place = "{659, 55}";
}
);
layerId = UUID0;
paths = (
{
closed = 1;
nodes = (
"387 -14 OFFCURVE",
"455 37 OFFCURVE",
"489 95 CURVE",
"554 32 OFFCURVE",
"599 7 OFFCURVE",
"639 7 CURVE SMOOTH",
"691 7 OFFCURVE",
"723 35 OFFCURVE",
"766 95 CURVE",
"746 129 LINE",
"703 97 OFFCURVE",
"684 92 OFFCURVE",
"669 92 CURVE SMOOTH",
"637 92 OFFCURVE",
"604 110 OFFCURVE",
"525 188 CURVE",
"555 360 OFFCURVE",
"611 412 OFFCURVE",
"645 419 CURVE",
"661 381 OFFCURVE",
"669 357 OFFCURVE",
"703 357 CURVE SMOOTH",
"734 357 OFFCURVE",
"752 386 OFFCURVE",
"752 418 CURVE SMOOTH",
"752 460 OFFCURVE",
"717 487 OFFCURVE",
"675 487 CURVE SMOOTH",
"606 487 OFFCURVE",
"529 443 OFFCURVE",
"482 231 CURVE",
"325 394 LINE",
"404 433 OFFCURVE",
"455 491 OFFCURVE",
"455 573 CURVE SMOOTH",
"455 656 OFFCURVE",
"394 714 OFFCURVE",
"305 714 CURVE SMOOTH",
"197 714 OFFCURVE",
"119 653 OFFCURVE",
"119 544 CURVE SMOOTH",
"119 474 OFFCURVE",
"163 421 OFFCURVE",
"201 383 CURVE",
"117 348 OFFCURVE",
"45 289 OFFCURVE",
"45 181 CURVE SMOOTH",
"45 58 OFFCURVE",
"145 -14 OFFCURVE",
"280 -14 CURVE SMOOTH"
);
},
{
closed = 1;
nodes = (
"210 45 OFFCURVE",
"147 99 OFFCURVE",
"147 198 CURVE SMOOTH",
"147 281 OFFCURVE",
"187 324 OFFCURVE",
"233 349 CURVE",
"304 277 OFFCURVE",
"376 205 OFFCURVE",
"447 133 CURVE",
"421 80 OFFCURVE",
"371 45 OFFCURVE",
"301 45 CURVE SMOOTH"
);
},
{
closed = 1;
nodes = (
"242 473 OFFCURVE",
"206 515 OFFCURVE",
"206 568 CURVE SMOOTH",
"206 625 OFFCURVE",
"243 659 OFFCURVE",
"299 659 CURVE SMOOTH",
"349 659 OFFCURVE",
"390 634 OFFCURVE",
"390 570 CURVE SMOOTH",
"390 525 OFFCURVE",
"367 467 OFFCURVE",
"291 426 CURVE"
);
}
);
width = 794;
},
{
background = {
paths = (
{
closed = 1;
nodes = (
"370 396 LINE",
"445 430 OFFCURVE",
"497 488 OFFCURVE",
"497 567 CURVE SMOOTH",
"497 654 OFFCURVE",
"425 715 OFFCURVE",
"319 715 CURVE SMOOTH",
"216 715 OFFCURVE",
"123 657 OFFCURVE",
"123 544 CURVE SMOOTH",
"123 479 OFFCURVE",
"163 428 OFFCURVE",
"205 381 CURVE",
"120 346 OFFCURVE",
"54 278 OFFCURVE",
"54 181 CURVE SMOOTH",
"54 37 OFFCURVE",
"182 -14 OFFCURVE",
"284 -14 CURVE SMOOTH",
"410 -14 OFFCURVE",
"466 39 OFFCURVE",
"500 89 CURVE",
"561 25 OFFCURVE",
"607 0 OFFCURVE",
"664 0 CURVE SMOOTH",
"711 0 OFFCURVE",
"757 31 OFFCURVE",
"805 97 CURVE",
"771 136 LINE",
"742 114 OFFCURVE",
"718 100 OFFCURVE",
"699 100 CURVE SMOOTH",
"662 100 OFFCURVE",
"631 129 OFFCURVE",
"547 211 CURVE",
"574 345 OFFCURVE",
"620 394 OFFCURVE",
"665 419 CURVE",
"682 373 OFFCURVE",
"694 349 OFFCURVE",
"733 349 CURVE SMOOTH",
"765 349 OFFCURVE",
"789 381 OFFCURVE",
"789 418 CURVE SMOOTH",
"789 466 OFFCURVE",
"746 496 OFFCURVE",
"699 496 CURVE SMOOTH",
"626 496 OFFCURVE",
"539 447 OFFCURVE",
"490 269 CURVE"
);
},
{
closed = 1;
nodes = (
"256 69 OFFCURVE",
"198 114 OFFCURVE",
"198 207 CURVE SMOOTH",
"198 268 OFFCURVE",
"223 312 OFFCURVE",
"249 333 CURVE",
"315 265 OFFCURVE",
"380 198 OFFCURVE",
"443 135 CURVE",
"422 94 OFFCURVE",
"377 69 OFFCURVE",
"326 69 CURVE SMOOTH"
);
},
{
closed = 1;
nodes = (
"248 635 OFFCURVE",
"292 655 OFFCURVE",
"325 655 CURVE SMOOTH",
"367 655 OFFCURVE",
"403 627 OFFCURVE",
"403 572 CURVE SMOOTH",
"403 532 OFFCURVE",
"386 482 OFFCURVE",
"330 440 CURVE",
"288 480 OFFCURVE",
"248 525 OFFCURVE",
"248 578 CURVE SMOOTH"
);
}
);
};
hints = (
{
place = "{54, 144}";
},
{
place = "{123, 125}";
},
{
place = "{403, 94}";
},
{
horizontal = 1;
place = "{-14, 83}";
},
{
horizontal = 1;
place = "{0, 100}";
},
{
horizontal = 1;
place = "{349, 147}";
},
{
horizontal = 1;
place = "{655, 60}";
}
);
layerId = "4181654C-020A-47A3-85ED-5DF79C071187";
paths = (
{
closed = 1;
nodes = (
"410 -14 OFFCURVE",
"466 39 OFFCURVE",
"500 89 CURVE",
"561 25 OFFCURVE",
"607 0 OFFCURVE",
"664 0 CURVE SMOOTH",
"711 0 OFFCURVE",
"757 31 OFFCURVE",
"805 97 CURVE",
"771 136 LINE",
"742 114 OFFCURVE",
"718 100 OFFCURVE",
"699 100 CURVE SMOOTH",
"662 100 OFFCURVE",
"631 129 OFFCURVE",
"547 211 CURVE",
"574 345 OFFCURVE",
"620 394 OFFCURVE",
"665 419 CURVE",
"682 373 OFFCURVE",
"694 349 OFFCURVE",
"733 349 CURVE SMOOTH",
"765 349 OFFCURVE",
"789 381 OFFCURVE",
"789 418 CURVE SMOOTH",
"789 466 OFFCURVE",
"746 496 OFFCURVE",
"699 496 CURVE SMOOTH",
"626 496 OFFCURVE",
"539 447 OFFCURVE",
"490 269 CURVE",
"370 396 LINE",
"445 430 OFFCURVE",
"497 488 OFFCURVE",
"497 567 CURVE SMOOTH",
"497 654 OFFCURVE",
"425 715 OFFCURVE",
"319 715 CURVE SMOOTH",
"216 715 OFFCURVE",
"123 657 OFFCURVE",
"123 544 CURVE SMOOTH",
"123 479 OFFCURVE",
"163 428 OFFCURVE",
"205 381 CURVE",
"120 346 OFFCURVE",
"54 278 OFFCURVE",
"54 181 CURVE SMOOTH",
"54 37 OFFCURVE",
"182 -14 OFFCURVE",
"284 -14 CURVE SMOOTH"
);
},
{
closed = 1;
nodes = (
"256 69 OFFCURVE",
"198 114 OFFCURVE",
"198 207 CURVE SMOOTH",
"198 268 OFFCURVE",
"223 312 OFFCURVE",
"249 333 CURVE",
"315 265 OFFCURVE",
"380 198 OFFCURVE",
"443 135 CURVE",
"422 94 OFFCURVE",
"377 69 OFFCURVE",
"326 69 CURVE SMOOTH"
);
},
{
closed = 1;
nodes = (
"288 480 OFFCURVE",
"248 525 OFFCURVE",
"248 578 CURVE SMOOTH",
"248 635 OFFCURVE",
"292 655 OFFCURVE",
"325 655 CURVE SMOOTH",
"367 655 OFFCURVE",
"403 627 OFFCURVE",
"403 572 CURVE SMOOTH",
"403 532 OFFCURVE",
"386 482 OFFCURVE",
"330 440 CURVE"
);
}
);
width = 840;
}
);
unicode = 0026;
},
{
glyphname = quotesingle;
layers = (
{
background = {
paths = (
{
closed = 1;
nodes = (
"177 719 LINE SMOOTH",
"179 730 OFFCURVE",
"180 738 OFFCURVE",
"180 745 CURVE SMOOTH",
"180 768 OFFCURVE",
"157 782 OFFCURVE",
"138 782 CURVE SMOOTH",
"105 782 OFFCURVE",
"85 755 OFFCURVE",
"85 726 CURVE SMOOTH",
"85 720 OFFCURVE",
"86 714 OFFCURVE",
"87 707 CURVE SMOOTH",
"113 549 LINE",
"147 549 LINE"
);
}
);
};
hints = (
{
horizontal = 1;
place = "{782, -20}";
target = down;
type = TopGhost;
},
{
horizontal = 1;
place = "{549, 21}";
target = up;
type = BottomGhost;
}
);
layerId = UUID0;
paths = (
{
closed = 1;
nodes = (
"147 549 LINE",
"177 719 LINE SMOOTH",
"179 730 OFFCURVE",
"180 738 OFFCURVE",
"180 745 CURVE SMOOTH",
"180 768 OFFCURVE",
"157 782 OFFCURVE",
"138 782 CURVE SMOOTH",
"105 782 OFFCURVE",
"85 755 OFFCURVE",
"85 726 CURVE SMOOTH",
"85 720 OFFCURVE",
"86 714 OFFCURVE",
"87 707 CURVE SMOOTH",
"113 549 LINE"
);
}
);
width = 250;
},
{
background = {
paths = (
{
closed = 1;
nodes = (
"186 716 LINE SMOOTH",
"188 724 OFFCURVE",
"189 735 OFFCURVE",
"189 739 CURVE SMOOTH",
"189 770 OFFCURVE",
"159 787 OFFCURVE",
"134 787 CURVE SMOOTH",
"95 787 OFFCURVE",
"72 761 OFFCURVE",
"72 728 CURVE SMOOTH",
"72 723 OFFCURVE",
"74 709 OFFCURVE",
"76 697 CURVE SMOOTH",
"104 540 LINE",
"148 540 LINE"
);
}
);
};
hints = (
{
place = "{72, 117}";
},
{
horizontal = 1;
place = "{787, -20}";
target = down;
type = TopGhost;
},
{
horizontal = 1;
place = "{540, 21}";
target = up;
type = BottomGhost;
}
);
layerId = "4181654C-020A-47A3-85ED-5DF79C071187";
paths = (
{
closed = 1;
nodes = (
"148 540 LINE",
"186 716 LINE SMOOTH",
"188 724 OFFCURVE",
"189 735 OFFCURVE",
"189 739 CURVE SMOOTH",
"189 770 OFFCURVE",
"159 787 OFFCURVE",
"134 787 CURVE SMOOTH",
"95 787 OFFCURVE",
"72 761 OFFCURVE",
"72 728 CURVE SMOOTH",
"72 723 OFFCURVE",
"74 709 OFFCURVE",
"76 697 CURVE SMOOTH",
"104 540 LINE"
);
}
);
width = 246;
}
);
leftKerningGroup = quotesingle;
rightKerningGroup = quotesingle;
unicode = 0027;
},
{
glyphname = asterisk;
layers = (
{
background = {
paths = (
{
closed = 1;
nodes = (
"135 697 LINE SMOOTH",
"118 712 OFFCURVE",
"91 720 OFFCURVE",
"78 695 CURVE SMOOTH",
"62 666 OFFCURVE",
"84 641 OFFCURVE",
"108 631 CURVE SMOOTH",
"207 595 LINE",
"98 555 LINE SMOOTH",
"77 548 OFFCURVE",
"54 533 OFFCURVE",
"71 504 CURVE SMOOTH",
"87 475 OFFCURVE",
"122 481 OFFCURVE",
"140 499 CURVE SMOOTH",
"221 569 LINE",
"199 456 LINE SMOOTH",
"194 430 OFFCURVE",
"201 407 OFFCURVE",
"230 407 CURVE SMOOTH",
"264 407 OFFCURVE",
"275 438 OFFCURVE",
"270 465 CURVE SMOOTH",
"251 568 LINE",
"338 491 LINE SMOOTH",
"357 474 OFFCURVE",
"382 467 OFFCURVE",
"395 493 CURVE SMOOTH",
"411 522 OFFCURVE",
"392 546 OFFCURVE",
"365 556 CURVE SMOOTH",
"265 594 LINE",
"375 633 LINE SMOOTH",
"401 642 OFFCURVE",
"417 659 OFFCURVE",
"402 684 CURVE SMOOTH",
"386 713 OFFCURVE",
"355 708 OFFCURVE",
"333 689 CURVE SMOOTH",
"251 619 LINE",
"274 734 LINE SMOOTH",
"280 762 OFFCURVE",
"269 782 OFFCURVE",
"243 782 CURVE SMOOTH",
"209 782 OFFCURVE",
"197 755 OFFCURVE",
"203 724 CURVE SMOOTH",
"222 620 LINE"
);
}
);
};
hints = (
{
horizontal = 1;
place = "{407, 21}";
target = up;
type = BottomGhost;
},
{
horizontal = 1;
place = "{782, -20}";
target = down;
type = TopGhost;
}
);
layerId = UUID0;
paths = (
{
closed = 1;
nodes = (
"265 407 OFFCURVE",
"275 438 OFFCURVE",
"270 465 CURVE SMOOTH",
"251 568 LINE",
"338 491 LINE SMOOTH",
"357 474 OFFCURVE",
"382 467 OFFCURVE",
"395 493 CURVE SMOOTH",
"411 522 OFFCURVE",
"392 546 OFFCURVE",
"365 556 CURVE SMOOTH",
"265 594 LINE",
"375 633 LINE SMOOTH",
"401 642 OFFCURVE",
"417 659 OFFCURVE",
"402 684 CURVE SMOOTH",
"386 713 OFFCURVE",
"355 708 OFFCURVE",
"333 689 CURVE SMOOTH",
"251 619 LINE",
"274 734 LINE SMOOTH",
"280 762 OFFCURVE",
"269 782 OFFCURVE",
"243 782 CURVE SMOOTH",
"209 782 OFFCURVE",
"197 755 OFFCURVE",
"203 724 CURVE SMOOTH",
"222 620 LINE",
"135 697 LINE SMOOTH",
"118 712 OFFCURVE",
"90 717 OFFCURVE",
"77 692 CURVE SMOOTH",
"61 663 OFFCURVE",
"76 642 OFFCURVE",
"108 631 CURVE SMOOTH",
"207 595 LINE",
"98 555 LINE SMOOTH",
"77 548 OFFCURVE",
"57 530 OFFCURVE",
"74 501 CURVE SMOOTH",
"90 472 OFFCURVE",
"122 481 OFFCURVE",
"140 499 CURVE SMOOTH",
"221 569 LINE",
"199 456 LINE SMOOTH",
"194 430 OFFCURVE",
"202 407 OFFCURVE",
"231 407 CURVE SMOOTH"
);
}
);
width = 473;
},
{
background = {
paths = (
{
closed = 1;
nodes = (
"131 704 LINE SMOOTH",
"121 713 OFFCURVE",
"107 720 OFFCURVE",
"95 720 CURVE SMOOTH",
"77 720 OFFCURVE",
"60 701 OFFCURVE",
"60 676 CURVE SMOOTH",
"60 649 OFFCURVE",
"77 637 OFFCURVE",
"97 630 CURVE SMOOTH",
"188 598 LINE",
"88 564 LINE SMOOTH",
"62 555 OFFCURVE",
"52 545 OFFCURVE",
"52 525 CURVE SMOOTH",
"52 499 OFFCURVE",
"76 481 OFFCURVE",
"96 481 CURVE SMOOTH",
"110 481 OFFCURVE",
"126 488 OFFCURVE",
"136 497 CURVE SMOOTH",
"158 516 OFFCURVE",
"186 545 OFFCURVE",
"208 564 CURVE",
"185 460 LINE SMOOTH",
"178 428 OFFCURVE",
"191 404 OFFCURVE",
"222 404 CURVE SMOOTH",
"258 404 OFFCURVE",
"274 442 OFFCURVE",
"268 469 CURVE SMOOTH",
"247 564 LINE",
"276 539 OFFCURVE",
"297 514 OFFCURVE",
"326 489 CURVE SMOOTH",
"337 480 OFFCURVE",
"351 473 OFFCURVE",
"363 473 CURVE SMOOTH",
"382 473 OFFCURVE",
"398 494 OFFCURVE",
"398 519 CURVE SMOOTH",
"398 546 OFFCURVE",
"380 558 OFFCURVE",
"359 565 CURVE SMOOTH",
"266 597 LINE",
"369 630 LINE SMOOTH",
"391 637 OFFCURVE",
"406 650 OFFCURVE",
"406 667 CURVE SMOOTH",
"406 694 OFFCURVE",
"381 713 OFFCURVE",
"362 713 CURVE SMOOTH",
"323 713 OFFCURVE",
"285 661 OFFCURVE",
"248 629 CURVE",
"255 668 OFFCURVE",
"273 727 OFFCURVE",
"273 748 CURVE SMOOTH",
"273 772 OFFCURVE",
"263 791 OFFCURVE",
"233 791 CURVE SMOOTH",
"204 791 OFFCURVE",
"188 770 OFFCURVE",
"188 743 CURVE SMOOTH",
"188 738 OFFCURVE",
"188 731 OFFCURVE",
"209 632 CURVE"
);
}
);
};
hints = (
{
horizontal = 1;
place = "{404, 21}";
target = up;
type = BottomGhost;
},
{
horizontal = 1;
place = "{713, -20}";
target = down;
type = TopGhost;
},
{
horizontal = 1;
place = "{791, -20}";
target = down;
type = TopGhost;
}
);
layerId = "4181654C-020A-47A3-85ED-5DF79C071187";
paths = (
{
closed = 1;
nodes = (
"258 404 OFFCURVE",
"276 432 OFFCURVE",
"268 469 CURVE SMOOTH",
"247 564 LINE",
"326 489 LINE",
"363 459 OFFCURVE",
"398 476 OFFCURVE",
"398 519 CURVE SMOOTH",
"398 546 OFFCURVE",
"380 558 OFFCURVE",
"359 565 CURVE SMOOTH",
"266 597 LINE",
"369 630 LINE SMOOTH",
"391 637 OFFCURVE",
"406 650 OFFCURVE",
"406 674 CURVE SMOOTH",
"406 706 OFFCURVE",
"369 739 OFFCURVE",
"325 699 CURVE SMOOTH",
"248 629 LINE",
"272 740 LINE SMOOTH",
"278 770 OFFCURVE",
"263 791 OFFCURVE",
"233 791 CURVE SMOOTH",
"204 791 OFFCURVE",
"181 773 OFFCURVE",
"188 738 CURVE SMOOTH",
"209 632 LINE",
"131 704 LINE SMOOTH",
"97 734 OFFCURVE",
"60 717 OFFCURVE",
"60 676 CURVE SMOOTH",
"60 649 OFFCURVE",
"77 637 OFFCURVE",
"97 630 CURVE SMOOTH",
"188 598 LINE",
"88 564 LINE SMOOTH",
"62 555 OFFCURVE",
"52 545 OFFCURVE",
"52 525 CURVE SMOOTH",
"52 487 OFFCURVE",
"100 465 OFFCURVE",
"136 497 CURVE",
"208 564 LINE",
"185 460 LINE SMOOTH",
"178 428 OFFCURVE",
"191 404 OFFCURVE",
"222 404 CURVE SMOOTH"
);
}
);
width = 458;
}
);
unicode = 002A;
},
{
glyphname = plus;
layers = (
{
background = {
paths = (
{
closed = 1;
nodes = (
"505 276 LINE",
"505 339 LINE",
"321 339 LINE",
"321 521 LINE",
"254 521 LINE",
"254 339 LINE",
"77 339 LINE",
"77 276 LINE",
"254 276 LINE",
"254 81 LINE",
"321 81 LINE",
"321 276 LINE"
);
}
);
};
hints = (
{
place = "{254, 67}";
},
{
horizontal = 1;
place = "{276, 63}";
},
{
horizontal = 1;
place = "{521, -20}";
target = down;
type = TopGhost;
},
{
horizontal = 1;
place = "{81, 21}";
target = up;
type = BottomGhost;
}
);
layerId = UUID0;
paths = (
{
closed = 1;
nodes = (
"321 81 LINE",
"321 276 LINE",
"505 276 LINE",
"505 339 LINE",
"321 339 LINE",
"321 521 LINE",
"254 521 LINE",
"254 339 LINE",
"77 339 LINE",
"77 276 LINE",
"254 276 LINE",
"254 81 LINE"
);
}
);
width = 582;
},
{
background = {
paths = (
{
closed = 1;
nodes = (
"516 262 LINE",
"516 356 LINE",
"345 356 LINE",
"345 533 LINE",
"237 533 LINE",
"237 356 LINE",
"66 356 LINE",
"66 262 LINE",
"237 262 LINE",
"237 81 LINE",
"345 81 LINE",
"345 262 LINE"
);
}
);
};
hints = (
{
place = "{237, 108}";
},
{
horizontal = 1;
place = "{262, 94}";
},
{
horizontal = 1;
place = "{533, -20}";
target = down;
type = TopGhost;
},
{
horizontal = 1;
place = "{81, 21}";
target = up;
type = BottomGhost;
}
);
layerId = "4181654C-020A-47A3-85ED-5DF79C071187";
paths = (
{
closed = 1;
nodes = (
"345 81 LINE",
"345 262 LINE",
"516 262 LINE",
"516 356 LINE",
"345 356 LINE",
"345 533 LINE",
"237 533 LINE",
"237 356 LINE",
"66 356 LINE",
"66 262 LINE",
"237 262 LINE",
"237 81 LINE"
);
}
);
width = 582;
}
);
unicode = 002B;
},
{
glyphname = comma;
layers = (
{
background = {
paths = (
{
closed = 1;
nodes = (
"86 -131 LINE",
"146 -85 OFFCURVE",
"169 -44 OFFCURVE",
"173 0 CURVE",
"149 0 LINE SMOOTH",
"106 0 OFFCURVE",
"87 21 OFFCURVE",
"87 55 CURVE SMOOTH",
"87 97 OFFCURVE",
"116 129 OFFCURVE",
"160 129 CURVE SMOOTH",
"219 129 OFFCURVE",
"245 83 OFFCURVE",
"245 31 CURVE SMOOTH",
"245 -28 OFFCURVE",
"203 -117 OFFCURVE",
"115 -168 CURVE"
);
}
);
};
hints = (
{
place = "{87, 158}";
},
{
horizontal = 1;
place = "{0, 129}";
},
{
horizontal = 1;
place = "{-168, 21}";
target = up;
type = BottomGhost;
}
);
layerId = UUID0;
paths = (
{
closed = 1;
nodes = (
"203 -117 OFFCURVE",
"245 -28 OFFCURVE",
"245 31 CURVE SMOOTH",
"245 83 OFFCURVE",
"219 129 OFFCURVE",
"160 129 CURVE SMOOTH",
"116 129 OFFCURVE",
"87 97 OFFCURVE",
"87 55 CURVE SMOOTH",
"87 21 OFFCURVE",
"106 0 OFFCURVE",
"149 0 CURVE SMOOTH",
"173 0 LINE",
"169 -44 OFFCURVE",
"146 -85 OFFCURVE",
"86 -131 CURVE",
"115 -168 LINE"
);
}
);
width = 328;
},
{
background = {
paths = (
{
closed = 1;
nodes = (
"77 -129 LINE",
"123 -97 OFFCURVE",
"159 -52 OFFCURVE",
"164 -10 CURVE",
"149 -10 LINE SMOOTH",
"104 -10 OFFCURVE",
"73 13 OFFCURVE",
"73 61 CURVE SMOOTH",
"73 110 OFFCURVE",
"105 144 OFFCURVE",
"159 144 CURVE SMOOTH",
"222 144 OFFCURVE",
"252 100 OFFCURVE",
"252 45 CURVE SMOOTH",
"252 -34 OFFCURVE",
"210 -123 OFFCURVE",
"113 -176 CURVE"
);
}
);
};
hints = (
{
place = "{73, 179}";
},
{
horizontal = 1;
place = "{-10, 154}";
},
{
horizontal = 1;
place = "{-176, 21}";
target = up;
type = BottomGhost;
}
);
layerId = "4181654C-020A-47A3-85ED-5DF79C071187";
paths = (
{
closed = 1;
nodes = (
"210 -123 OFFCURVE",
"252 -34 OFFCURVE",
"252 45 CURVE SMOOTH",
"252 100 OFFCURVE",
"222 144 OFFCURVE",
"159 144 CURVE SMOOTH",
"105 144 OFFCURVE",
"73 110 OFFCURVE",
"73 61 CURVE SMOOTH",
"73 13 OFFCURVE",
"104 -10 OFFCURVE",
"149 -10 CURVE SMOOTH",
"164 -10 LINE",
"159 -52 OFFCURVE",
"123 -97 OFFCURVE",
"77 -129 CURVE",
"113 -176 LINE"
);
}
);
width = 322;
}
);
leftKerningGroup = period;
rightKerningGroup = period;
unicode = 002C;
},
{
glyphname = hyphen;
layers = (
{
background = {
paths = (
{
closed = 1;
nodes = (
"44 247 LINE",
"311 247 LINE",
"311 329 LINE",
"44 329 LINE"
);
}
);
};
hints = (
{
horizontal = 1;
place = "{247, 82}";
}
);
layerId = UUID0;
paths = (
{
closed = 1;
nodes = (
"311 247 LINE",
"311 329 LINE",
"44 329 LINE",
"44 247 LINE"
);
}
);
width = 354;
},
{
background = {
paths = (
{
closed = 1;
nodes = (
"31 233 LINE",
"328 233 LINE",
"328 329 LINE",
"31 329 LINE"
);
}
);
};
hints = (
{
horizontal = 1;
place = "{233, 96}";
}
);
layerId = "4181654C-020A-47A3-85ED-5DF79C071187";
paths = (
{
closed = 1;
nodes = (
"328 233 LINE",
"328 329 LINE",
"31 329 LINE",
"31 233 LINE"
);
}
);
width = 358;
}
);
leftKerningGroup = hyphen;
rightKerningGroup = hyphen;
unicode = 002D;
},
{
glyphname = period;
layers = (
{
background = {
paths = (
{
closed = 1;
nodes = (
"90 14 OFFCURVE",
"122 -17 OFFCURVE",
"166 -17 CURVE SMOOTH",
"211 -17 OFFCURVE",
"243 15 OFFCURVE",
"243 59 CURVE SMOOTH",
"243 103 OFFCURVE",
"211 134 OFFCURVE",
"166 134 CURVE SMOOTH",
"122 134 OFFCURVE",
"90 102 OFFCURVE",
"90 58 CURVE SMOOTH"
);
}
);
};
hints = (
{
place = "{90, 153}";
},
{
horizontal = 1;
place = "{-17, 151}";
}
);
layerId = UUID0;
paths = (
{
closed = 1;
nodes = (
"211 -17 OFFCURVE",
"243 15 OFFCURVE",
"243 59 CURVE SMOOTH",
"243 103 OFFCURVE",
"211 134 OFFCURVE",
"166 134 CURVE SMOOTH",
"122 134 OFFCURVE",
"90 102 OFFCURVE",
"90 58 CURVE SMOOTH",
"90 14 OFFCURVE",
"122 -17 OFFCURVE",
"166 -17 CURVE SMOOTH"
);
}
);
width = 333;
},
{
background = {
paths = (
{
closed = 1;
nodes = (
"70 4 OFFCURVE",
"106 -19 OFFCURVE",
"155 -19 CURVE SMOOTH",
"208 -19 OFFCURVE",
"244 5 OFFCURVE",
"244 63 CURVE SMOOTH",
"244 120 OFFCURVE",
"208 144 OFFCURVE",
"155 144 CURVE SMOOTH",
"106 144 OFFCURVE",
"70 119 OFFCURVE",
"70 61 CURVE SMOOTH"
);
}
);
};
hints = (
{
place = "{70, 174}";
},
{
horizontal = 1;
place = "{-19, 163}";
}
);
layerId = "4181654C-020A-47A3-85ED-5DF79C071187";
paths = (
{
closed = 1;
nodes = (
"208 -19 OFFCURVE",
"244 5 OFFCURVE",
"244 63 CURVE SMOOTH",
"244 120 OFFCURVE",
"208 144 OFFCURVE",
"155 144 CURVE SMOOTH",
"106 144 OFFCURVE",
"70 119 OFFCURVE",
"70 61 CURVE SMOOTH",
"70 4 OFFCURVE",
"106 -19 OFFCURVE",
"155 -19 CURVE SMOOTH"
);
}
);
width = 303;
}
);
leftKerningGroup = period;
rightKerningGroup = period;
unicode = 002E;
},
{
glyphname = slash;
layers = (
{
background = {
paths = (
{
closed = 1;
nodes = (
"20 -110 LINE",
"84 -110 LINE",
"408 802 LINE",
"345 802 LINE"
);
}
);
};
hints = (
{
horizontal = 1;
place = "{-110, 21}";
target = up;
type = BottomGhost;
},
{
horizontal = 1;
place = "{802, -20}";
target = down;
type = TopGhost;
}
);
layerId = UUID0;
paths = (
{
closed = 1;
nodes = (
"84 -110 LINE",
"408 802 LINE",
"345 802 LINE",
"20 -110 LINE"
);
}
);
width = 428;
},
{
background = {
paths = (
{
closed = 1;
nodes = (
"10 -110 LINE",
"117 -110 LINE",
"461 802 LINE",
"355 802 LINE"
);
}
);
};
hints = (
{
horizontal = 1;
place = "{-110, 21}";
target = up;
type = BottomGhost;
},
{
horizontal = 1;
place = "{802, -20}";
target = down;
type = TopGhost;
}
);
layerId = "4181654C-020A-47A3-85ED-5DF79C071187";
paths = (
{
closed = 1;
nodes = (
"117 -110 LINE",
"461 802 LINE",
"355 802 LINE",
"10 -110 LINE"
);
}
);
width = 476;
}
);
unicode = 002F;
},
{
glyphname = zero;
layers = (
{
background = {
paths = (
{
closed = 1;
nodes = (
"42 92 OFFCURVE",
"137 -14 OFFCURVE",
"301 -14 CURVE SMOOTH",
"434 -14 OFFCURVE",
"567 70 OFFCURVE",
"567 287 CURVE SMOOTH",
"567 496 OFFCURVE",
"438 568 OFFCURVE",
"310 568 CURVE SMOOTH",
"175 568 OFFCURVE",
"42 480 OFFCURVE",
"42 270 CURVE SMOOTH"
);
},
{
closed = 1;
nodes = (
"145 445 OFFCURVE",
"212 512 OFFCURVE",
"307 512 CURVE SMOOTH",
"400 512 OFFCURVE",
"464 450 OFFCURVE",
"464 280 CURVE SMOOTH",
"464 115 OFFCURVE",
"408 40 OFFCURVE",
"303 40 CURVE SMOOTH",
"206 40 OFFCURVE",
"145 114 OFFCURVE",
"145 276 CURVE SMOOTH"
);
}
);
};
hints = (
{
place = "{42, 103}";
},
{
place = "{464, 103}";
},
{
horizontal = 1;
place = "{-14, 54}";
},
{
horizontal = 1;
place = "{512, 56}";
}
);
layerId = UUID0;
paths = (
{
closed = 1;
nodes = (
"434 -14 OFFCURVE",
"567 70 OFFCURVE",
"567 287 CURVE SMOOTH",
"567 496 OFFCURVE",
"438 568 OFFCURVE",
"310 568 CURVE SMOOTH",
"175 568 OFFCURVE",
"42 480 OFFCURVE",
"42 270 CURVE SMOOTH",
"42 92 OFFCURVE",
"137 -14 OFFCURVE",
"301 -14 CURVE SMOOTH"
);
},
{
closed = 1;
nodes = (
"206 40 OFFCURVE",
"145 114 OFFCURVE",
"145 276 CURVE SMOOTH",
"145 445 OFFCURVE",
"212 512 OFFCURVE",
"307 512 CURVE SMOOTH",
"400 512 OFFCURVE",
"464 450 OFFCURVE",
"464 280 CURVE SMOOTH",
"464 115 OFFCURVE",
"408 40 OFFCURVE",
"303 40 CURVE SMOOTH"
);
}
);
width = 609;
},
{
background = {
paths = (
{
closed = 1;
nodes = (
"35 95 OFFCURVE",
"132 -14 OFFCURVE",
"315 -14 CURVE SMOOTH",
"464 -14 OFFCURVE",
"606 74 OFFCURVE",
"606 297 CURVE SMOOTH",
"606 512 OFFCURVE",
"469 574 OFFCURVE",
"316 574 CURVE SMOOTH",
"162 574 OFFCURVE",
"35 472 OFFCURVE",
"35 277 CURVE SMOOTH"
);
},
{
closed = 1;
nodes = (
"188 410 OFFCURVE",
"226 494 OFFCURVE",
"323 494 CURVE SMOOTH",
"397 494 OFFCURVE",
"453 452 OFFCURVE",
"453 291 CURVE SMOOTH",
"453 134 OFFCURVE",
"403 65 OFFCURVE",
"319 65 CURVE SMOOTH",
"237 65 OFFCURVE",
"188 130 OFFCURVE",
"188 283 CURVE SMOOTH"
);
}
);
};
hints = (
{
place = "{35, 153}";
},
{
place = "{453, 153}";
},
{
horizontal = 1;
place = "{-14, 79}";
},
{
horizontal = 1;
place = "{494, 80}";
}
);
layerId = "4181654C-020A-47A3-85ED-5DF79C071187";
paths = (
{
closed = 1;
nodes = (
"464 -14 OFFCURVE",
"606 74 OFFCURVE",
"606 297 CURVE SMOOTH",
"606 512 OFFCURVE",
"469 574 OFFCURVE",
"316 574 CURVE SMOOTH",
"162 574 OFFCURVE",
"35 472 OFFCURVE",
"35 277 CURVE SMOOTH",
"35 95 OFFCURVE",
"132 -14 OFFCURVE",
"315 -14 CURVE SMOOTH"
);
},
{
closed = 1;
nodes = (
"237 65 OFFCURVE",
"188 130 OFFCURVE",
"188 283 CURVE SMOOTH",
"188 410 OFFCURVE",
"226 494 OFFCURVE",
"323 494 CURVE SMOOTH",
"397 494 OFFCURVE",
"453 452 OFFCURVE",
"453 291 CURVE SMOOTH",
"453 134 OFFCURVE",
"403 65 OFFCURVE",
"319 65 CURVE SMOOTH"
);
}
);
width = 641;
}
);
unicode = 0030;
},
{
glyphname = one;
layers = (
{
background = {
paths = (
{
closed = 1;
nodes = (
"165 97 LINE SMOOTH",
"165 69 OFFCURVE",
"161 60 OFFCURVE",
"135 57 CURVE SMOOTH",
"51 46 LINE",
"51 0 LINE",
"366 0 LINE",
"366 47 LINE",
"289 57 LINE SMOOTH",
"261 60 OFFCURVE",
"258 70 OFFCURVE",
"258 96 CURVE SMOOTH",
"258 558 LINE",
"241 568 LINE",
"46 543 LINE",
"40 492 LINE",
"122 492 LINE SMOOTH",
"159 492 OFFCURVE",
"165 480 OFFCURVE",
"165 439 CURVE SMOOTH"
);
}
);
};
hints = (
{
place = "{165, 93}";
},
{
horizontal = 1;
place = "{0, 21}";
target = up;
type = BottomGhost;
},
{
horizontal = 1;
place = "{568, -20}";
target = down;
type = TopGhost;
}
);
layerId = UUID0;
paths = (
{
closed = 1;
nodes = (
"366 0 LINE",
"366 47 LINE",
"289 57 LINE SMOOTH",
"261 60 OFFCURVE",
"258 70 OFFCURVE",
"258 96 CURVE SMOOTH",
"258 558 LINE",
"241 568 LINE",
"46 543 LINE",
"40 492 LINE",
"122 492 LINE SMOOTH",
"159 492 OFFCURVE",
"165 480 OFFCURVE",
"165 439 CURVE SMOOTH",
"165 97 LINE SMOOTH",
"165 69 OFFCURVE",
"161 60 OFFCURVE",
"135 57 CURVE SMOOTH",
"51 46 LINE",
"51 0 LINE"
);
}
);
width = 400;
},
{
background = {
paths = (
{
closed = 1;
nodes = (
"157 104 LINE",
"157 89 OFFCURVE",
"153 74 OFFCURVE",
"134 71 CURVE SMOOTH",
"57 61 LINE",
"57 0 LINE",
"393 0 LINE",
"393 60 LINE",
"325 72 LINE SMOOTH",
"301 76 OFFCURVE",
"298 77 OFFCURVE",
"298 112 CURVE SMOOTH",
"298 550 LINE",
"265 569 LINE",
"53 542 LINE",
"45 475 LINE",
"127 475 LINE SMOOTH",
"156 475 OFFCURVE",
"157 455 OFFCURVE",
"157 433 CURVE SMOOTH"
);
}
);
};
hints = (
{
place = "{157, 141}";
},
{
horizontal = 1;
place = "{0, 21}";
target = up;
type = BottomGhost;
},
{
horizontal = 1;
place = "{569, -20}";
target = down;
type = TopGhost;
}
);
layerId = "4181654C-020A-47A3-85ED-5DF79C071187";
paths = (
{
closed = 1;
nodes = (
"393 0 LINE",
"393 60 LINE",
"325 72 LINE SMOOTH",
"301 76 OFFCURVE",
"298 77 OFFCURVE",
"298 112 CURVE SMOOTH",
"298 550 LINE",
"265 569 LINE",
"53 542 LINE",
"45 475 LINE",
"127 475 LINE SMOOTH",
"156 475 OFFCURVE",
"157 455 OFFCURVE",
"157 433 CURVE SMOOTH",
"157 104 LINE",
"157 89 OFFCURVE",
"153 74 OFFCURVE",
"134 71 CURVE SMOOTH",
"57 61 LINE",
"57 0 LINE"
);
}
);
width = 423;
}
);
unicode = 0031;
},
{
glyphname = two;
layers = (
{
background = {
paths = (
{
closed = 1;
nodes = (
"350 307 OFFCURVE",
"291 228 OFFCURVE",
"207 163 CURVE SMOOTH",
"164 130 OFFCURVE",
"95 79 OFFCURVE",
"54 53 CURVE",
"54 0 LINE",
"486 0 LINE",
"500 178 LINE",
"449 178 LINE",
"417 86 OFFCURVE",
"395 73 OFFCURVE",
"309 73 CURVE SMOOTH",
"173 73 LINE",
"173 78 LINE",
"229 113 LINE SMOOTH",
"341 183 OFFCURVE",
"452 264 OFFCURVE",
"452 401 CURVE SMOOTH",
"452 512 OFFCURVE",
"372 568 OFFCURVE",
"256 568 CURVE SMOOTH",
"143 568 OFFCURVE",
"50 497 OFFCURVE",
"50 419 CURVE SMOOTH",
"50 386 OFFCURVE",
"66 359 OFFCURVE",
"109 359 CURVE SMOOTH",
"142 359 OFFCURVE",
"169 384 OFFCURVE",
"169 407 CURVE SMOOTH",
"169 421 OFFCURVE",
"150 451 OFFCURVE",
"137 469 CURVE",
"158 495 OFFCURVE",
"197 514 OFFCURVE",
"243 514 CURVE SMOOTH",
"303 514 OFFCURVE",
"350 489 OFFCURVE",
"350 393 CURVE SMOOTH"
);
}
);
};
hints = (
{
place = "{50, 119}";
},
{
place = "{350, 102}";
},
{
horizontal = 1;
place = "{0, 73}";
},
{
horizontal = 1;
place = "{514, 54}";
}
);
layerId = UUID0;
paths = (
{
closed = 1;
nodes = (
"486 0 LINE",
"500 178 LINE",
"449 178 LINE",
"417 86 OFFCURVE",
"395 73 OFFCURVE",
"309 73 CURVE SMOOTH",
"173 73 LINE",
"173 78 LINE",
"229 113 LINE SMOOTH",
"341 183 OFFCURVE",
"452 264 OFFCURVE",
"452 401 CURVE SMOOTH",
"452 512 OFFCURVE",
"372 568 OFFCURVE",
"256 568 CURVE SMOOTH",
"143 568 OFFCURVE",
"50 497 OFFCURVE",
"50 419 CURVE SMOOTH",
"50 386 OFFCURVE",
"66 359 OFFCURVE",
"109 359 CURVE SMOOTH",
"142 359 OFFCURVE",
"169 384 OFFCURVE",
"169 407 CURVE SMOOTH",
"169 421 OFFCURVE",
"150 451 OFFCURVE",
"137 469 CURVE",
"158 495 OFFCURVE",
"197 514 OFFCURVE",
"243 514 CURVE SMOOTH",
"303 514 OFFCURVE",
"350 489 OFFCURVE",
"350 393 CURVE SMOOTH",
"350 307 OFFCURVE",
"291 228 OFFCURVE",
"207 163 CURVE SMOOTH",
"164 130 OFFCURVE",
"95 79 OFFCURVE",
"54 53 CURVE",
"54 0 LINE"
);
}
);
width = 550;
},
{
background = {
paths = (
{
closed = 1;
nodes = (
"341 310 OFFCURVE",
"281 250 OFFCURVE",
"202 187 CURVE SMOOTH",
"159 153 OFFCURVE",
"93 103 OFFCURVE",
"51 78 CURVE",
"51 0 LINE",
"515 0 LINE",
"530 194 LINE",
"460 194 LINE",
"428 105 OFFCURVE",
"411 95 OFFCURVE",
"345 95 CURVE",
"210 95 LINE",
"210 100 LINE",
"256 130 LINE SMOOTH",
"365 201 OFFCURVE",
"494 269 OFFCURVE",
"494 400 CURVE SMOOTH",
"494 514 OFFCURVE",
"408 574 OFFCURVE",
"275 574 CURVE SMOOTH",
"136 574 OFFCURVE",
"45 502 OFFCURVE",
"45 422 CURVE SMOOTH",
"45 384 OFFCURVE",
"68 352 OFFCURVE",
"119 352 CURVE SMOOTH",
"167 352 OFFCURVE",
"192 388 OFFCURVE",
"192 416 CURVE SMOOTH",
"192 430 OFFCURVE",
"187 437 OFFCURVE",
"163 466 CURVE",
"185 488 OFFCURVE",
"220 498 OFFCURVE",
"247 498 CURVE SMOOTH",
"297 498 OFFCURVE",
"341 478 OFFCURVE",
"341 392 CURVE SMOOTH"
);
}
);
};
hints = (
{
place = "{45, 147}";
},
{
place = "{341, 153}";
},
{
horizontal = 1;
place = "{0, 95}";
},
{
horizontal = 1;
place = "{498, 76}";
},
{
horizontal = 1;
place = "{0, 194}";
}
);
layerId = "4181654C-020A-47A3-85ED-5DF79C071187";
paths = (
{
closed = 1;
nodes = (
"515 0 LINE",
"530 194 LINE",
"460 194 LINE",
"428 105 OFFCURVE",
"411 95 OFFCURVE",
"345 95 CURVE",
"210 95 LINE",
"210 100 LINE",
"256 130 LINE SMOOTH",
"365 201 OFFCURVE",
"494 269 OFFCURVE",
"494 400 CURVE SMOOTH",
"494 514 OFFCURVE",
"408 574 OFFCURVE",
"275 574 CURVE SMOOTH",
"136 574 OFFCURVE",
"45 502 OFFCURVE",
"45 422 CURVE SMOOTH",
"45 384 OFFCURVE",
"68 352 OFFCURVE",
"119 352 CURVE SMOOTH",
"167 352 OFFCURVE",
"192 388 OFFCURVE",
"192 416 CURVE SMOOTH",
"192 430 OFFCURVE",
"187 437 OFFCURVE",
"163 466 CURVE",
"185 488 OFFCURVE",
"220 498 OFFCURVE",
"247 498 CURVE SMOOTH",
"297 498 OFFCURVE",
"341 478 OFFCURVE",
"341 392 CURVE SMOOTH",
"341 310 OFFCURVE",
"281 250 OFFCURVE",
"202 187 CURVE SMOOTH",
"159 153 OFFCURVE",
"93 103 OFFCURVE",
"51 78 CURVE",
"51 0 LINE"
);
}
);
width = 585;
}
);
unicode = 0032;
},
{
glyphname = three;
layers = (
{
background = {
paths = (
{
closed = 1;
nodes = (
"180 192 LINE",
"211 200 OFFCURVE",
"239 209 OFFCURVE",
"264 219 CURVE",
"324 204 OFFCURVE",
"369 164 OFFCURVE",
"369 89 CURVE SMOOTH",
"369 -25 OFFCURVE",
"261 -102 OFFCURVE",
"70 -122 CURVE",
"78 -175 LINE",
"320 -167 OFFCURVE",
"476 -65 OFFCURVE",
"476 87 CURVE SMOOTH",
"476 191 OFFCURVE",
"402 227 OFFCURVE",
"324 247 CURVE",
"415 297 OFFCURVE",
"444 357 OFFCURVE",
"444 413 CURVE SMOOTH",
"444 516 OFFCURVE",
"362 568 OFFCURVE",
"249 568 CURVE SMOOTH",
"130 568 OFFCURVE",
"37 498 OFFCURVE",
"37 422 CURVE SMOOTH",
"37 387 OFFCURVE",
"55 360 OFFCURVE",
"102 360 CURVE SMOOTH",
"135 360 OFFCURVE",
"155 386 OFFCURVE",
"155 409 CURVE SMOOTH",
"155 423 OFFCURVE",
"137 449 OFFCURVE",
"127 466 CURVE",
"141 487 OFFCURVE",
"178 510 OFFCURVE",
"238 510 CURVE SMOOTH",
"306 510 OFFCURVE",
"346 473 OFFCURVE",
"346 413 CURVE SMOOTH",
"346 334 OFFCURVE",
"288 279 OFFCURVE",
"171 249 CURVE"
);
}
);
};
hints = (
{
place = "{369, 107}";
},
{
horizontal = 1;
place = "{510, 58}";
},
{
horizontal = 1;
place = "{-175, 21}";
target = up;
type = BottomGhost;
}
);
layerId = UUID0;
paths = (
{
closed = 1;
nodes = (
"320 -167 OFFCURVE",
"476 -65 OFFCURVE",
"476 87 CURVE SMOOTH",
"476 191 OFFCURVE",
"402 227 OFFCURVE",
"324 247 CURVE",
"331 251 LINE",
"416 300 OFFCURVE",
"444 358 OFFCURVE",
"444 413 CURVE SMOOTH",
"444 516 OFFCURVE",
"362 568 OFFCURVE",
"249 568 CURVE SMOOTH",
"130 568 OFFCURVE",
"37 498 OFFCURVE",
"37 422 CURVE SMOOTH",
"37 387 OFFCURVE",
"55 360 OFFCURVE",
"102 360 CURVE SMOOTH",
"135 360 OFFCURVE",
"155 386 OFFCURVE",
"155 409 CURVE SMOOTH",
"155 423 OFFCURVE",
"137 449 OFFCURVE",
"127 466 CURVE",
"141 487 OFFCURVE",
"178 510 OFFCURVE",
"238 510 CURVE SMOOTH",
"306 510 OFFCURVE",
"346 473 OFFCURVE",
"346 413 CURVE SMOOTH",
"346 334 OFFCURVE",
"288 279 OFFCURVE",
"171 249 CURVE",
"180 192 LINE",
"211 200 OFFCURVE",
"239 209 OFFCURVE",
"264 219 CURVE",
"324 204 OFFCURVE",
"369 164 OFFCURVE",
"369 89 CURVE SMOOTH",
"369 -25 OFFCURVE",
"261 -102 OFFCURVE",
"70 -122 CURVE",
"78 -175 LINE"
);
}
);
width = 524;
},
{
background = {
paths = (
{
closed = 1;
nodes = (
"169 177 LINE",
"206 187 OFFCURVE",
"246 197 OFFCURVE",
"280 214 CURVE",
"322 199 OFFCURVE",
"355 158 OFFCURVE",
"355 95 CURVE SMOOTH",
"355 -12 OFFCURVE",
"246 -84 OFFCURVE",
"54 -105 CURVE",
"66 -176 LINE",
"338 -168 OFFCURVE",
"513 -63 OFFCURVE",
"513 93 CURVE SMOOTH",
"513 189 OFFCURVE",
"442 234 OFFCURVE",
"359 257 CURVE",
"359 262 LINE",
"443 307 OFFCURVE",
"482 362 OFFCURVE",
"482 424 CURVE SMOOTH",
"482 520 OFFCURVE",
"400 574 OFFCURVE",
"274 574 CURVE SMOOTH",
"131 574 OFFCURVE",
"37 500 OFFCURVE",
"37 423 CURVE SMOOTH",
"37 385 OFFCURVE",
"55 352 OFFCURVE",
"106 352 CURVE SMOOTH",
"152 352 OFFCURVE",
"182 387 OFFCURVE",
"182 415 CURVE SMOOTH",
"182 428 OFFCURVE",
"178 439 OFFCURVE",
"153 466 CURVE",
"172 489 OFFCURVE",
"207 498 OFFCURVE",
"236 498 CURVE SMOOTH",
"298 498 OFFCURVE",
"332 464 OFFCURVE",
"332 412 CURVE SMOOTH",
"332 330 OFFCURVE",
"274 282 OFFCURVE",
"156 253 CURVE"
);
}
);
};
hints = (
{
place = "{37, 145}";
},
{
place = "{332, 150}";
},
{
place = "{355, 158}";
},
{
horizontal = 1;
place = "{498, 76}";
},
{
horizontal = 1;
place = "{-176, 21}";
target = up;
type = BottomGhost;
}
);
layerId = "4181654C-020A-47A3-85ED-5DF79C071187";
paths = (
{
closed = 1;
nodes = (
"338 -168 OFFCURVE",
"513 -63 OFFCURVE",
"513 93 CURVE SMOOTH",
"513 189 OFFCURVE",
"442 234 OFFCURVE",
"359 257 CURVE",
"359 262 LINE",
"443 307 OFFCURVE",
"482 362 OFFCURVE",
"482 424 CURVE SMOOTH",
"482 520 OFFCURVE",
"400 574 OFFCURVE",
"274 574 CURVE SMOOTH",
"131 574 OFFCURVE",
"37 500 OFFCURVE",
"37 423 CURVE SMOOTH",
"37 385 OFFCURVE",
"55 352 OFFCURVE",
"106 352 CURVE SMOOTH",
"152 352 OFFCURVE",
"182 387 OFFCURVE",
"182 415 CURVE SMOOTH",
"182 428 OFFCURVE",
"178 439 OFFCURVE",
"153 466 CURVE",
"172 489 OFFCURVE",
"207 498 OFFCURVE",
"236 498 CURVE SMOOTH",
"298 498 OFFCURVE",
"332 464 OFFCURVE",
"332 412 CURVE SMOOTH",
"332 330 OFFCURVE",
"274 282 OFFCURVE",
"156 253 CURVE",
"169 177 LINE",
"206 187 OFFCURVE",
"246 197 OFFCURVE",
"280 214 CURVE",
"322 199 OFFCURVE",
"355 158 OFFCURVE",
"355 95 CURVE SMOOTH",
"355 -12 OFFCURVE",
"246 -84 OFFCURVE",
"54 -105 CURVE",
"66 -176 LINE"
);
}
);
width = 566;
}
);
unicode = 0033;
},
{
glyphname = four;
layers = (
{
background = {
paths = (
{
closed = 1;
nodes = (
"440 -164 LINE",
"440 0 LINE",
"478 0 LINE SMOOTH",
"509 0 OFFCURVE",
"515 -5 OFFCURVE",
"520 -28 CURVE SMOOTH",
"528 -59 LINE",
"574 -59 LINE",
"574 146 LINE",
"529 146 LINE",
"520 96 LINE SMOOTH",
"516 73 OFFCURVE",
"509 68 OFFCURVE",
"478 68 CURVE SMOOTH",
"440 68 LINE",
"440 559 LINE",
"429 568 LINE",
"348 553 LINE",
"15 50 LINE",
"24 0 LINE",
"348 0 LINE",
"348 -164 LINE"
);
},
{
closed = 1;
nodes = (
"99 68 LINE",
"348 443 LINE",
"348 68 LINE"
);
}
);
};
hints = (
{
place = "{348, 92}";
},
{
horizontal = 1;
place = "{0, 68}";
},
{
horizontal = 1;
place = "{-164, 21}";
target = up;
type = BottomGhost;
},
{
horizontal = 1;
place = "{568, -20}";
target = down;
type = TopGhost;
}
);
layerId = UUID0;
paths = (
{
closed = 1;
nodes = (
"440 -164 LINE",
"440 0 LINE",
"478 0 LINE SMOOTH",
"509 0 OFFCURVE",
"515 -5 OFFCURVE",
"520 -28 CURVE SMOOTH",
"528 -59 LINE",
"574 -59 LINE",
"574 146 LINE",
"529 146 LINE",
"520 96 LINE SMOOTH",
"516 73 OFFCURVE",
"509 68 OFFCURVE",
"478 68 CURVE SMOOTH",
"440 68 LINE",
"440 559 LINE",
"429 568 LINE",
"348 553 LINE",
"15 50 LINE",
"24 0 LINE",
"348 0 LINE",
"348 -164 LINE"
);
},
{
closed = 1;
nodes = (
"348 443 LINE",
"348 68 LINE",
"99 68 LINE"
);
}
);
width = 614;
},
{
background = {
paths = (
{
closed = 1;
nodes = (
"473 -164 LINE",
"473 0 LINE",
"504 0 LINE SMOOTH",
"518 0 OFFCURVE",
"526 -5 OFFCURVE",
"530 -19 CURVE SMOOTH",
"544 -62 LINE",
"600 -62 LINE",
"600 161 LINE",
"544 161 LINE",
"530 114 LINE SMOOTH",
"525 98 OFFCURVE",
"516 96 OFFCURVE",
"505 96 CURVE SMOOTH",
"473 96 LINE",
"473 553 LINE",
"447 574 LINE",
"348 555 LINE",
"10 79 LINE",
"21 0 LINE",
"341 0 LINE",
"341 -164 LINE"
);
},
{
closed = 1;
nodes = (
"113 96 LINE",
"341 410 LINE",
"341 96 LINE"
);
}
);
};
hints = (
{
place = "{341, 132}";
},
{
horizontal = 1;
place = "{0, 96}";
},
{
horizontal = 1;
place = "{-164, 21}";
target = up;
type = BottomGhost;
},
{
horizontal = 1;
place = "{574, -20}";
target = down;
type = TopGhost;
}
);
layerId = "4181654C-020A-47A3-85ED-5DF79C071187";
paths = (
{
closed = 1;
nodes = (
"473 -164 LINE",
"473 0 LINE",
"504 0 LINE SMOOTH",
"518 0 OFFCURVE",
"526 -5 OFFCURVE",
"530 -19 CURVE SMOOTH",
"544 -62 LINE",
"600 -62 LINE",
"600 161 LINE",
"544 161 LINE",
"530 114 LINE SMOOTH",
"525 98 OFFCURVE",
"516 96 OFFCURVE",
"505 96 CURVE SMOOTH",
"473 96 LINE",
"473 553 LINE",
"447 574 LINE",
"348 555 LINE",
"10 79 LINE",
"21 0 LINE",
"341 0 LINE",
"341 -164 LINE"
);
},
{
closed = 1;
nodes = (
"341 410 LINE",
"341 96 LINE",
"113 96 LINE"
);
}
);
width = 632;
}
);
unicode = 0034;
},
{
glyphname = five;
layers = (
{
background = {
paths = (
{
closed = 1;
nodes = (
"451 626 LINE",
"399 626 LINE",
"382 559 OFFCURVE",
"366 554 OFFCURVE",
"291 554 CURVE SMOOTH",
"110 554 LINE",
"83 240 LINE",
"109 202 LINE",
"156 222 OFFCURVE",
"192 231 OFFCURVE",
"235 231 CURVE SMOOTH",
"321 231 OFFCURVE",
"367 185 OFFCURVE",
"367 108 CURVE SMOOTH",
"367 -25 OFFCURVE",
"253 -97 OFFCURVE",
"67 -124 CURVE",
"75 -176 LINE",
"306 -163 OFFCURVE",
"474 -67 OFFCURVE",
"474 117 CURVE SMOOTH",
"474 235 OFFCURVE",
"403 309 OFFCURVE",
"285 309 CURVE SMOOTH",
"236 309 OFFCURVE",
"186 295 OFFCURVE",
"148 272 CURVE",
"166 465 LINE",
"433 465 LINE"
);
}
);
};
hints = (
{
place = "{367, 107}";
},
{
horizontal = 1;
place = "{231, 78}";
},
{
horizontal = 1;
place = "{465, 89}";
},
{
horizontal = 1;
place = "{626, -20}";
target = down;
type = TopGhost;
},
{
horizontal = 1;
place = "{-176, 21}";
target = up;
type = BottomGhost;
}
);
layerId = UUID0;
paths = (
{
closed = 1;
nodes = (
"306 -163 OFFCURVE",
"474 -67 OFFCURVE",
"474 117 CURVE SMOOTH",
"474 235 OFFCURVE",
"403 309 OFFCURVE",
"285 309 CURVE SMOOTH",
"236 309 OFFCURVE",
"186 295 OFFCURVE",
"148 272 CURVE",
"166 465 LINE",
"433 465 LINE",
"451 626 LINE",
"399 626 LINE",
"382 559 OFFCURVE",
"366 554 OFFCURVE",
"291 554 CURVE SMOOTH",
"110 554 LINE",
"83 240 LINE",
"109 202 LINE",
"156 222 OFFCURVE",
"192 231 OFFCURVE",
"235 231 CURVE SMOOTH",
"321 231 OFFCURVE",
"367 185 OFFCURVE",
"367 108 CURVE SMOOTH",
"367 -25 OFFCURVE",
"253 -97 OFFCURVE",
"67 -124 CURVE",
"75 -176 LINE"
);
}
);
width = 523;
},
{
background = {
paths = (
{
closed = 1;
nodes = (
"460 451 LINE",
"172 451 LINE",
"155 277 LINE",
"198 300 OFFCURVE",
"245 316 OFFCURVE",
"302 316 CURVE SMOOTH",
"418 316 OFFCURVE",
"496 240 OFFCURVE",
"496 119 CURVE SMOOTH",
"496 -67 OFFCURVE",
"321 -169 OFFCURVE",
"49 -176 CURVE",
"37 -105 LINE",
"251 -81 OFFCURVE",
"339 -9 OFFCURVE",
"339 110 CURVE SMOOTH",
"339 179 OFFCURVE",
"294 220 OFFCURVE",
"224 220 CURVE SMOOTH",
"190 220 OFFCURVE",
"152 216 OFFCURVE",
"99 192 CURVE",
"66 240 LINE",
"94 560 LINE",
"324 560 LINE SMOOTH",
"384 560 OFFCURVE",
"397 571 OFFCURVE",
"415 636 CURVE",
"482 636 LINE"
);
}
);
};
hints = (
{
place = "{339, 157}";
},
{
horizontal = 1;
place = "{220, 96}";
},
{
horizontal = 1;
place = "{451, 109}";
},
{
horizontal = 1;
place = "{636, -20}";
target = down;
type = TopGhost;
},
{
horizontal = 1;
place = "{-176, 21}";
target = up;
type = BottomGhost;
}
);
layerId = "4181654C-020A-47A3-85ED-5DF79C071187";
paths = (
{
closed = 1;
nodes = (
"321 -169 OFFCURVE",
"496 -67 OFFCURVE",
"496 119 CURVE SMOOTH",
"496 240 OFFCURVE",
"418 316 OFFCURVE",
"302 316 CURVE SMOOTH",
"245 316 OFFCURVE",
"198 300 OFFCURVE",
"155 277 CURVE",
"172 451 LINE",
"460 451 LINE",
"482 636 LINE",
"415 636 LINE",
"397 571 OFFCURVE",
"384 560 OFFCURVE",
"324 560 CURVE SMOOTH",
"94 560 LINE",
"66 240 LINE",
"99 192 LINE",
"152 216 OFFCURVE",
"190 220 OFFCURVE",
"224 220 CURVE SMOOTH",
"294 220 OFFCURVE",
"339 179 OFFCURVE",
"339 110 CURVE SMOOTH",
"339 -9 OFFCURVE",
"251 -81 OFFCURVE",
"37 -105 CURVE",
"49 -176 LINE"
);
}
);
width = 542;
}
);
unicode = 0035;
},
{
glyphname = six;
layers = (
{
background = {
paths = (
{
closed = 1;
nodes = (
"523 376 OFFCURVE",
"434 453 OFFCURVE",
"321 453 CURVE SMOOTH",
"238 453 OFFCURVE",
"179 411 OFFCURVE",
"153 368 CURVE",
"149 371 LINE",
"181 552 OFFCURVE",
"289 647 OFFCURVE",
"464 673 CURVE",
"452 725 LINE",
"227 707 OFFCURVE",
"50 572 OFFCURVE",
"50 275 CURVE SMOOTH",
"50 119 OFFCURVE",
"112 -14 OFFCURVE",
"285 -14 CURVE SMOOTH",
"420 -14 OFFCURVE",
"523 72 OFFCURVE",
"523 237 CURVE SMOOTH"
);
},
{
closed = 1;
nodes = (
"423 103 OFFCURVE",
"368 47 OFFCURVE",
"289 47 CURVE SMOOTH",
"184 47 OFFCURVE",
"152 130 OFFCURVE",
"152 232 CURVE SMOOTH",
"152 339 OFFCURVE",
"225 385 OFFCURVE",
"288 385 CURVE SMOOTH",
"371 385 OFFCURVE",
"423 341 OFFCURVE",
"423 226 CURVE SMOOTH"
);
}
);
};
hints = (
{
place = "{50, 102}";
},
{
place = "{423, 100}";
},
{
horizontal = 1;
place = "{-14, 61}";
},
{
horizontal = 1;
place = "{385, 68}";
},
{
horizontal = 1;
place = "{725, -20}";
target = down;
type = TopGhost;
}
);
layerId = UUID0;
paths = (
{
closed = 1;
nodes = (
"420 -14 OFFCURVE",
"523 72 OFFCURVE",
"523 237 CURVE SMOOTH",
"523 376 OFFCURVE",
"434 453 OFFCURVE",
"321 453 CURVE SMOOTH",
"238 453 OFFCURVE",
"179 411 OFFCURVE",
"153 368 CURVE",
"149 371 LINE",
"181 552 OFFCURVE",
"289 647 OFFCURVE",
"464 673 CURVE",
"452 725 LINE",
"227 707 OFFCURVE",
"50 572 OFFCURVE",
"50 275 CURVE SMOOTH",
"50 119 OFFCURVE",
"112 -14 OFFCURVE",
"285 -14 CURVE SMOOTH"
);
},
{
closed = 1;
nodes = (
"184 47 OFFCURVE",
"152 130 OFFCURVE",
"152 232 CURVE SMOOTH",
"152 339 OFFCURVE",
"225 385 OFFCURVE",
"288 385 CURVE SMOOTH",
"371 385 OFFCURVE",
"423 341 OFFCURVE",
"423 226 CURVE SMOOTH",
"423 103 OFFCURVE",
"368 47 OFFCURVE",
"289 47 CURVE SMOOTH"
);
}
);
width = 567;
},
{
background = {
paths = (
{
closed = 1;
nodes = (
"579 82 OFFCURVE",
"465 -14 OFFCURVE",
"310 -14 CURVE SMOOTH",
"123 -14 OFFCURVE",
"52 122 OFFCURVE",
"52 273 CURVE SMOOTH",
"52 574 OFFCURVE",
"247 710 OFFCURVE",
"490 729 CURVE",
"507 657 LINE",
"362 635 OFFCURVE",
"234 556 OFFCURVE",
"198 398 CURVE",
"200 396 LINE",
"234 434 OFFCURVE",
"297 461 OFFCURVE",
"364 461 CURVE SMOOTH",
"489 461 OFFCURVE",
"579 382 OFFCURVE",
"579 243 CURVE SMOOTH"
);
},
{
closed = 1;
nodes = (
"428 325 OFFCURVE",
"396 381 OFFCURVE",
"323 381 CURVE SMOOTH",
"261 381 OFFCURVE",
"204 334 OFFCURVE",
"204 231 CURVE SMOOTH",
"204 130 OFFCURVE",
"236 62 OFFCURVE",
"318 62 CURVE SMOOTH",
"389 62 OFFCURVE",
"428 117 OFFCURVE",
"428 229 CURVE SMOOTH"
);
}
);
};
hints = (
{
place = "{52, 152}";
},
{
place = "{428, 151}";
},
{
horizontal = 1;
place = "{-14, 76}";
},
{
horizontal = 1;
place = "{381, 80}";
},
{
horizontal = 1;
place = "{729, -20}";
target = down;
type = TopGhost;
}
);
layerId = "4181654C-020A-47A3-85ED-5DF79C071187";
paths = (
{
closed = 1;
nodes = (
"465 -14 OFFCURVE",
"579 82 OFFCURVE",
"579 243 CURVE SMOOTH",
"579 382 OFFCURVE",
"489 461 OFFCURVE",
"364 461 CURVE SMOOTH",
"297 461 OFFCURVE",
"234 434 OFFCURVE",
"200 396 CURVE",
"198 398 LINE",
"234 556 OFFCURVE",
"362 635 OFFCURVE",
"507 657 CURVE",
"490 729 LINE",
"247 710 OFFCURVE",
"52 574 OFFCURVE",
"52 273 CURVE SMOOTH",
"52 122 OFFCURVE",
"123 -14 OFFCURVE",
"310 -14 CURVE SMOOTH"
);
},
{
closed = 1;
nodes = (
"236 62 OFFCURVE",
"204 130 OFFCURVE",
"204 231 CURVE SMOOTH",
"204 334 OFFCURVE",
"261 381 OFFCURVE",
"323 381 CURVE SMOOTH",
"396 381 OFFCURVE",
"428 325 OFFCURVE",
"428 229 CURVE SMOOTH",
"428 117 OFFCURVE",
"389 62 OFFCURVE",
"318 62 CURVE SMOOTH"
);
}
);
width = 621;
}
);
unicode = 0036;
},
{
glyphname = seven;
layers = (
{
background = {
paths = (
{
closed = 1;
nodes = (
"247 -164 LINE",
"310 -37 OFFCURVE",
"404 185 OFFCURVE",
"519 490 CURVE",
"511 554 LINE",
"58 554 LINE",
"40 365 LINE",
"90 365 LINE",
"120 455 OFFCURVE",
"126 465 OFFCURVE",
"212 465 CURVE SMOOTH",
"434 465 LINE",
"366 234 OFFCURVE",
"218 -5 OFFCURVE",
"128 -148 CURVE",
"137 -164 LINE"
);
}
);
};
hints = (
{
horizontal = 1;
place = "{465, 89}";
},
{
horizontal = 1;
place = "{-164, 21}";
target = up;
type = BottomGhost;
}
);
layerId = UUID0;
paths = (
{
closed = 1;
nodes = (
"247 -164 LINE",
"310 -37 OFFCURVE",
"404 185 OFFCURVE",
"519 490 CURVE",
"511 554 LINE",
"58 554 LINE",
"40 365 LINE",
"90 365 LINE",
"120 455 OFFCURVE",
"126 465 OFFCURVE",
"212 465 CURVE SMOOTH",
"434 465 LINE",
"366 234 OFFCURVE",
"218 -5 OFFCURVE",
"128 -148 CURVE",
"137 -164 LINE"
);
}
);
width = 558;
},
{
background = {
paths = (
{
closed = 1;
nodes = (
"281 -163 LINE",
"346 -32 OFFCURVE",
"437 203 OFFCURVE",
"552 498 CURVE",
"540 560 LINE",
"63 560 LINE",
"43 347 LINE",
"113 347 LINE",
"142 434 OFFCURVE",
"140 451 OFFCURVE",
"226 451 CURVE SMOOTH",
"427 451 LINE",
"355 225 OFFCURVE",
"205 -1 OFFCURVE",
"117 -137 CURVE",
"132 -163 LINE"
);
}
);
};
hints = (
{
horizontal = 1;
place = "{451, 109}";
},
{
horizontal = 1;
place = "{-163, 21}";
target = up;
type = BottomGhost;
}
);
layerId = "4181654C-020A-47A3-85ED-5DF79C071187";
paths = (
{
closed = 1;
nodes = (
"281 -163 LINE",
"346 -32 OFFCURVE",
"437 203 OFFCURVE",
"552 498 CURVE",
"540 560 LINE",
"63 560 LINE",
"43 347 LINE",
"113 347 LINE",
"142 434 OFFCURVE",
"140 451 OFFCURVE",
"226 451 CURVE SMOOTH",
"427 451 LINE",
"355 225 OFFCURVE",
"205 -1 OFFCURVE",
"117 -137 CURVE",
"132 -163 LINE"
);
}
);
width = 575;
}
);
unicode = 0037;
},
{
glyphname = eight;
layers = (
{
background = {
paths = (
{
closed = 1;
nodes = (
"191 463 OFFCURVE",
"156 500 OFFCURVE",
"156 557 CURVE SMOOTH",
"156 625 OFFCURVE",
"211 659 OFFCURVE",
"277 659 CURVE SMOOTH",
"342 659 OFFCURVE",
"402 621 OFFCURVE",
"402 548 CURVE SMOOTH",
"402 493 OFFCURVE",
"368 443 OFFCURVE",
"320 411 CURVE"
);
},
{
closed = 1;
nodes = (
"440 424 OFFCURVE",
"494 477 OFFCURVE",
"494 562 CURVE SMOOTH",
"494 648 OFFCURVE",
"418 714 OFFCURVE",
"281 714 CURVE SMOOTH",
"133 714 OFFCURVE",
"64 620 OFFCURVE",
"64 538 CURVE SMOOTH",
"64 464 OFFCURVE",
"94 418 OFFCURVE",
"196 367 CURVE",
"69 326 OFFCURVE",
"35 242 OFFCURVE",
"35 171 CURVE SMOOTH",
"35 45 OFFCURVE",
"141 -14 OFFCURVE",
"275 -14 CURVE SMOOTH",
"402 -14 OFFCURVE",
"525 58 OFFCURVE",
"525 194 CURVE SMOOTH",
"525 271 OFFCURVE",
"488 339 OFFCURVE",
"373 390 CURVE"
);
},
{
closed = 1;
nodes = (
"361 302 OFFCURVE",
"422 259 OFFCURVE",
"422 175 CURVE SMOOTH",
"422 91 OFFCURVE",
"369 44 OFFCURVE",
"284 44 CURVE SMOOTH",
"192 44 OFFCURVE",
"134 96 OFFCURVE",
"134 180 CURVE SMOOTH",
"134 241 OFFCURVE",
"167 301 OFFCURVE",
"244 340 CURVE"
);
}
);
};
hints = (
{
place = "{35, 99}";
},
{
place = "{422, 103}";
},
{
horizontal = 1;
place = "{-14, 58}";
},
{
horizontal = 1;
place = "{659, 55}";
}
);
layerId = UUID0;
paths = (
{
closed = 1;
nodes = (
"402 -14 OFFCURVE",
"525 58 OFFCURVE",
"525 194 CURVE SMOOTH",
"525 271 OFFCURVE",
"488 339 OFFCURVE",
"373 390 CURVE",
"440 424 OFFCURVE",
"494 477 OFFCURVE",
"494 562 CURVE SMOOTH",
"494 648 OFFCURVE",
"418 714 OFFCURVE",
"281 714 CURVE SMOOTH",
"133 714 OFFCURVE",
"64 620 OFFCURVE",
"64 538 CURVE SMOOTH",
"64 464 OFFCURVE",
"94 418 OFFCURVE",
"196 367 CURVE",
"69 326 OFFCURVE",
"35 242 OFFCURVE",
"35 171 CURVE SMOOTH",
"35 45 OFFCURVE",
"141 -14 OFFCURVE",
"275 -14 CURVE SMOOTH"
);
},
{
closed = 1;
nodes = (
"192 44 OFFCURVE",
"134 96 OFFCURVE",
"134 180 CURVE SMOOTH",
"134 241 OFFCURVE",
"167 301 OFFCURVE",
"244 340 CURVE",
"361 302 OFFCURVE",
"422 259 OFFCURVE",
"422 175 CURVE SMOOTH",
"422 91 OFFCURVE",
"369 44 OFFCURVE",
"284 44 CURVE SMOOTH"
);
},
{
closed = 1;
nodes = (
"191 463 OFFCURVE",
"156 500 OFFCURVE",
"156 557 CURVE SMOOTH",
"156 625 OFFCURVE",
"211 659 OFFCURVE",
"277 659 CURVE SMOOTH",
"342 659 OFFCURVE",
"402 621 OFFCURVE",
"402 548 CURVE SMOOTH",
"402 493 OFFCURVE",
"368 443 OFFCURVE",
"320 411 CURVE"
);
}
);
width = 567;
},
{
background = {
paths = (
{
closed = 1;
nodes = (
"206 615 OFFCURVE",
"247 641 OFFCURVE",
"296 641 CURVE SMOOTH",
"351 641 OFFCURVE",
"392 609 OFFCURVE",
"392 548 CURVE SMOOTH",
"392 501 OFFCURVE",
"366 454 OFFCURVE",
"331 426 CURVE",
"233 469 OFFCURVE",
"206 503 OFFCURVE",
"206 558 CURVE SMOOTH"
);
},
{
closed = 1;
nodes = (
"530 649 OFFCURVE",
"459 714 OFFCURVE",
"303 714 CURVE SMOOTH",
"141 714 OFFCURVE",
"68 620 OFFCURVE",
"68 535 CURVE SMOOTH",
"68 465 OFFCURVE",
"95 414 OFFCURVE",
"196 369 CURVE",
"80 334 OFFCURVE",
"33 254 OFFCURVE",
"33 178 CURVE SMOOTH",
"33 49 OFFCURVE",
"144 -14 OFFCURVE",
"294 -14 CURVE SMOOTH",
"428 -14 OFFCURVE",
"563 61 OFFCURVE",
"563 201 CURVE SMOOTH",
"563 275 OFFCURVE",
"520 341 OFFCURVE",
"406 390 CURVE",
"476 420 OFFCURVE",
"530 480 OFFCURVE",
"530 558 CURVE SMOOTH"
);
},
{
closed = 1;
nodes = (
"416 104 OFFCURVE",
"369 60 OFFCURVE",
"302 60 CURVE SMOOTH",
"222 60 OFFCURVE",
"176 110 OFFCURVE",
"176 187 CURVE SMOOTH",
"176 243 OFFCURVE",
"208 297 OFFCURVE",
"268 330 CURVE",
"361 297 OFFCURVE",
"416 259 OFFCURVE",
"416 182 CURVE SMOOTH"
);
}
);
};
hints = (
{
place = "{33, 143}";
},
{
place = "{68, 138}";
},
{
place = "{392, 138}";
},
{
place = "{416, 147}";
},
{
horizontal = 1;
place = "{-14, 74}";
},
{
horizontal = 1;
place = "{641, 73}";
}
);
layerId = "4181654C-020A-47A3-85ED-5DF79C071187";
paths = (
{
closed = 1;
nodes = (
"428 -14 OFFCURVE",
"563 61 OFFCURVE",
"563 201 CURVE SMOOTH",
"563 275 OFFCURVE",
"520 341 OFFCURVE",
"406 390 CURVE",
"476 420 OFFCURVE",
"530 480 OFFCURVE",
"530 558 CURVE SMOOTH",
"530 649 OFFCURVE",
"459 714 OFFCURVE",
"303 714 CURVE SMOOTH",
"141 714 OFFCURVE",
"68 620 OFFCURVE",
"68 535 CURVE SMOOTH",
"68 465 OFFCURVE",
"95 414 OFFCURVE",
"196 369 CURVE",
"80 334 OFFCURVE",
"33 254 OFFCURVE",
"33 178 CURVE SMOOTH",
"33 49 OFFCURVE",
"144 -14 OFFCURVE",
"294 -14 CURVE SMOOTH"
);
},
{
closed = 1;
nodes = (
"222 60 OFFCURVE",
"176 110 OFFCURVE",
"176 187 CURVE SMOOTH",
"176 243 OFFCURVE",
"208 297 OFFCURVE",
"268 330 CURVE",
"361 297 OFFCURVE",
"416 259 OFFCURVE",
"416 182 CURVE SMOOTH",
"416 104 OFFCURVE",
"369 60 OFFCURVE",
"302 60 CURVE SMOOTH"
);
},
{
closed = 1;
nodes = (
"233 469 OFFCURVE",
"206 503 OFFCURVE",
"206 558 CURVE SMOOTH",
"206 615 OFFCURVE",
"247 641 OFFCURVE",
"296 641 CURVE SMOOTH",
"351 641 OFFCURVE",
"392 609 OFFCURVE",
"392 548 CURVE SMOOTH",
"392 501 OFFCURVE",
"366 454 OFFCURVE",
"331 426 CURVE"
);
}
);
width = 594;
}
);
unicode = 0038;
},
{
glyphname = nine;
layers = (
{
background = {
paths = (
{
closed = 1;
nodes = (
"44 176 OFFCURVE",
"133 103 OFFCURVE",
"255 103 CURVE SMOOTH",
"329 103 OFFCURVE",
"381 138 OFFCURVE",
"414 188 CURVE",
"392 -8 OFFCURVE",
"261 -102 OFFCURVE",
"107 -121 CURVE",
"115 -175 LINE",
"323 -164 OFFCURVE",
"517 -38 OFFCURVE",
"517 265 CURVE SMOOTH",
"517 436 OFFCURVE",
"455 568 OFFCURVE",
"282 568 CURVE SMOOTH",
"147 568 OFFCURVE",
"44 484 OFFCURVE",
"44 328 CURVE SMOOTH"
);
},
{
closed = 1;
nodes = (
"144 454 OFFCURVE",
"199 507 OFFCURVE",
"276 507 CURVE SMOOTH",
"381 507 OFFCURVE",
"415 431 OFFCURVE",
"415 326 CURVE SMOOTH",
"415 216 OFFCURVE",
"342 175 OFFCURVE",
"281 175 CURVE SMOOTH",
"196 175 OFFCURVE",
"144 216 OFFCURVE",
"144 340 CURVE SMOOTH"
);
}
);
};
hints = (
{
place = "{44, 100}";
},
{
place = "{415, 102}";
},
{
horizontal = 1;
place = "{103, 72}";
},
{
horizontal = 1;
place = "{507, 61}";
},
{
horizontal = 1;
place = "{-175, 21}";
target = up;
type = BottomGhost;
}
);
layerId = UUID0;
paths = (
{
closed = 1;
nodes = (
"323 -164 OFFCURVE",
"517 -38 OFFCURVE",
"517 265 CURVE SMOOTH",
"517 436 OFFCURVE",
"455 568 OFFCURVE",
"282 568 CURVE SMOOTH",
"147 568 OFFCURVE",
"44 484 OFFCURVE",
"44 328 CURVE SMOOTH",
"44 176 OFFCURVE",
"133 103 OFFCURVE",
"255 103 CURVE SMOOTH",
"329 103 OFFCURVE",
"381 138 OFFCURVE",
"414 188 CURVE",
"413 181 LINE",
"389 -10 OFFCURVE",
"259 -102 OFFCURVE",
"107 -121 CURVE",
"115 -175 LINE"
);
},
{
closed = 1;
nodes = (
"196 175 OFFCURVE",
"144 216 OFFCURVE",
"144 340 CURVE SMOOTH",
"144 454 OFFCURVE",
"199 507 OFFCURVE",
"276 507 CURVE SMOOTH",
"381 507 OFFCURVE",
"415 431 OFFCURVE",
"415 326 CURVE SMOOTH",
"415 216 OFFCURVE",
"342 175 OFFCURVE",
"281 175 CURVE SMOOTH"
);
}
);
width = 567;
},
{
background = {
paths = (
{
closed = 1;
nodes = (
"47 478 OFFCURVE",
"161 574 OFFCURVE",
"316 574 CURVE SMOOTH",
"503 574 OFFCURVE",
"574 443 OFFCURVE",
"574 292 CURVE SMOOTH",
"574 -9 OFFCURVE",
"391 -157 OFFCURVE",
"136 -176 CURVE",
"123 -100 LINE",
"272 -77 OFFCURVE",
"387 0 OFFCURVE",
"423 158 CURVE",
"421 160 LINE",
"387 122 OFFCURVE",
"334 93 OFFCURVE",
"262 93 CURVE SMOOTH",
"137 93 OFFCURVE",
"47 178 OFFCURVE",
"47 317 CURVE SMOOTH"
);
},
{
closed = 1;
nodes = (
"198 235 OFFCURVE",
"230 173 OFFCURVE",
"303 173 CURVE SMOOTH",
"365 173 OFFCURVE",
"421 221 OFFCURVE",
"421 337 CURVE SMOOTH",
"421 430 OFFCURVE",
"391 498 OFFCURVE",
"307 498 CURVE SMOOTH",
"237 498 OFFCURVE",
"198 443 OFFCURVE",
"198 331 CURVE SMOOTH"
);
}
);
};
hints = (
{
place = "{47, 151}";
},
{
place = "{421, 153}";
},
{
horizontal = 1;
place = "{93, 80}";
},
{
horizontal = 1;
place = "{498, 76}";
},
{
horizontal = 1;
place = "{-176, 21}";
target = up;
type = BottomGhost;
}
);
layerId = "4181654C-020A-47A3-85ED-5DF79C071187";
paths = (
{
closed = 1;
nodes = (
"391 -157 OFFCURVE",
"574 -9 OFFCURVE",
"574 292 CURVE SMOOTH",
"574 443 OFFCURVE",
"503 574 OFFCURVE",
"316 574 CURVE SMOOTH",
"161 574 OFFCURVE",
"47 478 OFFCURVE",
"47 317 CURVE SMOOTH",
"47 178 OFFCURVE",
"137 93 OFFCURVE",
"262 93 CURVE SMOOTH",
"334 93 OFFCURVE",
"387 122 OFFCURVE",
"421 160 CURVE",
"423 158 LINE",
"387 0 OFFCURVE",
"272 -77 OFFCURVE",
"123 -100 CURVE",
"136 -176 LINE"
);
},
{
closed = 1;
nodes = (
"230 173 OFFCURVE",
"198 235 OFFCURVE",
"198 331 CURVE SMOOTH",
"198 443 OFFCURVE",
"237 498 OFFCURVE",
"307 498 CURVE SMOOTH",
"391 498 OFFCURVE",
"421 430 OFFCURVE",
"421 337 CURVE SMOOTH",
"421 221 OFFCURVE",
"365 173 OFFCURVE",
"303 173 CURVE SMOOTH"
);
}
);
width = 621;
}
);
unicode = 0039;
},
{
glyphname = colon;
layers = (
{
background = {
paths = (
{
closed = 1;
nodes = (
"90 14 OFFCURVE",
"122 -17 OFFCURVE",
"166 -17 CURVE SMOOTH",
"211 -17 OFFCURVE",
"243 15 OFFCURVE",
"243 59 CURVE SMOOTH",
"243 103 OFFCURVE",
"211 134 OFFCURVE",
"166 134 CURVE SMOOTH",
"122 134 OFFCURVE",
"90 102 OFFCURVE",
"90 58 CURVE SMOOTH"
);
},
{
closed = 1;
nodes = (
"90 401 OFFCURVE",
"122 370 OFFCURVE",
"166 370 CURVE SMOOTH",
"211 370 OFFCURVE",
"243 402 OFFCURVE",
"243 446 CURVE SMOOTH",
"243 490 OFFCURVE",
"211 521 OFFCURVE",
"166 521 CURVE SMOOTH",
"122 521 OFFCURVE",
"90 489 OFFCURVE",
"90 445 CURVE SMOOTH"
);
}
);
};
hints = (
{
place = "{90, 153}";
},
{
horizontal = 1;
place = "{-17, 151}";
},
{
horizontal = 1;
place = "{370, 151}";
}
);
layerId = UUID0;
paths = (
{
closed = 1;
nodes = (
"211 370 OFFCURVE",
"243 402 OFFCURVE",
"243 446 CURVE SMOOTH",
"243 490 OFFCURVE",
"211 521 OFFCURVE",
"166 521 CURVE SMOOTH",
"122 521 OFFCURVE",
"90 489 OFFCURVE",
"90 445 CURVE SMOOTH",
"90 401 OFFCURVE",
"122 370 OFFCURVE",
"166 370 CURVE SMOOTH"
);
},
{
closed = 1;
nodes = (
"211 -17 OFFCURVE",
"243 15 OFFCURVE",
"243 59 CURVE SMOOTH",
"243 103 OFFCURVE",
"211 134 OFFCURVE",
"166 134 CURVE SMOOTH",
"122 134 OFFCURVE",
"90 102 OFFCURVE",
"90 58 CURVE SMOOTH",
"90 14 OFFCURVE",
"122 -17 OFFCURVE",
"166 -17 CURVE SMOOTH"
);
}
);
width = 333;
},
{
background = {
paths = (
{
closed = 1;
nodes = (
"70 4 OFFCURVE",
"106 -19 OFFCURVE",
"155 -19 CURVE SMOOTH",
"208 -19 OFFCURVE",
"244 5 OFFCURVE",
"244 63 CURVE SMOOTH",
"244 120 OFFCURVE",
"208 144 OFFCURVE",
"155 144 CURVE SMOOTH",
"106 144 OFFCURVE",
"70 119 OFFCURVE",
"70 61 CURVE SMOOTH"
);
},
{
closed = 1;
nodes = (
"70 387 OFFCURVE",
"106 364 OFFCURVE",
"155 364 CURVE SMOOTH",
"208 364 OFFCURVE",
"244 388 OFFCURVE",
"244 446 CURVE SMOOTH",
"244 503 OFFCURVE",
"208 527 OFFCURVE",
"155 527 CURVE SMOOTH",
"106 527 OFFCURVE",
"70 502 OFFCURVE",
"70 444 CURVE SMOOTH"
);
}
);
};
hints = (
{
place = "{70, 174}";
},
{
horizontal = 1;
place = "{-19, 163}";
},
{
horizontal = 1;
place = "{364, 163}";
}
);
layerId = "4181654C-020A-47A3-85ED-5DF79C071187";
paths = (
{
closed = 1;
nodes = (
"208 364 OFFCURVE",
"244 388 OFFCURVE",
"244 446 CURVE SMOOTH",
"244 503 OFFCURVE",
"208 527 OFFCURVE",
"155 527 CURVE SMOOTH",
"106 527 OFFCURVE",
"70 502 OFFCURVE",
"70 444 CURVE SMOOTH",
"70 387 OFFCURVE",
"106 364 OFFCURVE",
"155 364 CURVE SMOOTH"
);
},
{
closed = 1;
nodes = (
"208 -19 OFFCURVE",
"244 5 OFFCURVE",
"244 63 CURVE SMOOTH",
"244 120 OFFCURVE",
"208 144 OFFCURVE",
"155 144 CURVE SMOOTH",
"106 144 OFFCURVE",
"70 119 OFFCURVE",
"70 61 CURVE SMOOTH",
"70 4 OFFCURVE",
"106 -19 OFFCURVE",
"155 -19 CURVE SMOOTH"
);
}
);
width = 303;
}
);
leftKerningGroup = colon;
rightKerningGroup = colon;
unicode = 003A;
},
{
glyphname = semicolon;
layers = (
{
background = {
paths = (
{
closed = 1;
nodes = (
"86 -131 LINE",
"146 -85 OFFCURVE",
"169 -44 OFFCURVE",
"173 0 CURVE",
"149 0 LINE SMOOTH",
"106 0 OFFCURVE",
"87 21 OFFCURVE",
"87 55 CURVE SMOOTH",
"87 97 OFFCURVE",
"116 129 OFFCURVE",
"160 129 CURVE SMOOTH",
"219 129 OFFCURVE",
"245 83 OFFCURVE",
"245 31 CURVE SMOOTH",
"245 -28 OFFCURVE",
"203 -117 OFFCURVE",
"115 -168 CURVE"
);
},
{
closed = 1;
nodes = (
"83 401 OFFCURVE",
"115 370 OFFCURVE",
"159 370 CURVE SMOOTH",
"204 370 OFFCURVE",
"236 402 OFFCURVE",
"236 446 CURVE SMOOTH",
"236 490 OFFCURVE",
"204 521 OFFCURVE",
"159 521 CURVE SMOOTH",
"115 521 OFFCURVE",
"83 489 OFFCURVE",
"83 445 CURVE SMOOTH"
);
}
);
};
hints = (
{
place = "{87, 158}";
},
{
horizontal = 1;
place = "{0, 129}";
},
{
horizontal = 1;
place = "{370, 151}";
},
{
horizontal = 1;
place = "{-168, 21}";
target = up;
type = BottomGhost;
}
);
layerId = UUID0;
paths = (
{
closed = 1;
nodes = (
"203 -117 OFFCURVE",
"245 -28 OFFCURVE",
"245 31 CURVE SMOOTH",
"245 83 OFFCURVE",
"219 129 OFFCURVE",
"160 129 CURVE SMOOTH",
"116 129 OFFCURVE",
"87 97 OFFCURVE",
"87 55 CURVE SMOOTH",
"87 21 OFFCURVE",
"106 0 OFFCURVE",
"149 0 CURVE SMOOTH",
"173 0 LINE",
"169 -44 OFFCURVE",
"146 -85 OFFCURVE",
"86 -131 CURVE",
"115 -168 LINE"
);
},
{
closed = 1;
nodes = (
"204 370 OFFCURVE",
"236 402 OFFCURVE",
"236 446 CURVE SMOOTH",
"236 490 OFFCURVE",
"204 521 OFFCURVE",
"159 521 CURVE SMOOTH",
"115 521 OFFCURVE",
"83 489 OFFCURVE",
"83 445 CURVE SMOOTH",
"83 401 OFFCURVE",
"115 370 OFFCURVE",
"159 370 CURVE SMOOTH"
);
}
);
width = 328;
},
{
background = {
paths = (
{
closed = 1;
nodes = (
"70 387 OFFCURVE",
"106 364 OFFCURVE",
"155 364 CURVE SMOOTH",
"208 364 OFFCURVE",
"244 388 OFFCURVE",
"244 446 CURVE SMOOTH",
"244 503 OFFCURVE",
"208 527 OFFCURVE",
"155 527 CURVE SMOOTH",
"106 527 OFFCURVE",
"70 502 OFFCURVE",
"70 444 CURVE SMOOTH"
);
},
{
closed = 1;
nodes = (
"70 -129 LINE",
"116 -97 OFFCURVE",
"152 -52 OFFCURVE",
"157 -10 CURVE",
"142 -10 LINE SMOOTH",
"97 -10 OFFCURVE",
"66 13 OFFCURVE",
"66 61 CURVE SMOOTH",
"66 110 OFFCURVE",
"98 144 OFFCURVE",
"152 144 CURVE SMOOTH",
"215 144 OFFCURVE",
"245 100 OFFCURVE",
"245 45 CURVE SMOOTH",
"245 -34 OFFCURVE",
"203 -123 OFFCURVE",
"106 -176 CURVE"
);
}
);
};
hints = (
{
place = "{66, 179}";
},
{
horizontal = 1;
place = "{-10, 154}";
},
{
horizontal = 1;
place = "{364, 163}";
},
{
horizontal = 1;
place = "{-176, 21}";
target = up;
type = BottomGhost;
}
);
layerId = "4181654C-020A-47A3-85ED-5DF79C071187";
paths = (
{
closed = 1;
nodes = (
"203 -123 OFFCURVE",
"245 -34 OFFCURVE",
"245 45 CURVE SMOOTH",
"245 100 OFFCURVE",
"215 144 OFFCURVE",
"152 144 CURVE SMOOTH",
"98 144 OFFCURVE",
"66 110 OFFCURVE",
"66 61 CURVE SMOOTH",
"66 13 OFFCURVE",
"97 -10 OFFCURVE",
"142 -10 CURVE SMOOTH",
"157 -10 LINE",
"152 -52 OFFCURVE",
"116 -97 OFFCURVE",
"70 -129 CURVE",
"106 -176 LINE"
);
},
{
closed = 1;
nodes = (
"208 364 OFFCURVE",
"244 388 OFFCURVE",
"244 446 CURVE SMOOTH",
"244 503 OFFCURVE",
"208 527 OFFCURVE",
"155 527 CURVE SMOOTH",
"106 527 OFFCURVE",
"70 502 OFFCURVE",
"70 444 CURVE SMOOTH",
"70 387 OFFCURVE",
"106 364 OFFCURVE",
"155 364 CURVE SMOOTH"
);
}
);
width = 319;
}
);
leftKerningGroup = colon;
rightKerningGroup = colon;
unicode = 003B;
},
{
glyphname = less;
layers = (
{
background = {
paths = (
{
closed = 1;
nodes = (
"70 305 LINE",
"70 263 LINE",
"448 37 LINE",
"478 91 LINE",
"148 285 LINE",
"478 480 LINE",
"448 532 LINE"
);
}
);
};
hints = (
{
horizontal = 1;
place = "{37, 21}";
target = up;
type = BottomGhost;
},
{
horizontal = 1;
place = "{532, -20}";
target = down;
type = TopGhost;
}
);
layerId = UUID0;
paths = (
{
closed = 1;
nodes = (
"478 91 LINE",
"148 285 LINE",
"478 480 LINE",
"448 532 LINE",
"70 305 LINE",
"70 263 LINE",
"448 37 LINE"
);
}
);
width = 582;
},
{
background = {
paths = (
{
closed = 1;
nodes = (
"68 332 LINE",
"68 267 LINE",
"457 44 LINE",
"498 131 LINE",
"180 302 LINE",
"496 473 LINE",
"456 554 LINE"
);
}
);
};
hints = (
{
horizontal = 1;
place = "{44, 21}";
target = up;
type = BottomGhost;
},
{
horizontal = 1;
place = "{554, -20}";
target = down;
type = TopGhost;
}
);
layerId = "4181654C-020A-47A3-85ED-5DF79C071187";
paths = (
{
closed = 1;
nodes = (
"498 131 LINE",
"180 302 LINE",
"496 473 LINE",
"456 554 LINE",
"68 332 LINE",
"68 267 LINE",
"457 44 LINE"
);
}
);
width = 582;
}
);
unicode = 003C;
},
{
glyphname = equal;
layers = (
{
background = {
paths = (
{
closed = 1;
nodes = (
"505 362 LINE",
"505 425 LINE",
"77 425 LINE",
"77 362 LINE"
);
},
{
closed = 1;
nodes = (
"505 182 LINE",
"505 245 LINE",
"77 245 LINE",
"77 182 LINE"
);
}
);
};
hints = (
{
horizontal = 1;
place = "{182, 63}";
},
{
horizontal = 1;
place = "{362, 63}";
}
);
layerId = UUID0;
paths = (
{
closed = 1;
nodes = (
"505 362 LINE",
"505 425 LINE",
"77 425 LINE",
"77 362 LINE"
);
},
{
closed = 1;
nodes = (
"505 182 LINE",
"505 245 LINE",
"77 245 LINE",
"77 182 LINE"
);
}
);
width = 582;
},
{
background = {
paths = (
{
closed = 1;
nodes = (
"512 351 LINE",
"512 445 LINE",
"70 445 LINE",
"70 351 LINE"
);
},
{
closed = 1;
nodes = (
"512 171 LINE",
"512 265 LINE",
"70 265 LINE",
"70 171 LINE"
);
}
);
};
hints = (
{
horizontal = 1;
place = "{171, 94}";
},
{
horizontal = 1;
place = "{351, 94}";
}
);
layerId = "4181654C-020A-47A3-85ED-5DF79C071187";
paths = (
{
closed = 1;
nodes = (
"512 351 LINE",
"512 445 LINE",
"70 445 LINE",
"70 351 LINE"
);
},
{
closed = 1;
nodes = (
"512 171 LINE",
"512 265 LINE",
"70 265 LINE",
"70 171 LINE"
);
}
);
width = 582;
}
);
unicode = 003D;
},
{
glyphname = greater;
layers = (
{
background = {
paths = (
{
closed = 1;
nodes = (
"512 305 LINE",
"512 263 LINE",
"134 37 LINE",
"104 91 LINE",
"434 285 LINE",
"104 480 LINE",
"134 532 LINE"
);
}
);
};
hints = (
{
horizontal = 1;
place = "{532, -20}";
target = down;
type = TopGhost;
},
{
horizontal = 1;
place = "{37, 21}";
target = up;
type = BottomGhost;
}
);
layerId = UUID0;
paths = (
{
closed = 1;
nodes = (
"512 263 LINE",
"512 305 LINE",
"134 532 LINE",
"104 480 LINE",
"434 285 LINE",
"104 91 LINE",
"134 37 LINE"
);
}
);
width = 582;
},
{
background = {
paths = (
{
closed = 1;
nodes = (
"126 554 LINE",
"86 473 LINE",
"402 302 LINE",
"84 131 LINE",
"125 44 LINE",
"514 267 LINE",
"514 332 LINE"
);
}
);
};
hints = (
{
horizontal = 1;
place = "{554, -20}";
target = down;
type = TopGhost;
},
{
horizontal = 1;
place = "{44, 21}";
target = up;
type = BottomGhost;
}
);
layerId = "4181654C-020A-47A3-85ED-5DF79C071187";
paths = (
{
closed = 1;
nodes = (
"514 267 LINE",
"514 332 LINE",
"126 554 LINE",
"86 473 LINE",
"402 302 LINE",
"84 131 LINE",
"125 44 LINE"
);
}
);
width = 582;
}
);
unicode = 003E;
},
{
glyphname = question;
layers = (
{
background = {
paths = (
{
closed = 1;
nodes = (
"357 456 OFFCURVE",
"215 421 OFFCURVE",
"215 317 CURVE SMOOTH",
"215 194 LINE",
"271 194 LINE",
"271 257 LINE SMOOTH",
"271 334 OFFCURVE",
"453 412 OFFCURVE",
"453 551 CURVE SMOOTH",
"453 652 OFFCURVE",
"375 714 OFFCURVE",
"262 714 CURVE SMOOTH",
"160 714 OFFCURVE",
"65 650 OFFCURVE",
"65 572 CURVE SMOOTH",
"65 539 OFFCURVE",
"81 512 OFFCURVE",
"124 512 CURVE SMOOTH",
"157 512 OFFCURVE",
"184 537 OFFCURVE",
"184 560 CURVE SMOOTH",
"184 574 OFFCURVE",
"165 604 OFFCURVE",
"152 622 CURVE",
"173 647 OFFCURVE",
"205 660 OFFCURVE",
"248 660 CURVE SMOOTH",
"315 660 OFFCURVE",
"357 620 OFFCURVE",
"357 560 CURVE SMOOTH"
);
},
{
closed = 1;
nodes = (
"173 15 OFFCURVE",
"203 -14 OFFCURVE",
"244 -14 CURVE SMOOTH",
"285 -14 OFFCURVE",
"314 16 OFFCURVE",
"314 56 CURVE SMOOTH",
"314 97 OFFCURVE",
"285 126 OFFCURVE",
"244 126 CURVE SMOOTH",
"203 126 OFFCURVE",
"173 97 OFFCURVE",
"173 55 CURVE SMOOTH"
);
}
);
};
hints = (
{
place = "{65, 119}";
},
{
place = "{173, 141}";
},
{
place = "{215, 56}";
},
{
place = "{357, 96}";
},
{
horizontal = 1;
place = "{-14, 140}";
},
{
horizontal = 1;
place = "{660, 54}";
},
{
horizontal = 1;
place = "{512, -20}";
target = down;
type = TopGhost;
}
);
layerId = UUID0;
paths = (
{
closed = 1;
nodes = (
"271 194 LINE",
"271 257 LINE SMOOTH",
"271 294 OFFCURVE",
"314 332 OFFCURVE",
"358 377 CURVE SMOOTH",
"405 424 OFFCURVE",
"453 479 OFFCURVE",
"453 551 CURVE SMOOTH",
"453 652 OFFCURVE",
"375 714 OFFCURVE",
"262 714 CURVE SMOOTH",
"160 714 OFFCURVE",
"65 650 OFFCURVE",
"65 572 CURVE SMOOTH",
"65 539 OFFCURVE",
"81 512 OFFCURVE",
"124 512 CURVE SMOOTH",
"157 512 OFFCURVE",
"184 537 OFFCURVE",
"184 560 CURVE SMOOTH",
"184 574 OFFCURVE",
"165 604 OFFCURVE",
"152 622 CURVE",
"173 647 OFFCURVE",
"205 660 OFFCURVE",
"248 660 CURVE SMOOTH",
"315 660 OFFCURVE",
"357 620 OFFCURVE",
"357 560 CURVE SMOOTH",
"357 507 OFFCURVE",
"320 472 OFFCURVE",
"284 437 CURVE SMOOTH",
"249 402 OFFCURVE",
"215 368 OFFCURVE",
"215 317 CURVE SMOOTH",
"215 194 LINE"
);
},
{
closed = 1;
nodes = (
"285 -14 OFFCURVE",
"314 16 OFFCURVE",
"314 56 CURVE SMOOTH",
"314 97 OFFCURVE",
"285 126 OFFCURVE",
"244 126 CURVE SMOOTH",
"203 126 OFFCURVE",
"173 97 OFFCURVE",
"173 55 CURVE SMOOTH",
"173 15 OFFCURVE",
"203 -14 OFFCURVE",
"244 -14 CURVE SMOOTH"
);
}
);
width = 538;
},
{
background = {
paths = (
{
closed = 1;
nodes = (
"337 511 OFFCURVE",
"303 482 OFFCURVE",
"270 450 CURVE SMOOTH",
"222 404 OFFCURVE",
"204 383 OFFCURVE",
"204 322 CURVE SMOOTH",
"204 188 LINE",
"272 188 LINE",
"272 247 LINE SMOOTH",
"272 279 OFFCURVE",
"281 296 OFFCURVE",
"338 348 CURVE SMOOTH",
"401 405 OFFCURVE",
"470 460 OFFCURVE",
"470 550 CURVE SMOOTH",
"470 655 OFFCURVE",
"396 714 OFFCURVE",
"266 714 CURVE SMOOTH",
"137 714 OFFCURVE",
"50 644 OFFCURVE",
"50 566 CURVE SMOOTH",
"50 529 OFFCURVE",
"72 498 OFFCURVE",
"121 498 CURVE SMOOTH",
"167 498 OFFCURVE",
"189 531 OFFCURVE",
"189 557 CURVE SMOOTH",
"189 575 OFFCURVE",
"173 593 OFFCURVE",
"160 610 CURVE",
"177 623 OFFCURVE",
"206 639 OFFCURVE",
"247 639 CURVE SMOOTH",
"299 639 OFFCURVE",
"337 616 OFFCURVE",
"337 562 CURVE SMOOTH"
);
},
{
closed = 1;
nodes = (
"157 6 OFFCURVE",
"191 -15 OFFCURVE",
"239 -15 CURVE SMOOTH",
"289 -15 OFFCURVE",
"323 7 OFFCURVE",
"323 63 CURVE SMOOTH",
"323 118 OFFCURVE",
"289 140 OFFCURVE",
"239 140 CURVE SMOOTH",
"191 140 OFFCURVE",
"157 117 OFFCURVE",
"157 61 CURVE SMOOTH"
);
}
);
};
hints = (
{
place = "{50, 139}";
},
{
place = "{157, 166}";
},
{
place = "{204, 68}";
},
{
place = "{337, 133}";
},
{
horizontal = 1;
place = "{-15, 155}";
},
{
horizontal = 1;
place = "{639, 75}";
}
);
layerId = "4181654C-020A-47A3-85ED-5DF79C071187";
paths = (
{
closed = 1;
nodes = (
"272 188 LINE",
"272 247 LINE SMOOTH",
"272 279 OFFCURVE",
"281 296 OFFCURVE",
"338 348 CURVE SMOOTH",
"401 405 OFFCURVE",
"470 460 OFFCURVE",
"470 550 CURVE SMOOTH",
"470 655 OFFCURVE",
"396 714 OFFCURVE",
"266 714 CURVE SMOOTH",
"137 714 OFFCURVE",
"50 644 OFFCURVE",
"50 566 CURVE SMOOTH",
"50 529 OFFCURVE",
"72 498 OFFCURVE",
"121 498 CURVE SMOOTH",
"167 498 OFFCURVE",
"189 531 OFFCURVE",
"189 557 CURVE SMOOTH",
"189 575 OFFCURVE",
"173 593 OFFCURVE",
"160 610 CURVE",
"177 623 OFFCURVE",
"206 639 OFFCURVE",
"247 639 CURVE SMOOTH",
"299 639 OFFCURVE",
"337 616 OFFCURVE",
"337 562 CURVE SMOOTH",
"337 511 OFFCURVE",
"303 482 OFFCURVE",
"270 450 CURVE SMOOTH",
"222 404 OFFCURVE",
"204 383 OFFCURVE",
"204 322 CURVE SMOOTH",
"204 188 LINE"
);
},
{
closed = 1;
nodes = (
"289 -15 OFFCURVE",
"323 7 OFFCURVE",
"323 63 CURVE SMOOTH",
"323 118 OFFCURVE",
"289 140 OFFCURVE",
"239 140 CURVE SMOOTH",
"191 140 OFFCURVE",
"157 117 OFFCURVE",
"157 61 CURVE SMOOTH",
"157 6 OFFCURVE",
"191 -15 OFFCURVE",
"239 -15 CURVE SMOOTH"
);
}
);
width = 527;
}
);
unicode = 003F;
},
{
glyphname = at;
layers = (
{
background = {
paths = (
{
closed = 1;
nodes = (
"324 395 OFFCURVE",
"231 323 OFFCURVE",
"231 147 CURVE SMOOTH",
"231 56 OFFCURVE",
"266 -11 OFFCURVE",
"364 -11 CURVE SMOOTH",
"424 -11 OFFCURVE",
"473 39 OFFCURVE",
"501 137 CURVE SMOOTH",
"522 210 LINE",
"526 210 LINE",
"520 83 LINE SMOOTH",
"517 24 OFFCURVE",
"524 -11 OFFCURVE",
"594 -11 CURVE SMOOTH",
"700 -11 OFFCURVE",
"795 67 OFFCURVE",
"795 244 CURVE SMOOTH",
"795 461 OFFCURVE",
"655 568 OFFCURVE",
"440 568 CURVE SMOOTH",
"196 568 OFFCURVE",
"54 401 OFFCURVE",
"54 184 CURVE SMOOTH",
"54 -75 OFFCURVE",
"225 -183 OFFCURVE",
"410 -183 CURVE SMOOTH",
"511 -183 OFFCURVE",
"593 -153 OFFCURVE",
"653 -95 CURVE",
"621 -56 LINE",
"568 -99 OFFCURVE",
"510 -128 OFFCURVE",
"414 -128 CURVE SMOOTH",
"283 -128 OFFCURVE",
"119 -55 OFFCURVE",
"119 186 CURVE SMOOTH",
"119 398 OFFCURVE",
"260 514 OFFCURVE",
"440 514 CURVE SMOOTH",
"641 514 OFFCURVE",
"734 409 OFFCURVE",
"734 237 CURVE SMOOTH",
"734 112 OFFCURVE",
"679 44 OFFCURVE",
"619 44 CURVE SMOOTH",
"583 44 OFFCURVE",
"584 58 OFFCURVE",
"585 101 CURVE SMOOTH",
"595 388 LINE",
"581 394 LINE",
"529 372 LINE",
"502 387 OFFCURVE",
"465 395 OFFCURVE",
"425 395 CURVE SMOOTH"
);
},
{
closed = 1;
nodes = (
"485 223 LINE SMOOTH",
"457 130 OFFCURVE",
"427 52 OFFCURVE",
"373 52 CURVE SMOOTH",
"326 52 OFFCURVE",
"311 92 OFFCURVE",
"311 153 CURVE SMOOTH",
"311 249 OFFCURVE",
"346 347 OFFCURVE",
"435 347 CURVE SMOOTH",
"463 347 OFFCURVE",
"495 340 OFFCURVE",
"517 330 CURVE"
);
}
);
};
hints = (
{
place = "{54, 65}";
},
{
place = "{231, 80}";
},
{
place = "{523, 67}";
},
{
place = "{734, 61}";
},
{
horizontal = 1;
place = "{-183, 55}";
},
{
horizontal = 1;
place = "{-11, 55}";
},
{
horizontal = 1;
place = "{347, 48}";
},
{
horizontal = 1;
place = "{514, 54}";
}
);
layerId = UUID0;
paths = (
{
closed = 1;
nodes = (
"511 -183 OFFCURVE",
"593 -153 OFFCURVE",
"653 -95 CURVE",
"621 -56 LINE",
"568 -99 OFFCURVE",
"510 -128 OFFCURVE",
"414 -128 CURVE SMOOTH",
"283 -128 OFFCURVE",
"119 -55 OFFCURVE",
"119 186 CURVE SMOOTH",
"119 398 OFFCURVE",
"260 514 OFFCURVE",
"440 514 CURVE SMOOTH",
"641 514 OFFCURVE",
"734 409 OFFCURVE",
"734 237 CURVE SMOOTH",
"734 112 OFFCURVE",
"679 44 OFFCURVE",
"619 44 CURVE SMOOTH",
"583 44 OFFCURVE",
"584 58 OFFCURVE",
"585 101 CURVE SMOOTH",
"595 388 LINE",
"581 394 LINE",
"529 372 LINE",
"502 387 OFFCURVE",
"465 395 OFFCURVE",
"425 395 CURVE SMOOTH",
"324 395 OFFCURVE",
"231 323 OFFCURVE",
"231 147 CURVE SMOOTH",
"231 56 OFFCURVE",
"266 -11 OFFCURVE",
"364 -11 CURVE SMOOTH",
"424 -11 OFFCURVE",
"473 39 OFFCURVE",
"501 137 CURVE SMOOTH",
"522 210 LINE",
"526 210 LINE",
"520 83 LINE SMOOTH",
"517 24 OFFCURVE",
"524 -11 OFFCURVE",
"594 -11 CURVE SMOOTH",
"700 -11 OFFCURVE",
"795 67 OFFCURVE",
"795 244 CURVE SMOOTH",
"795 461 OFFCURVE",
"655 568 OFFCURVE",
"440 568 CURVE SMOOTH",
"196 568 OFFCURVE",
"54 401 OFFCURVE",
"54 184 CURVE SMOOTH",
"54 -75 OFFCURVE",
"225 -183 OFFCURVE",
"410 -183 CURVE SMOOTH"
);
},
{
closed = 1;
nodes = (
"326 52 OFFCURVE",
"311 92 OFFCURVE",
"311 153 CURVE SMOOTH",
"311 249 OFFCURVE",
"346 347 OFFCURVE",
"435 347 CURVE SMOOTH",
"463 347 OFFCURVE",
"495 340 OFFCURVE",
"517 330 CURVE",
"485 223 LINE SMOOTH",
"457 130 OFFCURVE",
"427 52 OFFCURVE",
"373 52 CURVE SMOOTH"
);
}
);
width = 849;
},
{
background = {
paths = (
{
closed = 1;
nodes = (
"321 407 OFFCURVE",
"221 332 OFFCURVE",
"221 147 CURVE SMOOTH",
"221 72 OFFCURVE",
"255 -17 OFFCURVE",
"360 -17 CURVE SMOOTH",
"419 -17 OFFCURVE",
"476 11 OFFCURVE",
"508 124 CURVE SMOOTH",
"521 170 LINE",
"527 169 LINE",
"526 131 OFFCURVE",
"523 101 OFFCURVE",
"523 77 CURVE SMOOTH",
"523 -2 OFFCURVE",
"560 -17 OFFCURVE",
"605 -17 CURVE SMOOTH",
"712 -17 OFFCURVE",
"812 66 OFFCURVE",
"812 244 CURVE SMOOTH",
"812 470 OFFCURVE",
"660 582 OFFCURVE",
"441 582 CURVE SMOOTH",
"193 582 OFFCURVE",
"40 407 OFFCURVE",
"40 169 CURVE SMOOTH",
"40 -84 OFFCURVE",
"223 -197 OFFCURVE",
"412 -197 CURVE SMOOTH",
"513 -197 OFFCURVE",
"600 -162 OFFCURVE",
"666 -96 CURVE",
"627 -46 LINE",
"569 -94 OFFCURVE",
"503 -112 OFFCURVE",
"410 -112 CURVE SMOOTH",
"295 -112 OFFCURVE",
"144 -46 OFFCURVE",
"144 185 CURVE SMOOTH",
"144 391 OFFCURVE",
"273 511 OFFCURVE",
"441 511 CURVE SMOOTH",
"627 511 OFFCURVE",
"714 404 OFFCURVE",
"714 240 CURVE SMOOTH",
"714 123 OFFCURVE",
"681 46 OFFCURVE",
"634 46 CURVE SMOOTH",
"618 46 OFFCURVE",
"607 55 OFFCURVE",
"608 89 CURVE SMOOTH",
"618 391 LINE",
"585 408 LINE",
"532 382 LINE",
"501 400 OFFCURVE",
"464 407 OFFCURVE",
"426 407 CURVE SMOOTH"
);
},
{
closed = 1;
nodes = (
"481 201 LINE SMOOTH",
"450 94 OFFCURVE",
"416 55 OFFCURVE",
"381 55 CURVE SMOOTH",
"340 55 OFFCURVE",
"327 93 OFFCURVE",
"327 150 CURVE SMOOTH",
"327 246 OFFCURVE",
"359 348 OFFCURVE",
"438 348 CURVE SMOOTH",
"460 348 OFFCURVE",
"500 343 OFFCURVE",
"519 331 CURVE"
);
}
);
};
hints = (
{
place = "{40, 104}";
},
{
place = "{221, 106}";
},
{
place = "{523, 90}";
},
{
place = "{714, 98}";
},
{
horizontal = 1;
place = "{-197, 85}";
},
{
horizontal = 1;
place = "{-17, 63}";
},
{
horizontal = 1;
place = "{348, 59}";
},
{
horizontal = 1;
place = "{511, 71}";
}
);
layerId = "4181654C-020A-47A3-85ED-5DF79C071187";
paths = (
{
closed = 1;
nodes = (
"513 -197 OFFCURVE",
"600 -162 OFFCURVE",
"666 -96 CURVE",
"627 -46 LINE",
"569 -94 OFFCURVE",
"503 -112 OFFCURVE",
"410 -112 CURVE SMOOTH",
"295 -112 OFFCURVE",
"144 -46 OFFCURVE",
"144 185 CURVE SMOOTH",
"144 391 OFFCURVE",
"273 511 OFFCURVE",
"441 511 CURVE SMOOTH",
"627 511 OFFCURVE",
"714 404 OFFCURVE",
"714 240 CURVE SMOOTH",
"714 123 OFFCURVE",
"681 46 OFFCURVE",
"634 46 CURVE SMOOTH",
"618 46 OFFCURVE",
"607 55 OFFCURVE",
"608 89 CURVE SMOOTH",
"618 391 LINE",
"585 408 LINE",
"532 382 LINE",
"501 400 OFFCURVE",
"464 407 OFFCURVE",
"426 407 CURVE SMOOTH",
"321 407 OFFCURVE",
"221 332 OFFCURVE",
"221 147 CURVE SMOOTH",
"221 72 OFFCURVE",
"255 -17 OFFCURVE",
"360 -17 CURVE SMOOTH",
"419 -17 OFFCURVE",
"476 11 OFFCURVE",
"508 124 CURVE SMOOTH",
"521 170 LINE",
"527 169 LINE",
"523 77 LINE",
"523 -2 OFFCURVE",
"560 -17 OFFCURVE",
"605 -17 CURVE SMOOTH",
"712 -17 OFFCURVE",
"812 66 OFFCURVE",
"812 244 CURVE SMOOTH",
"812 470 OFFCURVE",
"660 582 OFFCURVE",
"441 582 CURVE SMOOTH",
"193 582 OFFCURVE",
"40 407 OFFCURVE",
"40 169 CURVE SMOOTH",
"40 -84 OFFCURVE",
"223 -197 OFFCURVE",
"412 -197 CURVE SMOOTH"
);
},
{
closed = 1;
nodes = (
"340 55 OFFCURVE",
"327 93 OFFCURVE",
"327 150 CURVE SMOOTH",
"327 246 OFFCURVE",
"359 348 OFFCURVE",
"438 348 CURVE SMOOTH",
"460 348 OFFCURVE",
"500 343 OFFCURVE",
"519 331 CURVE",
"481 201 LINE SMOOTH",
"450 94 OFFCURVE",
"416 55 OFFCURVE",
"381 55 CURVE SMOOTH"
);
}
);
width = 852;
}
);
unicode = 0040;
},
{
glyphname = A;
layers = (
{
anchors = (
{
name = bottom;
position = "{357, -30}";
},
{
name = top;
position = "{373, 730}";
}
);
background = {
paths = (
{
closed = 1;
nodes = (
"530 105 LINE",
"543 70 OFFCURVE",
"538 59 OFFCURVE",
"511 55 CURVE SMOOTH",
"453 48 LINE",
"453 0 LINE",
"720 0 LINE",
"720 50 LINE",
"679 58 LINE",
"651 65 OFFCURVE",
"648 74 OFFCURVE",
"635 109 CURVE SMOOTH",
"426 700 LINE",
"320 700 LINE",
"109 110 LINE",
"94 71 OFFCURVE",
"88 61 OFFCURVE",
"63 56 CURVE SMOOTH",
"15 48 LINE",
"15 0 LINE",
"257 0 LINE",
"257 47 LINE",
"200 55 LINE",
"171 61 OFFCURVE",
"165 75 OFFCURVE",
"177 109 CURVE SMOOTH",
"219 231 LINE",
"487 231 LINE"
);
},
{
closed = 1;
nodes = (
"353 617 LINE",
"357 617 LINE",
"468 288 LINE",
"239 288 LINE"
);
}
);
};
hints = (
{
horizontal = 1;
place = "{231, 57}";
},
{
horizontal = 1;
place = "{0, 21}";
target = up;
type = BottomGhost;
},
{
horizontal = 1;
place = "{700, -20}";
target = down;
type = TopGhost;
}
);
layerId = UUID0;
paths = (
{
closed = 1;
nodes = (
"257 0 LINE",
"257 47 LINE",
"200 55 LINE",
"171 61 OFFCURVE",
"165 75 OFFCURVE",
"177 109 CURVE SMOOTH",
"219 231 LINE",
"487 231 LINE",
"530 105 LINE",
"543 70 OFFCURVE",
"538 59 OFFCURVE",
"511 55 CURVE SMOOTH",
"453 48 LINE",
"453 0 LINE",
"720 0 LINE",
"720 50 LINE",
"679 58 LINE",
"651 65 OFFCURVE",
"648 74 OFFCURVE",
"635 109 CURVE SMOOTH",
"426 700 LINE",
"320 700 LINE",
"109 110 LINE",
"94 71 OFFCURVE",
"88 61 OFFCURVE",
"63 56 CURVE SMOOTH",
"15 48 LINE",
"15 0 LINE"
);
},
{
closed = 1;
nodes = (
"353 617 LINE",
"357 617 LINE",
"468 288 LINE",
"239 288 LINE"
);
}
);
width = 735;
},
{
anchors = (
{
name = bottom;
position = "{357, -30}";
},
{
name = top;
position = "{374, 740}";
}
);
background = {
paths = (
{
closed = 1;
nodes = (
"484 117 LINE SMOOTH",
"494 84 OFFCURVE",
"492 71 OFFCURVE",
"465 67 CURVE SMOOTH",
"419 60 LINE",
"419 0 LINE",
"728 0 LINE",
"728 60 LINE",
"688 67 LINE SMOOTH",
"661 72 OFFCURVE",
"656 87 OFFCURVE",
"645 119 CURVE SMOOTH",
"439 700 LINE",
"311 700 LINE",
"103 122 LINE SMOOTH",
"90 85 OFFCURVE",
"83 72 OFFCURVE",
"59 67 CURVE SMOOTH",
"12 60 LINE",
"12 0 LINE",
"267 0 LINE",
"267 60 LINE",
"223 68 LINE SMOOTH",
"194 74 OFFCURVE",
"189 89 OFFCURVE",
"200 121 CURVE SMOOTH",
"231 215 LINE",
"453 215 LINE"
);
},
{
closed = 1;
nodes = (
"344 552 LINE",
"348 552 LINE",
"433 283 LINE",
"252 283 LINE"
);
}
);
};
hints = (
{
horizontal = 1;
place = "{215, 68}";
},
{
horizontal = 1;
place = "{0, 21}";
target = up;
type = BottomGhost;
},
{
horizontal = 1;
place = "{700, -20}";
target = down;
type = TopGhost;
}
);
layerId = "4181654C-020A-47A3-85ED-5DF79C071187";
paths = (
{
closed = 1;
nodes = (
"267 0 LINE",
"267 60 LINE",
"223 68 LINE SMOOTH",
"194 74 OFFCURVE",
"189 89 OFFCURVE",
"200 121 CURVE SMOOTH",
"231 215 LINE",
"453 215 LINE",
"484 117 LINE SMOOTH",
"494 84 OFFCURVE",
"492 71 OFFCURVE",
"465 67 CURVE SMOOTH",
"419 60 LINE",
"419 0 LINE",
"728 0 LINE",
"728 60 LINE",
"688 67 LINE SMOOTH",
"661 72 OFFCURVE",
"656 87 OFFCURVE",
"645 119 CURVE SMOOTH",
"439 700 LINE",
"311 700 LINE",
"103 122 LINE SMOOTH",
"90 85 OFFCURVE",
"83 72 OFFCURVE",
"59 67 CURVE SMOOTH",
"12 60 LINE",
"12 0 LINE"
);
},
{
closed = 1;
nodes = (
"344 552 LINE",
"348 552 LINE",
"433 283 LINE",
"252 283 LINE"
);
}
);
width = 740;
}
);
leftKerningGroup = A;
rightKerningGroup = A;
unicode = 0041;
},
{
glyphname = B;
layers = (
{
background = {
paths = (
{
closed = 1;
nodes = (
"62 0 LINE",
"323 0 LINE SMOOTH",
"518 0 OFFCURVE",
"616 77 OFFCURVE",
"616 199 CURVE SMOOTH",
"616 305 OFFCURVE",
"546 360 OFFCURVE",
"431 370 CURVE",
"431 375 LINE",
"505 392 OFFCURVE",
"576 450 OFFCURVE",
"576 534 CURVE SMOOTH",
"576 661 OFFCURVE",
"472 700 OFFCURVE",
"317 700 CURVE SMOOTH",
"62 700 LINE",
"62 652 LINE",
"118 643 LINE SMOOTH",
"148 638 OFFCURVE",
"151 627 OFFCURVE",
"151 596 CURVE SMOOTH",
"151 108 LINE SMOOTH",
"151 78 OFFCURVE",
"149 62 OFFCURVE",
"120 57 CURVE SMOOTH",
"62 48 LINE"
);
},
{
closed = 1;
nodes = (
"250 333 LINE",
"273 336 OFFCURVE",
"295 337 OFFCURVE",
"325 337 CURVE SMOOTH",
"425 337 OFFCURVE",
"509 306 OFFCURVE",
"509 202 CURVE SMOOTH",
"509 104 OFFCURVE",
"441 55 OFFCURVE",
"321 55 CURVE SMOOTH",
"300 55 OFFCURVE",
"268 56 OFFCURVE",
"250 60 CURVE"
);
},
{
closed = 1;
nodes = (
"250 646 LINE",
"308 646 LINE SMOOTH",
"407 646 OFFCURVE",
"469 625 OFFCURVE",
"469 530 CURVE SMOOTH",
"469 437 OFFCURVE",
"405 389 OFFCURVE",
"305 389 CURVE SMOOTH",
"279 389 OFFCURVE",
"263 389 OFFCURVE",
"250 391 CURVE"
);
}
);
};
hints = (
{
place = "{151, 99}";
},
{
place = "{509, 107}";
},
{
horizontal = 1;
place = "{0, 55}";
},
{
horizontal = 1;
place = "{337, 52}";
},
{
horizontal = 1;
place = "{646, 54}";
}
);
layerId = UUID0;
paths = (
{
closed = 1;
nodes = (
"323 0 LINE SMOOTH",
"518 0 OFFCURVE",
"616 77 OFFCURVE",
"616 199 CURVE SMOOTH",
"616 305 OFFCURVE",
"546 360 OFFCURVE",
"431 370 CURVE",
"431 375 LINE",
"505 392 OFFCURVE",
"576 450 OFFCURVE",
"576 534 CURVE SMOOTH",
"576 661 OFFCURVE",
"472 700 OFFCURVE",
"317 700 CURVE SMOOTH",
"62 700 LINE",
"62 652 LINE",
"118 643 LINE SMOOTH",
"148 638 OFFCURVE",
"151 627 OFFCURVE",
"151 596 CURVE SMOOTH",
"151 108 LINE SMOOTH",
"151 78 OFFCURVE",
"149 62 OFFCURVE",
"120 57 CURVE SMOOTH",
"62 48 LINE",
"62 0 LINE"
);
},
{
closed = 1;
nodes = (
"300 55 OFFCURVE",
"268 56 OFFCURVE",
"250 60 CURVE",
"250 333 LINE",
"273 336 OFFCURVE",
"295 337 OFFCURVE",
"325 337 CURVE SMOOTH",
"425 337 OFFCURVE",
"509 306 OFFCURVE",
"509 202 CURVE SMOOTH",
"509 104 OFFCURVE",
"441 55 OFFCURVE",
"321 55 CURVE SMOOTH"
);
},
{
closed = 1;
nodes = (
"279 389 OFFCURVE",
"263 389 OFFCURVE",
"250 391 CURVE",
"250 646 LINE",
"308 646 LINE SMOOTH",
"407 646 OFFCURVE",
"469 625 OFFCURVE",
"469 530 CURVE SMOOTH",
"469 437 OFFCURVE",
"405 389 OFFCURVE",
"305 389 CURVE SMOOTH"
);
}
);
width = 660;
},
{
background = {
paths = (
{
closed = 1;
nodes = (
"49 0 LINE",
"362 0 LINE SMOOTH",
"612 0 OFFCURVE",
"647 120 OFFCURVE",
"647 211 CURVE SMOOTH",
"647 299 OFFCURVE",
"581 358 OFFCURVE",
"489 364 CURVE",
"489 369 LINE",
"563 386 OFFCURVE",
"607 458 OFFCURVE",
"607 527 CURVE SMOOTH",
"607 621 OFFCURVE",
"554 700 OFFCURVE",
"374 700 CURVE SMOOTH",
"49 700 LINE",
"49 640 LINE",
"100 631 LINE SMOOTH",
"130 626 OFFCURVE",
"133 615 OFFCURVE",
"133 584 CURVE SMOOTH",
"133 120 LINE SMOOTH",
"133 90 OFFCURVE",
"131 75 OFFCURVE",
"102 70 CURVE SMOOTH",
"49 60 LINE"
);
},
{
closed = 1;
nodes = (
"281 321 LINE",
"304 324 OFFCURVE",
"318 324 OFFCURVE",
"334 324 CURVE SMOOTH",
"427 324 OFFCURVE",
"494 297 OFFCURVE",
"494 209 CURVE SMOOTH",
"494 134 OFFCURVE",
"465 71 OFFCURVE",
"347 71 CURVE SMOOTH",
"335 71 OFFCURVE",
"299 72 OFFCURVE",
"281 76 CURVE"
);
},
{
closed = 1;
nodes = (
"281 630 LINE",
"319 630 LINE SMOOTH",
"423 630 OFFCURVE",
"454 579 OFFCURVE",
"454 517 CURVE SMOOTH",
"454 434 OFFCURVE",
"419 390 OFFCURVE",
"322 390 CURVE SMOOTH",
"319 390 OFFCURVE",
"294 390 OFFCURVE",
"281 392 CURVE"
);
}
);
};
hints = (
{
place = "{133, 148}";
},
{
place = "{494, 153}";
},
{
horizontal = 1;
place = "{0, 71}";
},
{
horizontal = 1;
place = "{324, 66}";
},
{
horizontal = 1;
place = "{630, 70}";
}
);
layerId = "4181654C-020A-47A3-85ED-5DF79C071187";
paths = (
{
closed = 1;
nodes = (
"362 0 LINE SMOOTH",
"612 0 OFFCURVE",
"647 120 OFFCURVE",
"647 211 CURVE SMOOTH",
"647 299 OFFCURVE",
"581 358 OFFCURVE",
"489 364 CURVE",
"489 369 LINE",
"563 386 OFFCURVE",
"607 458 OFFCURVE",
"607 527 CURVE SMOOTH",
"607 621 OFFCURVE",
"554 700 OFFCURVE",
"374 700 CURVE SMOOTH",
"49 700 LINE",
"49 640 LINE",
"100 631 LINE SMOOTH",
"130 626 OFFCURVE",
"133 615 OFFCURVE",
"133 584 CURVE SMOOTH",
"133 120 LINE SMOOTH",
"133 90 OFFCURVE",
"131 75 OFFCURVE",
"102 70 CURVE SMOOTH",
"49 60 LINE",
"49 0 LINE"
);
},
{
closed = 1;
nodes = (
"335 71 OFFCURVE",
"299 72 OFFCURVE",
"281 76 CURVE",
"281 321 LINE",
"304 324 OFFCURVE",
"318 324 OFFCURVE",
"334 324 CURVE SMOOTH",
"427 324 OFFCURVE",
"494 297 OFFCURVE",
"494 209 CURVE SMOOTH",
"494 134 OFFCURVE",
"465 71 OFFCURVE",
"347 71 CURVE SMOOTH"
);
},
{
closed = 1;
nodes = (
"319 390 OFFCURVE",
"294 390 OFFCURVE",
"281 392 CURVE",
"281 630 LINE",
"319 630 LINE SMOOTH",
"423 630 OFFCURVE",
"454 579 OFFCURVE",
"454 517 CURVE SMOOTH",
"454 434 OFFCURVE",
"419 390 OFFCURVE",
"322 390 CURVE SMOOTH"
);
}
);
width = 672;
}
);
unicode = 0042;
},
{
glyphname = C;
layers = (
{
anchors = (
{
name = bottom;
position = "{375, -30}";
},
{
name = top;
position = "{376, 730}";
}
);
background = {
paths = (
{
closed = 1;
nodes = (
"195 714 OFFCURVE",
"59 578 OFFCURVE",
"59 351 CURVE SMOOTH",
"59 161 OFFCURVE",
"164 -14 OFFCURVE",
"394 -14 CURVE SMOOTH",
"527 -14 OFFCURVE",
"613 64 OFFCURVE",
"654 133 CURVE",
"607 167 LINE",
"557 95 OFFCURVE",
"498 55 OFFCURVE",
"404 55 CURVE SMOOTH",
"250 55 OFFCURVE",
"166 190 OFFCURVE",
"166 352 CURVE SMOOTH",
"166 541 OFFCURVE",
"236 651 OFFCURVE",
"379 651 CURVE SMOOTH",
"487 651 OFFCURVE",
"547 595 OFFCURVE",
"587 471 CURVE",
"641 483 LINE",
"602 716 LINE",
"553 716 LINE",
"543 653 LINE",
"515 681 OFFCURVE",
"466 714 OFFCURVE",
"377 714 CURVE SMOOTH"
);
}
);
};
hints = (
{
place = "{59, 107}";
},
{
horizontal = 1;
place = "{-14, 69}";
},
{
horizontal = 1;
place = "{651, 63}";
},
{
horizontal = 1;
place = "{716, -20}";
target = down;
type = TopGhost;
}
);
layerId = UUID0;
paths = (
{
closed = 1;
nodes = (
"527 -14 OFFCURVE",
"613 64 OFFCURVE",
"654 133 CURVE",
"607 167 LINE",
"557 95 OFFCURVE",
"498 55 OFFCURVE",
"404 55 CURVE SMOOTH",
"250 55 OFFCURVE",
"166 190 OFFCURVE",
"166 352 CURVE SMOOTH",
"166 541 OFFCURVE",
"236 651 OFFCURVE",
"379 651 CURVE SMOOTH",
"487 651 OFFCURVE",
"547 595 OFFCURVE",
"587 471 CURVE",
"641 483 LINE",
"602 716 LINE",
"553 716 LINE",
"543 653 LINE",
"515 681 OFFCURVE",
"466 714 OFFCURVE",
"377 714 CURVE SMOOTH",
"195 714 OFFCURVE",
"59 578 OFFCURVE",
"59 351 CURVE SMOOTH",
"59 161 OFFCURVE",
"164 -14 OFFCURVE",
"394 -14 CURVE SMOOTH"
);
}
);
width = 708;
},
{
anchors = (
{
name = bottom;
position = "{375, -30}";
},
{
name = top;
position = "{373, 740}";
}
);
background = {
paths = (
{
closed = 1;
nodes = (
"174 714 OFFCURVE",
"46 566 OFFCURVE",
"46 339 CURVE SMOOTH",
"46 116 OFFCURVE",
"173 -14 OFFCURVE",
"389 -14 CURVE SMOOTH",
"536 -14 OFFCURVE",
"614 69 OFFCURVE",
"663 137 CURVE",
"602 187 LINE",
"562 137 OFFCURVE",
"508 81 OFFCURVE",
"411 81 CURVE SMOOTH",
"295 81 OFFCURVE",
"202 171 OFFCURVE",
"202 350 CURVE SMOOTH",
"202 513 OFFCURVE",
"262 629 OFFCURVE",
"391 629 CURVE SMOOTH",
"492 629 OFFCURVE",
"551 567 OFFCURVE",
"579 463 CURVE",
"654 481 LINE",
"615 716 LINE",
"557 716 LINE",
"547 651 LINE",
"519 679 OFFCURVE",
"465 714 OFFCURVE",
"375 714 CURVE SMOOTH"
);
}
);
};
hints = (
{
place = "{46, 156}";
},
{
horizontal = 1;
place = "{-14, 95}";
},
{
horizontal = 1;
place = "{629, 85}";
},
{
horizontal = 1;
place = "{716, -20}";
target = down;
type = TopGhost;
}
);
layerId = "4181654C-020A-47A3-85ED-5DF79C071187";
paths = (
{
closed = 1;
nodes = (
"536 -14 OFFCURVE",
"614 69 OFFCURVE",
"663 137 CURVE",
"602 187 LINE",
"562 137 OFFCURVE",
"508 81 OFFCURVE",
"411 81 CURVE SMOOTH",
"295 81 OFFCURVE",
"202 171 OFFCURVE",
"202 350 CURVE SMOOTH",
"202 513 OFFCURVE",
"262 629 OFFCURVE",
"391 629 CURVE SMOOTH",
"492 629 OFFCURVE",
"551 567 OFFCURVE",
"579 463 CURVE",
"654 481 LINE",
"615 716 LINE",
"557 716 LINE",
"547 651 LINE",
"519 679 OFFCURVE",
"465 714 OFFCURVE",
"375 714 CURVE SMOOTH",
"174 714 OFFCURVE",
"46 566 OFFCURVE",
"46 339 CURVE SMOOTH",
"46 116 OFFCURVE",
"173 -14 OFFCURVE",
"389 -14 CURVE SMOOTH"
);
}
);
width = 693;
}
);
leftKerningGroup = O;
rightKerningGroup = C;
unicode = 0043;
},
{
glyphname = D;
layers = (
{
anchors = (
{
name = bottom;
position = "{360, -30}";
},
{
name = top;
position = "{357, 730}";
}
);
background = {
paths = (
{
closed = 1;
nodes = (
"62 0 LINE",
"321 0 LINE SMOOTH",
"576 0 OFFCURVE",
"715 146 OFFCURVE",
"715 372 CURVE SMOOTH",
"715 602 OFFCURVE",
"566 700 OFFCURVE",
"349 700 CURVE SMOOTH",
"62 700 LINE",
"62 652 LINE",
"118 643 LINE SMOOTH",
"148 638 OFFCURVE",
"151 627 OFFCURVE",
"151 596 CURVE SMOOTH",
"151 108 LINE SMOOTH",
"151 78 OFFCURVE",
"149 62 OFFCURVE",
"120 57 CURVE SMOOTH",
"62 48 LINE"
);
},
{
closed = 1;
nodes = (
"341 646 LINE SMOOTH",
"515 646 OFFCURVE",
"608 548 OFFCURVE",
"608 364 CURVE SMOOTH",
"608 154 OFFCURVE",
"519 55 OFFCURVE",
"322 55 CURVE SMOOTH",
"302 55 OFFCURVE",
"267 57 OFFCURVE",
"250 60 CURVE",
"250 646 LINE"
);
}
);
};
hints = (
{
place = "{151, 99}";
},
{
place = "{608, 107}";
},
{
horizontal = 1;
place = "{0, 55}";
},
{
horizontal = 1;
place = "{646, 54}";
}
);
layerId = UUID0;
paths = (
{
closed = 1;
nodes = (
"321 0 LINE SMOOTH",
"576 0 OFFCURVE",
"715 146 OFFCURVE",
"715 372 CURVE SMOOTH",
"715 602 OFFCURVE",
"566 700 OFFCURVE",
"349 700 CURVE SMOOTH",
"62 700 LINE",
"62 652 LINE",
"118 643 LINE SMOOTH",
"148 638 OFFCURVE",
"151 627 OFFCURVE",
"151 596 CURVE SMOOTH",
"151 108 LINE SMOOTH",
"151 78 OFFCURVE",
"149 62 OFFCURVE",
"120 57 CURVE SMOOTH",
"62 48 LINE",
"62 0 LINE"
);
},
{
closed = 1;
nodes = (
"302 55 OFFCURVE",
"267 57 OFFCURVE",
"250 60 CURVE",
"250 646 LINE",
"341 646 LINE SMOOTH",
"515 646 OFFCURVE",
"608 548 OFFCURVE",
"608 364 CURVE SMOOTH",
"608 154 OFFCURVE",
"519 55 OFFCURVE",
"322 55 CURVE SMOOTH"
);
}
);
width = 775;
},
{
anchors = (
{
name = bottom;
position = "{360, -30}";
},
{
name = top;
position = "{364, 740}";
}
);
background = {
paths = (
{
closed = 1;
nodes = (
"49 0 LINE",
"318 0 LINE SMOOTH",
"619 0 OFFCURVE",
"725 158 OFFCURVE",
"725 378 CURVE SMOOTH",
"725 608 OFFCURVE",
"580 700 OFFCURVE",
"368 700 CURVE SMOOTH",
"49 700 LINE",
"49 640 LINE",
"104 629 LINE SMOOTH",
"133 624 OFFCURVE",
"133 613 OFFCURVE",
"133 582 CURVE SMOOTH",
"133 123 LINE SMOOTH",
"133 88 OFFCURVE",
"129 75 OFFCURVE",
"106 71 CURVE SMOOTH",
"49 60 LINE"
);
},
{
closed = 1;
nodes = (
"318 630 LINE SMOOTH",
"502 630 OFFCURVE",
"571 524 OFFCURVE",
"571 375 CURVE SMOOTH",
"571 218 OFFCURVE",
"536 71 OFFCURVE",
"343 71 CURVE SMOOTH",
"321 71 OFFCURVE",
"292 74 OFFCURVE",
"281 76 CURVE",
"281 630 LINE"
);
}
);
};
hints = (
{
place = "{133, 148}";
},
{
place = "{571, 154}";
},
{
horizontal = 1;
place = "{0, 71}";
},
{
horizontal = 1;
place = "{630, 70}";
}
);
layerId = "4181654C-020A-47A3-85ED-5DF79C071187";
paths = (
{
closed = 1;
nodes = (
"318 0 LINE SMOOTH",
"619 0 OFFCURVE",
"725 158 OFFCURVE",
"725 378 CURVE SMOOTH",
"725 608 OFFCURVE",
"580 700 OFFCURVE",
"368 700 CURVE SMOOTH",
"49 700 LINE",
"49 640 LINE",
"104 629 LINE SMOOTH",
"133 624 OFFCURVE",
"133 613 OFFCURVE",
"133 582 CURVE SMOOTH",
"133 123 LINE SMOOTH",
"133 88 OFFCURVE",
"129 75 OFFCURVE",
"106 71 CURVE SMOOTH",
"49 60 LINE",
"49 0 LINE"
);
},
{
closed = 1;
nodes = (
"321 71 OFFCURVE",
"292 74 OFFCURVE",
"281 76 CURVE",
"281 630 LINE",
"318 630 LINE SMOOTH",
"502 630 OFFCURVE",
"571 524 OFFCURVE",
"571 375 CURVE SMOOTH",
"571 218 OFFCURVE",
"536 71 OFFCURVE",
"343 71 CURVE SMOOTH"
);
}
);
width = 772;
}
);
rightKerningGroup = O;
unicode = 0044;
},
{
glyphname = E;
layers = (
{
anchors = (
{
name = bottom;
position = "{328, -30}";
},
{
name = top;
position = "{325, 730}";
}
);
background = {
paths = (
{
closed = 1;
nodes = (
"337 325 LINE SMOOTH",
"419 325 OFFCURVE",
"418 317 OFFCURVE",
"430 240 CURVE",
"476 248 LINE",
"476 475 LINE",
"430 469 LINE",
"413 394 OFFCURVE",
"420 387 OFFCURVE",
"337 387 CURVE SMOOTH",
"250 387 LINE",
"250 646 LINE",
"347 646 LINE SMOOTH",
"445 646 OFFCURVE",
"470 625 OFFCURVE",
"510 520 CURVE",
"562 537 LINE",
"525 700 LINE",
"62 700 LINE",
"62 652 LINE",
"118 643 LINE SMOOTH",
"148 638 OFFCURVE",
"151 627 OFFCURVE",
"151 596 CURVE SMOOTH",
"151 108 LINE SMOOTH",
"151 78 OFFCURVE",
"149 62 OFFCURVE",
"120 57 CURVE SMOOTH",
"62 48 LINE",
"62 0 LINE",
"560 0 LINE",
"584 184 LINE",
"529 184 LINE",
"501 77 OFFCURVE",
"476 54 OFFCURVE",
"379 54 CURVE SMOOTH",
"250 54 LINE",
"250 325 LINE"
);
}
);
};
hints = (
{
place = "{151, 99}";
},
{
horizontal = 1;
place = "{0, 54}";
},
{
horizontal = 1;
place = "{325, 62}";
},
{
horizontal = 1;
place = "{646, 54}";
}
);
layerId = UUID0;
paths = (
{
closed = 1;
nodes = (
"560 0 LINE",
"584 184 LINE",
"529 184 LINE",
"501 77 OFFCURVE",
"476 54 OFFCURVE",
"379 54 CURVE SMOOTH",
"250 54 LINE",
"250 325 LINE",
"337 325 LINE SMOOTH",
"419 325 OFFCURVE",
"418 317 OFFCURVE",
"430 240 CURVE",
"476 248 LINE",
"476 475 LINE",
"430 469 LINE",
"413 394 OFFCURVE",
"420 387 OFFCURVE",
"337 387 CURVE SMOOTH",
"250 387 LINE",
"250 646 LINE",
"347 646 LINE SMOOTH",
"445 646 OFFCURVE",
"470 625 OFFCURVE",
"510 520 CURVE",
"562 537 LINE",
"525 700 LINE",
"62 700 LINE",
"62 652 LINE",
"118 643 LINE SMOOTH",
"148 638 OFFCURVE",
"151 627 OFFCURVE",
"151 596 CURVE SMOOTH",
"151 108 LINE SMOOTH",
"151 78 OFFCURVE",
"149 62 OFFCURVE",
"120 57 CURVE SMOOTH",
"62 48 LINE",
"62 0 LINE"
);
}
);
width = 637;
},
{
anchors = (
{
name = bottom;
position = "{328, -30}";
},
{
name = top;
position = "{322, 740}";
}
);
background = {
paths = (
{
closed = 1;
nodes = (
"344 323 LINE",
"409 321 OFFCURVE",
"409 309 OFFCURVE",
"420 238 CURVE",
"478 248 LINE",
"478 481 LINE",
"420 474 LINE",
"403 399 OFFCURVE",
"410 391 OFFCURVE",
"327 391 CURVE SMOOTH",
"276 391 LINE",
"276 630 LINE",
"368 630 LINE SMOOTH",
"454 630 OFFCURVE",
"481 614 OFFCURVE",
"517 515 CURVE",
"582 532 LINE",
"544 700 LINE",
"49 700 LINE",
"49 640 LINE",
"95 631 LINE SMOOTH",
"125 626 OFFCURVE",
"128 615 OFFCURVE",
"128 584 CURVE SMOOTH",
"128 120 LINE SMOOTH",
"128 90 OFFCURVE",
"126 74 OFFCURVE",
"97 69 CURVE SMOOTH",
"49 60 LINE",
"49 0 LINE",
"584 0 LINE",
"608 188 LINE",
"539 188 LINE",
"511 81 OFFCURVE",
"491 70 OFFCURVE",
"394 70 CURVE SMOOTH",
"276 70 LINE",
"276 323 LINE"
);
}
);
};
hints = (
{
place = "{128, 148}";
},
{
horizontal = 1;
place = "{0, 70}";
},
{
horizontal = 1;
place = "{323, 68}";
},
{
horizontal = 1;
place = "{630, 70}";
}
);
layerId = "4181654C-020A-47A3-85ED-5DF79C071187";
paths = (
{
closed = 1;
nodes = (
"584 0 LINE",
"608 188 LINE",
"539 188 LINE",
"511 81 OFFCURVE",
"491 70 OFFCURVE",
"394 70 CURVE SMOOTH",
"276 70 LINE",
"276 323 LINE",
"344 323 LINE",
"409 321 OFFCURVE",
"409 309 OFFCURVE",
"420 238 CURVE",
"478 248 LINE",
"478 481 LINE",
"420 474 LINE",
"403 399 OFFCURVE",
"410 391 OFFCURVE",
"327 391 CURVE SMOOTH",
"276 391 LINE",
"276 630 LINE",
"368 630 LINE SMOOTH",
"454 630 OFFCURVE",
"481 614 OFFCURVE",
"517 515 CURVE",
"582 532 LINE",
"544 700 LINE",
"49 700 LINE",
"49 640 LINE",
"95 631 LINE SMOOTH",
"125 626 OFFCURVE",
"128 615 OFFCURVE",
"128 584 CURVE SMOOTH",
"128 120 LINE SMOOTH",
"128 90 OFFCURVE",
"126 74 OFFCURVE",
"97 69 CURVE SMOOTH",
"49 60 LINE",
"49 0 LINE"
);
}
);
width = 639;
}
);
rightKerningGroup = E;
unicode = 0045;
},
{
glyphname = F;
layers = (
{
background = {
paths = (
{
closed = 1;
nodes = (
"62 0 LINE",
"357 0 LINE",
"357 48 LINE",
"287 56 LINE SMOOTH",
"255 60 OFFCURVE",
"250 73 OFFCURVE",
"250 106 CURVE SMOOTH",
"250 305 LINE",
"337 305 LINE SMOOTH",
"417 305 OFFCURVE",
"415 290 OFFCURVE",
"430 200 CURVE",
"476 208 LINE",
"476 455 LINE",
"430 449 LINE",
"414 369 OFFCURVE",
"410 367 OFFCURVE",
"337 367 CURVE SMOOTH",
"250 367 LINE",
"250 646 LINE",
"354 646 LINE SMOOTH",
"453 646 OFFCURVE",
"477 619 OFFCURVE",
"520 503 CURVE",
"572 521 LINE",
"536 700 LINE",
"62 700 LINE",
"62 652 LINE",
"118 643 LINE SMOOTH",
"148 638 OFFCURVE",
"151 627 OFFCURVE",
"151 596 CURVE SMOOTH",
"151 108 LINE SMOOTH",
"151 78 OFFCURVE",
"149 62 OFFCURVE",
"120 57 CURVE SMOOTH",
"62 48 LINE"
);
}
);
};
hints = (
{
place = "{151, 99}";
},
{
horizontal = 1;
place = "{305, 62}";
},
{
horizontal = 1;
place = "{646, 54}";
},
{
horizontal = 1;
place = "{0, 21}";
target = up;
type = BottomGhost;
}
);
layerId = UUID0;
paths = (
{
closed = 1;
nodes = (
"357 0 LINE",
"357 48 LINE",
"287 56 LINE SMOOTH",
"255 60 OFFCURVE",
"250 73 OFFCURVE",
"250 106 CURVE SMOOTH",
"250 305 LINE",
"337 305 LINE SMOOTH",
"417 305 OFFCURVE",
"415 290 OFFCURVE",
"430 200 CURVE",
"476 208 LINE",
"476 455 LINE",
"430 449 LINE",
"414 369 OFFCURVE",
"410 367 OFFCURVE",
"337 367 CURVE SMOOTH",
"250 367 LINE",
"250 646 LINE",
"354 646 LINE SMOOTH",
"453 646 OFFCURVE",
"477 619 OFFCURVE",
"520 503 CURVE",
"572 521 LINE",
"536 700 LINE",
"62 700 LINE",
"62 652 LINE",
"118 643 LINE SMOOTH",
"148 638 OFFCURVE",
"151 627 OFFCURVE",
"151 596 CURVE SMOOTH",
"151 108 LINE SMOOTH",
"151 78 OFFCURVE",
"149 62 OFFCURVE",
"120 57 CURVE SMOOTH",
"62 48 LINE",
"62 0 LINE"
);
}
);
width = 615;
},
{
background = {
paths = (
{
closed = 1;
nodes = (
"49 0 LINE",
"377 0 LINE",
"377 60 LINE",
"313 69 LINE SMOOTH",
"281 74 OFFCURVE",
"276 81 OFFCURVE",
"276 119 CURVE SMOOTH",
"276 305 LINE",
"333 305 LINE SMOOTH",
"408 305 OFFCURVE",
"401 288 OFFCURVE",
"416 198 CURVE",
"472 208 LINE",
"472 460 LINE",
"416 453 LINE",
"401 371 OFFCURVE",
"396 370 OFFCURVE",
"323 370 CURVE SMOOTH",
"276 370 LINE",
"276 630 LINE",
"347 630 LINE SMOOTH",
"446 630 OFFCURVE",
"473 621 OFFCURVE",
"513 512 CURVE",
"581 532 LINE",
"543 700 LINE",
"49 700 LINE",
"49 640 LINE",
"95 631 LINE SMOOTH",
"125 626 OFFCURVE",
"128 615 OFFCURVE",
"128 584 CURVE SMOOTH",
"128 120 LINE SMOOTH",
"128 90 OFFCURVE",
"126 74 OFFCURVE",
"97 69 CURVE SMOOTH",
"49 60 LINE"
);
}
);
};
hints = (
{
place = "{128, 148}";
},
{
horizontal = 1;
place = "{305, 65}";
},
{
horizontal = 1;
place = "{630, 70}";
},
{
horizontal = 1;
place = "{0, 21}";
target = up;
type = BottomGhost;
}
);
layerId = "4181654C-020A-47A3-85ED-5DF79C071187";
paths = (
{
closed = 1;
nodes = (
"377 0 LINE",
"377 60 LINE",
"313 69 LINE SMOOTH",
"281 74 OFFCURVE",
"276 81 OFFCURVE",
"276 119 CURVE SMOOTH",
"276 305 LINE",
"333 305 LINE SMOOTH",
"408 305 OFFCURVE",
"401 288 OFFCURVE",
"416 198 CURVE",
"472 208 LINE",
"472 460 LINE",
"416 453 LINE",
"401 371 OFFCURVE",
"396 370 OFFCURVE",
"323 370 CURVE SMOOTH",
"276 370 LINE",
"276 630 LINE",
"347 630 LINE SMOOTH",
"446 630 OFFCURVE",
"473 621 OFFCURVE",
"513 512 CURVE",
"581 532 LINE",
"543 700 LINE",
"49 700 LINE",
"49 640 LINE",
"95 631 LINE SMOOTH",
"125 626 OFFCURVE",
"128 615 OFFCURVE",
"128 584 CURVE SMOOTH",
"128 120 LINE SMOOTH",
"128 90 OFFCURVE",
"126 74 OFFCURVE",
"97 69 CURVE SMOOTH",
"49 60 LINE",
"49 0 LINE"
);
}
);
width = 608;
}
);
unicode = 0046;
},
{
glyphname = G;
layers = (
{
anchors = (
{
name = bottom;
position = "{375, -30}";
},
{
name = top;
position = "{376, 730}";
}
);
background = {
paths = (
{
closed = 1;
nodes = (
"195 714 OFFCURVE",
"59 578 OFFCURVE",
"59 340 CURVE SMOOTH",
"59 164 OFFCURVE",
"155 -14 OFFCURVE",
"380 -14 CURVE SMOOTH",
"464 -14 OFFCURVE",
"528 10 OFFCURVE",
"575 44 CURVE",
"601 -3 LINE",
"644 -3 LINE",
"644 226 LINE SMOOTH",
"644 256 OFFCURVE",
"646 272 OFFCURVE",
"674 277 CURVE SMOOTH",
"727 286 LINE",
"727 334 LINE",
"456 334 LINE",
"456 286 LINE",
"516 277 LINE SMOOTH",
"546 272 OFFCURVE",
"549 261 OFFCURVE",
"549 230 CURVE SMOOTH",
"549 120 LINE",
"519 80 OFFCURVE",
"461 52 OFFCURVE",
"387 52 CURVE SMOOTH",
"240 52 OFFCURVE",
"166 190 OFFCURVE",
"166 349 CURVE SMOOTH",
"166 537 OFFCURVE",
"237 651 OFFCURVE",
"383 651 CURVE SMOOTH",
"491 651 OFFCURVE",
"556 595 OFFCURVE",
"596 471 CURVE",
"651 483 LINE",
"605 716 LINE",
"556 716 LINE",
"546 653 LINE",
"518 681 OFFCURVE",
"466 714 OFFCURVE",
"377 714 CURVE SMOOTH"
);
}
);
};
hints = (
{
place = "{59, 107}";
},
{
place = "{549, 95}";
},
{
horizontal = 1;
place = "{-14, 66}";
},
{
horizontal = 1;
place = "{651, 63}";
},
{
horizontal = 1;
place = "{-3, 21}";
target = up;
type = BottomGhost;
},
{
horizontal = 1;
place = "{716, -20}";
target = down;
type = TopGhost;
}
);
layerId = UUID0;
paths = (
{
closed = 1;
nodes = (
"464 -14 OFFCURVE",
"528 10 OFFCURVE",
"575 44 CURVE",
"601 -3 LINE",
"644 -3 LINE",
"644 226 LINE SMOOTH",
"644 256 OFFCURVE",
"646 272 OFFCURVE",
"674 277 CURVE SMOOTH",
"727 286 LINE",
"727 334 LINE",
"456 334 LINE",
"456 286 LINE",
"516 277 LINE SMOOTH",
"546 272 OFFCURVE",
"549 261 OFFCURVE",
"549 230 CURVE SMOOTH",
"549 120 LINE",
"519 80 OFFCURVE",
"461 52 OFFCURVE",
"387 52 CURVE SMOOTH",
"240 52 OFFCURVE",
"166 190 OFFCURVE",
"166 349 CURVE SMOOTH",
"166 537 OFFCURVE",
"237 651 OFFCURVE",
"383 651 CURVE SMOOTH",
"491 651 OFFCURVE",
"556 595 OFFCURVE",
"596 471 CURVE",
"651 483 LINE",
"605 716 LINE",
"556 716 LINE",
"546 653 LINE",
"518 681 OFFCURVE",
"466 714 OFFCURVE",
"377 714 CURVE SMOOTH",
"195 714 OFFCURVE",
"59 578 OFFCURVE",
"59 340 CURVE SMOOTH",
"59 164 OFFCURVE",
"155 -14 OFFCURVE",
"380 -14 CURVE SMOOTH"
);
}
);
width = 760;
},
{
anchors = (
{
name = bottom;
position = "{375, -30}";
},
{
name = top;
position = "{385, 740}";
}
);
background = {
paths = (
{
closed = 1;
nodes = (
"171 714 OFFCURVE",
"46 566 OFFCURVE",
"46 334 CURVE SMOOTH",
"46 158 OFFCURVE",
"137 -14 OFFCURVE",
"385 -14 CURVE SMOOTH",
"460 -14 OFFCURVE",
"521 9 OFFCURVE",
"559 39 CURVE",
"578 -3 LINE",
"652 -3 LINE",
"652 218 LINE SMOOTH",
"652 248 OFFCURVE",
"654 267 OFFCURVE",
"682 272 CURVE SMOOTH",
"725 281 LINE",
"725 341 LINE",
"438 341 LINE",
"438 281 LINE",
"488 272 LINE SMOOTH",
"518 267 OFFCURVE",
"521 253 OFFCURVE",
"521 222 CURVE SMOOTH",
"521 114 LINE",
"497 93 OFFCURVE",
"464 72 OFFCURVE",
"401 72 CURVE SMOOTH",
"294 72 OFFCURVE",
"202 157 OFFCURVE",
"202 348 CURVE SMOOTH",
"202 484 OFFCURVE",
"239 628 OFFCURVE",
"393 628 CURVE SMOOTH",
"493 628 OFFCURVE",
"553 575 OFFCURVE",
"591 464 CURVE",
"668 481 LINE",
"619 714 LINE",
"558 714 LINE",
"548 651 LINE",
"520 679 OFFCURVE",
"460 714 OFFCURVE",
"374 714 CURVE SMOOTH"
);
}
);
};
hints = (
{
place = "{46, 156}";
},
{
place = "{521, 131}";
},
{
horizontal = 1;
place = "{-14, 86}";
},
{
horizontal = 1;
place = "{628, 86}";
},
{
horizontal = 1;
place = "{-3, 21}";
target = up;
type = BottomGhost;
},
{
horizontal = 1;
origin = "{0, 11}";
target = down;
type = TopGhost;
}
);
layerId = "4181654C-020A-47A3-85ED-5DF79C071187";
paths = (
{
closed = 1;
nodes = (
"460 -14 OFFCURVE",
"521 9 OFFCURVE",
"559 39 CURVE",
"578 -3 LINE",
"652 -3 LINE",
"652 218 LINE SMOOTH",
"652 248 OFFCURVE",
"654 267 OFFCURVE",
"682 272 CURVE SMOOTH",
"725 281 LINE",
"725 341 LINE",
"438 341 LINE",
"438 281 LINE",
"488 272 LINE SMOOTH",
"518 267 OFFCURVE",
"521 253 OFFCURVE",
"521 222 CURVE SMOOTH",
"521 114 LINE",
"497 93 OFFCURVE",
"464 72 OFFCURVE",
"401 72 CURVE SMOOTH",
"294 72 OFFCURVE",
"202 157 OFFCURVE",
"202 348 CURVE SMOOTH",
"202 484 OFFCURVE",
"239 628 OFFCURVE",
"393 628 CURVE SMOOTH",
"493 628 OFFCURVE",
"553 575 OFFCURVE",
"591 464 CURVE",
"668 481 LINE",
"619 714 LINE",
"558 714 LINE",
"548 651 LINE",
"520 679 OFFCURVE",
"460 714 OFFCURVE",
"374 714 CURVE SMOOTH",
"171 714 OFFCURVE",
"46 566 OFFCURVE",
"46 334 CURVE SMOOTH",
"46 158 OFFCURVE",
"137 -14 OFFCURVE",
"385 -14 CURVE SMOOTH"
);
}
);
width = 735;
}
);
leftKerningGroup = O;
rightKerningGroup = G;
unicode = 0047;
},
{
glyphname = H;
layers = (
{
anchors = (
{
name = bottom;
position = "{419, -30}";
},
{
name = top;
position = "{420, 730}";
}
);
background = {
paths = (
{
closed = 1;
nodes = (
"590 108 LINE SMOOTH",
"590 78 OFFCURVE",
"588 62 OFFCURVE",
"559 57 CURVE SMOOTH",
"502 48 LINE",
"502 0 LINE",
"777 0 LINE",
"777 48 LINE",
"722 57 LINE SMOOTH",
"692 62 OFFCURVE",
"689 73 OFFCURVE",
"689 104 CURVE SMOOTH",
"689 592 LINE SMOOTH",
"689 622 OFFCURVE",
"691 638 OFFCURVE",
"720 643 CURVE SMOOTH",
"777 652 LINE",
"777 700 LINE",
"502 700 LINE",
"502 652 LINE",
"557 643 LINE SMOOTH",
"587 638 OFFCURVE",
"590 627 OFFCURVE",
"590 596 CURVE SMOOTH",
"590 391 LINE",
"250 391 LINE",
"250 592 LINE SMOOTH",
"250 622 OFFCURVE",
"252 638 OFFCURVE",
"280 643 CURVE SMOOTH",
"338 652 LINE",
"338 700 LINE",
"62 700 LINE",
"62 652 LINE",
"118 643 LINE SMOOTH",
"148 638 OFFCURVE",
"151 627 OFFCURVE",
"151 596 CURVE SMOOTH",
"151 108 LINE SMOOTH",
"151 78 OFFCURVE",
"149 62 OFFCURVE",
"120 57 CURVE SMOOTH",
"62 48 LINE",
"62 0 LINE",
"338 0 LINE",
"338 48 LINE",
"282 57 LINE SMOOTH",
"253 62 OFFCURVE",
"250 73 OFFCURVE",
"250 104 CURVE SMOOTH",
"250 328 LINE",
"590 328 LINE"
);
}
);
};
hints = (
{
place = "{151, 99}";
},
{
place = "{590, 99}";
},
{
horizontal = 1;
place = "{328, 63}";
},
{
horizontal = 1;
place = "{0, 21}";
target = up;
type = BottomGhost;
},
{
horizontal = 1;
place = "{700, -20}";
target = down;
type = TopGhost;
}
);
layerId = UUID0;
paths = (
{
closed = 1;
nodes = (
"338 0 LINE",
"338 48 LINE",
"282 57 LINE SMOOTH",
"253 62 OFFCURVE",
"250 73 OFFCURVE",
"250 104 CURVE SMOOTH",
"250 328 LINE",
"590 328 LINE",
"590 108 LINE SMOOTH",
"590 78 OFFCURVE",
"588 62 OFFCURVE",
"559 57 CURVE SMOOTH",
"502 48 LINE",
"502 0 LINE",
"777 0 LINE",
"777 48 LINE",
"722 57 LINE SMOOTH",
"692 62 OFFCURVE",
"689 73 OFFCURVE",
"689 104 CURVE SMOOTH",
"689 592 LINE SMOOTH",
"689 622 OFFCURVE",
"691 638 OFFCURVE",
"720 643 CURVE SMOOTH",
"777 652 LINE",
"777 700 LINE",
"502 700 LINE",
"502 652 LINE",
"557 643 LINE SMOOTH",
"587 638 OFFCURVE",
"590 627 OFFCURVE",
"590 596 CURVE SMOOTH",
"590 391 LINE",
"250 391 LINE",
"250 592 LINE SMOOTH",
"250 622 OFFCURVE",
"252 638 OFFCURVE",
"280 643 CURVE SMOOTH",
"338 652 LINE",
"338 700 LINE",
"62 700 LINE",
"62 652 LINE",
"118 643 LINE SMOOTH",
"148 638 OFFCURVE",
"151 627 OFFCURVE",
"151 596 CURVE SMOOTH",
"151 108 LINE SMOOTH",
"151 78 OFFCURVE",
"149 62 OFFCURVE",
"120 57 CURVE SMOOTH",
"62 48 LINE",
"62 0 LINE"
);
}
);
width = 840;
},
{
anchors = (
{
name = bottom;
position = "{419, -30}";
},
{
name = top;
position = "{416, 740}";
}
);
background = {
paths = (
{
closed = 1;
nodes = (
"551 319 LINE",
"551 117 LINE SMOOTH",
"551 83 OFFCURVE",
"548 75 OFFCURVE",
"519 70 CURVE SMOOTH",
"467 60 LINE",
"467 0 LINE",
"783 0 LINE",
"783 60 LINE",
"736 69 LINE SMOOTH",
"701 75 OFFCURVE",
"699 80 OFFCURVE",
"699 121 CURVE SMOOTH",
"699 579 LINE SMOOTH",
"699 620 OFFCURVE",
"701 625 OFFCURVE",
"736 631 CURVE SMOOTH",
"783 640 LINE",
"783 700 LINE",
"467 700 LINE",
"467 640 LINE",
"519 630 LINE SMOOTH",
"548 625 OFFCURVE",
"551 617 OFFCURVE",
"551 580 CURVE SMOOTH",
"551 399 LINE",
"281 399 LINE",
"281 580 LINE",
"281 617 OFFCURVE",
"284 625 OFFCURVE",
"313 630 CURVE SMOOTH",
"365 640 LINE",
"365 700 LINE",
"49 700 LINE",
"49 640 LINE",
"96 631 LINE SMOOTH",
"131 625 OFFCURVE",
"133 620 OFFCURVE",
"133 579 CURVE",
"133 121 LINE SMOOTH",
"133 80 OFFCURVE",
"131 75 OFFCURVE",
"96 69 CURVE SMOOTH",
"49 60 LINE",
"49 0 LINE",
"365 0 LINE",
"365 60 LINE",
"313 70 LINE SMOOTH",
"284 75 OFFCURVE",
"281 83 OFFCURVE",
"281 117 CURVE SMOOTH",
"281 319 LINE"
);
}
);
};
hints = (
{
place = "{133, 148}";
},
{
place = "{551, 148}";
},
{
horizontal = 1;
place = "{319, 80}";
},
{
horizontal = 1;
place = "{0, 21}";
target = up;
type = BottomGhost;
},
{
horizontal = 1;
place = "{700, -20}";
target = down;
type = TopGhost;
}
);
layerId = "4181654C-020A-47A3-85ED-5DF79C071187";
paths = (
{
closed = 1;
nodes = (
"365 0 LINE",
"365 60 LINE",
"313 70 LINE SMOOTH",
"284 75 OFFCURVE",
"281 83 OFFCURVE",
"281 117 CURVE SMOOTH",
"281 319 LINE",
"551 319 LINE",
"551 117 LINE SMOOTH",
"551 83 OFFCURVE",
"548 75 OFFCURVE",
"519 70 CURVE SMOOTH",
"467 60 LINE",
"467 0 LINE",
"783 0 LINE",
"783 60 LINE",
"736 69 LINE SMOOTH",
"701 75 OFFCURVE",
"699 80 OFFCURVE",
"699 121 CURVE SMOOTH",
"699 579 LINE SMOOTH",
"699 620 OFFCURVE",
"701 625 OFFCURVE",
"736 631 CURVE SMOOTH",
"783 640 LINE",
"783 700 LINE",
"467 700 LINE",
"467 640 LINE",
"519 630 LINE SMOOTH",
"548 625 OFFCURVE",
"551 617 OFFCURVE",
"551 580 CURVE SMOOTH",
"551 399 LINE",
"281 399 LINE",
"281 580 LINE",
"281 617 OFFCURVE",
"284 625 OFFCURVE",
"313 630 CURVE SMOOTH",
"365 640 LINE",
"365 700 LINE",
"49 700 LINE",
"49 640 LINE",
"96 631 LINE SMOOTH",
"131 625 OFFCURVE",
"133 620 OFFCURVE",
"133 579 CURVE",
"133 121 LINE SMOOTH",
"133 80 OFFCURVE",
"131 75 OFFCURVE",
"96 69 CURVE SMOOTH",
"49 60 LINE",
"49 0 LINE"
);
}
);
width = 833;
}
);
leftKerningGroup = H;
rightKerningGroup = H;
unicode = 0048;
},
{
glyphname = I;
layers = (
{
anchors = (
{
name = bottom;
position = "{200, -30}";
},
{
name = top;
position = "{200, 730}";
}
);
background = {
paths = (
{
closed = 1;
nodes = (
"151 108 LINE",
"151 78 OFFCURVE",
"149 62 OFFCURVE",
"120 57 CURVE SMOOTH",
"58 48 LINE",
"58 0 LINE",
"343 0 LINE",
"343 48 LINE",
"282 57 LINE SMOOTH",
"253 62 OFFCURVE",
"250 73 OFFCURVE",
"250 104 CURVE SMOOTH",
"250 592 LINE SMOOTH",
"250 622 OFFCURVE",
"252 638 OFFCURVE",
"280 643 CURVE SMOOTH",
"343 652 LINE",
"343 700 LINE",
"58 700 LINE",
"58 652 LINE",
"118 643 LINE SMOOTH",
"148 638 OFFCURVE",
"151 627 OFFCURVE",
"151 596 CURVE SMOOTH"
);
}
);
};
hints = (
{
place = "{151, 99}";
},
{
horizontal = 1;
place = "{0, 21}";
target = up;
type = BottomGhost;
},
{
horizontal = 1;
place = "{700, -20}";
target = down;
type = TopGhost;
}
);
layerId = UUID0;
paths = (
{
closed = 1;
nodes = (
"343 0 LINE",
"343 48 LINE",
"282 57 LINE SMOOTH",
"253 62 OFFCURVE",
"250 73 OFFCURVE",
"250 104 CURVE SMOOTH",
"250 592 LINE SMOOTH",
"250 622 OFFCURVE",
"252 638 OFFCURVE",
"280 643 CURVE SMOOTH",
"343 652 LINE",
"343 700 LINE",
"58 700 LINE",
"58 652 LINE",
"118 643 LINE SMOOTH",
"148 638 OFFCURVE",
"151 627 OFFCURVE",
"151 596 CURVE SMOOTH",
"151 108 LINE",
"151 78 OFFCURVE",
"149 62 OFFCURVE",
"120 57 CURVE SMOOTH",
"58 48 LINE",
"58 0 LINE"
);
}
);
width = 401;
},
{
anchors = (
{
name = bottom;
position = "{200, -30}";
},
{
name = top;
position = "{207, 740}";
}
);
background = {
paths = (
{
closed = 1;
nodes = (
"281 580 LINE",
"281 617 OFFCURVE",
"284 625 OFFCURVE",
"313 630 CURVE SMOOTH",
"370 640 LINE",
"370 700 LINE",
"45 700 LINE",
"45 640 LINE",
"96 631 LINE SMOOTH",
"131 625 OFFCURVE",
"133 620 OFFCURVE",
"133 579 CURVE",
"133 121 LINE SMOOTH",
"133 80 OFFCURVE",
"131 75 OFFCURVE",
"96 69 CURVE SMOOTH",
"45 60 LINE",
"45 0 LINE",
"370 0 LINE",
"370 60 LINE",
"313 70 LINE SMOOTH",
"284 75 OFFCURVE",
"281 83 OFFCURVE",
"281 117 CURVE SMOOTH"
);
}
);
};
hints = (
{
place = "{133, 148}";
},
{
horizontal = 1;
place = "{700, -20}";
target = down;
type = TopGhost;
},
{
horizontal = 1;
place = "{0, 21}";
target = up;
type = BottomGhost;
}
);
layerId = "4181654C-020A-47A3-85ED-5DF79C071187";
paths = (
{
closed = 1;
nodes = (
"370 0 LINE",
"370 60 LINE",
"313 70 LINE SMOOTH",
"284 75 OFFCURVE",
"281 83 OFFCURVE",
"281 117 CURVE SMOOTH",
"281 580 LINE",
"281 617 OFFCURVE",
"284 625 OFFCURVE",
"313 630 CURVE SMOOTH",
"370 640 LINE",
"370 700 LINE",
"45 700 LINE",
"45 640 LINE",
"96 631 LINE SMOOTH",
"131 625 OFFCURVE",
"133 620 OFFCURVE",
"133 579 CURVE",
"133 121 LINE SMOOTH",
"133 80 OFFCURVE",
"131 75 OFFCURVE",
"96 69 CURVE SMOOTH",
"45 60 LINE",
"45 0 LINE"
);
}
);
width = 415;
}
);
leftKerningGroup = H;
rightKerningGroup = H;
unicode = 0049;
},
{
glyphname = J;
layers = (
{
anchors = (
{
name = top;
position = "{399, 730}";
}
);
background = {
paths = (
{
closed = 1;
nodes = (
"204 50 OFFCURVE",
"176 65 OFFCURVE",
"166 74 CURVE",
"190 114 OFFCURVE",
"196 128 OFFCURVE",
"196 145 CURVE SMOOTH",
"196 170 OFFCURVE",
"177 190 OFFCURVE",
"133 190 CURVE SMOOTH",
"87 190 OFFCURVE",
"58 152 OFFCURVE",
"58 108 CURVE SMOOTH",
"58 28 OFFCURVE",
"145 -14 OFFCURVE",
"237 -14 CURVE SMOOTH",
"411 -14 OFFCURVE",
"447 120 OFFCURVE",
"447 224 CURVE SMOOTH",
"447 592 LINE",
"447 622 OFFCURVE",
"449 639 OFFCURVE",
"477 643 CURVE SMOOTH",
"540 652 LINE",
"540 700 LINE",
"245 700 LINE",
"245 651 LINE",
"315 641 LINE SMOOTH",
"345 637 OFFCURVE",
"348 625 OFFCURVE",
"348 594 CURVE",
"348 201 LINE SMOOTH",
"348 101 OFFCURVE",
"317 50 OFFCURVE",
"243 50 CURVE SMOOTH"
);
}
);
};
hints = (
{
place = "{58, 138}";
},
{
place = "{348, 99}";
},
{
horizontal = 1;
place = "{-14, 64}";
},
{
horizontal = 1;
place = "{700, -20}";
target = down;
type = TopGhost;
}
);
layerId = UUID0;
paths = (
{
closed = 1;
nodes = (
"411 -14 OFFCURVE",
"447 120 OFFCURVE",
"447 224 CURVE SMOOTH",
"447 592 LINE",
"447 622 OFFCURVE",
"449 639 OFFCURVE",
"477 643 CURVE SMOOTH",
"540 652 LINE",
"540 700 LINE",
"245 700 LINE",
"245 651 LINE",
"315 641 LINE SMOOTH",
"345 637 OFFCURVE",
"348 625 OFFCURVE",
"348 594 CURVE",
"348 201 LINE SMOOTH",
"348 101 OFFCURVE",
"317 50 OFFCURVE",
"243 50 CURVE SMOOTH",
"204 50 OFFCURVE",
"176 65 OFFCURVE",
"166 74 CURVE",
"190 114 OFFCURVE",
"196 128 OFFCURVE",
"196 145 CURVE SMOOTH",
"196 170 OFFCURVE",
"177 190 OFFCURVE",
"133 190 CURVE SMOOTH",
"87 190 OFFCURVE",
"58 152 OFFCURVE",
"58 108 CURVE SMOOTH",
"58 28 OFFCURVE",
"145 -14 OFFCURVE",
"237 -14 CURVE SMOOTH"
);
}
);
width = 575;
},
{
anchors = (
{
name = top;
position = "{384, 740}";
}
);
background = {
paths = (
{
closed = 1;
nodes = (
"196 55 OFFCURVE",
"167 69 OFFCURVE",
"157 79 CURVE",
"183 122 OFFCURVE",
"189 137 OFFCURVE",
"189 156 CURVE SMOOTH",
"189 183 OFFCURVE",
"168 209 OFFCURVE",
"121 209 CURVE SMOOTH",
"71 209 OFFCURVE",
"40 168 OFFCURVE",
"40 121 CURVE SMOOTH",
"40 34 OFFCURVE",
"125 -14 OFFCURVE",
"231 -14 CURVE SMOOTH",
"398 -14 OFFCURVE",
"463 90 OFFCURVE",
"463 194 CURVE SMOOTH",
"463 580 LINE SMOOTH",
"463 610 OFFCURVE",
"463 622 OFFCURVE",
"491 629 CURVE SMOOTH",
"537 640 LINE",
"537 700 LINE",
"219 700 LINE",
"219 641 LINE",
"282 631 LINE SMOOTH",
"311 626 OFFCURVE",
"315 615 OFFCURVE",
"315 584 CURVE SMOOTH",
"315 186 LINE SMOOTH",
"315 106 OFFCURVE",
"304 55 OFFCURVE",
"230 55 CURVE SMOOTH"
);
}
);
};
hints = (
{
place = "{40, 149}";
},
{
place = "{315, 148}";
},
{
horizontal = 1;
place = "{-14, 69}";
},
{
horizontal = 1;
place = "{700, -20}";
target = down;
type = TopGhost;
}
);
layerId = "4181654C-020A-47A3-85ED-5DF79C071187";
paths = (
{
closed = 1;
nodes = (
"398 -14 OFFCURVE",
"463 90 OFFCURVE",
"463 194 CURVE SMOOTH",
"463 580 LINE SMOOTH",
"463 610 OFFCURVE",
"463 622 OFFCURVE",
"491 629 CURVE SMOOTH",
"537 640 LINE",
"537 700 LINE",
"219 700 LINE",
"219 641 LINE",
"282 631 LINE SMOOTH",
"311 626 OFFCURVE",
"315 615 OFFCURVE",
"315 584 CURVE SMOOTH",
"315 186 LINE SMOOTH",
"315 106 OFFCURVE",
"304 55 OFFCURVE",
"230 55 CURVE SMOOTH",
"196 55 OFFCURVE",
"167 69 OFFCURVE",
"157 79 CURVE",
"183 122 OFFCURVE",
"189 137 OFFCURVE",
"189 156 CURVE SMOOTH",
"189 183 OFFCURVE",
"168 209 OFFCURVE",
"121 209 CURVE SMOOTH",
"71 209 OFFCURVE",
"40 168 OFFCURVE",
"40 121 CURVE SMOOTH",
"40 34 OFFCURVE",
"125 -14 OFFCURVE",
"231 -14 CURVE SMOOTH"
);
}
);
width = 559;
}
);
leftKerningGroup = J;
rightKerningGroup = J;
unicode = 004A;
},
{
glyphname = K;
layers = (
{
anchors = (
{
name = bottom;
position = "{393, -30}";
},
{
name = top;
position = "{392, 730}";
}
);
background = {
paths = (
{
closed = 1;
nodes = (
"155 108 LINE SMOOTH",
"155 78 OFFCURVE",
"153 62 OFFCURVE",
"124 57 CURVE SMOOTH",
"62 48 LINE",
"62 0 LINE",
"347 0 LINE",
"347 48 LINE",
"286 57 LINE SMOOTH",
"257 62 OFFCURVE",
"254 73 OFFCURVE",
"254 104 CURVE SMOOTH",
"254 275 LINE",
"314 336 LINE",
"471 85 LINE SMOOTH",
"516 13 OFFCURVE",
"560 -14 OFFCURVE",
"632 -14 CURVE SMOOTH",
"673 -14 OFFCURVE",
"712 2 OFFCURVE",
"735 26 CURVE",
"725 62 LINE",
"707 56 OFFCURVE",
"693 53 OFFCURVE",
"680 53 CURVE SMOOTH",
"629 53 OFFCURVE",
"604 66 OFFCURVE",
"558 136 CURVE SMOOTH",
"383 401 LINE",
"577 596 LINE SMOOTH",
"607 626 OFFCURVE",
"620 637 OFFCURVE",
"645 642 CURVE SMOOTH",
"683 650 LINE",
"683 700 LINE",
"446 700 LINE",
"436 651 LINE",
"484 643 LINE SMOOTH",
"509 639 OFFCURVE",
"521 617 OFFCURVE",
"497 593 CURVE SMOOTH",
"254 350 LINE",
"254 592 LINE SMOOTH",
"254 622 OFFCURVE",
"256 639 OFFCURVE",
"284 643 CURVE SMOOTH",
"347 652 LINE",
"347 700 LINE",
"62 700 LINE",
"62 652 LINE",
"122 643 LINE SMOOTH",
"152 638 OFFCURVE",
"155 627 OFFCURVE",
"155 596 CURVE SMOOTH"
);
}
);
};
hints = (
{
place = "{155, 99}";
},
{
horizontal = 1;
place = "{-14, 67}";
},
{
horizontal = 1;
place = "{0, 21}";
target = up;
type = BottomGhost;
},
{
horizontal = 1;
place = "{700, -20}";
target = down;
type = TopGhost;
}
);
layerId = UUID0;
paths = (
{
closed = 1;
nodes = (
"673 -14 OFFCURVE",
"712 2 OFFCURVE",
"735 26 CURVE",
"725 62 LINE",
"707 56 OFFCURVE",
"693 53 OFFCURVE",
"680 53 CURVE SMOOTH",
"629 53 OFFCURVE",
"604 66 OFFCURVE",
"558 136 CURVE SMOOTH",
"383 401 LINE",
"577 596 LINE SMOOTH",
"607 626 OFFCURVE",
"620 637 OFFCURVE",
"645 642 CURVE SMOOTH",
"683 650 LINE",
"683 700 LINE",
"446 700 LINE",
"436 651 LINE",
"484 643 LINE SMOOTH",
"509 639 OFFCURVE",
"521 617 OFFCURVE",
"497 593 CURVE SMOOTH",
"254 350 LINE",
"254 592 LINE SMOOTH",
"254 622 OFFCURVE",
"256 639 OFFCURVE",
"284 643 CURVE SMOOTH",
"347 652 LINE",
"347 700 LINE",
"62 700 LINE",
"62 652 LINE",
"122 643 LINE SMOOTH",
"152 638 OFFCURVE",
"155 627 OFFCURVE",
"155 596 CURVE SMOOTH",
"155 108 LINE SMOOTH",
"155 78 OFFCURVE",
"153 62 OFFCURVE",
"124 57 CURVE SMOOTH",
"62 48 LINE",
"62 0 LINE",
"347 0 LINE",
"347 48 LINE",
"286 57 LINE SMOOTH",
"257 62 OFFCURVE",
"254 73 OFFCURVE",
"254 104 CURVE SMOOTH",
"254 275 LINE",
"314 336 LINE",
"471 85 LINE SMOOTH",
"516 13 OFFCURVE",
"560 -14 OFFCURVE",
"632 -14 CURVE SMOOTH"
);
}
);
width = 754;
},
{
anchors = (
{
name = bottom;
position = "{393, -30}";
},
{
name = top;
position = "{411, 740}";
}
);
background = {
paths = (
{
closed = 1;
nodes = (
"137 116 LINE SMOOTH",
"137 86 OFFCURVE",
"135 75 OFFCURVE",
"106 70 CURVE SMOOTH",
"49 60 LINE",
"49 0 LINE",
"368 0 LINE",
"368 60 LINE",
"311 70 LINE SMOOTH",
"282 75 OFFCURVE",
"285 86 OFFCURVE",
"285 117 CURVE SMOOTH",
"285 227 LINE",
"366 309 LINE",
"508 80 LINE SMOOTH",
"556 2 OFFCURVE",
"616 -14 OFFCURVE",
"668 -14 CURVE SMOOTH",
"725 -14 OFFCURVE",
"767 8 OFFCURVE",
"789 28 CURVE",
"776 85 LINE",
"758 79 OFFCURVE",
"743 77 OFFCURVE",
"736 77 CURVE SMOOTH",
"704 77 OFFCURVE",
"672 85 OFFCURVE",
"627 155 CURVE SMOOTH",
"465 409 LINE",
"637 586 LINE SMOOTH",
"667 617 OFFCURVE",
"676 626 OFFCURVE",
"701 631 CURVE SMOOTH",
"734 638 LINE",
"734 700 LINE",
"481 700 LINE",
"471 639 LINE",
"519 632 LINE SMOOTH",
"541 629 OFFCURVE",
"551 611 OFFCURVE",
"530 585 CURVE SMOOTH",
"285 333 LINE",
"285 579 LINE SMOOTH",
"285 609 OFFCURVE",
"285 624 OFFCURVE",
"313 629 CURVE SMOOTH",
"374 640 LINE",
"374 700 LINE",
"49 700 LINE",
"49 640 LINE",
"106 630 LINE SMOOTH",
"136 625 OFFCURVE",
"137 614 OFFCURVE",
"137 583 CURVE SMOOTH"
);
}
);
};
hints = (
{
place = "{137, 148}";
},
{
horizontal = 1;
place = "{-14, 91}";
},
{
horizontal = 1;
place = "{0, 21}";
target = up;
type = BottomGhost;
},
{
horizontal = 1;
place = "{700, -20}";
target = down;
type = TopGhost;
}
);
layerId = "4181654C-020A-47A3-85ED-5DF79C071187";
paths = (
{
closed = 1;
nodes = (
"725 -14 OFFCURVE",
"767 8 OFFCURVE",
"789 28 CURVE",
"776 85 LINE",
"758 79 OFFCURVE",
"743 77 OFFCURVE",
"736 77 CURVE SMOOTH",
"704 77 OFFCURVE",
"672 85 OFFCURVE",
"627 155 CURVE SMOOTH",
"465 409 LINE",
"637 586 LINE SMOOTH",
"667 617 OFFCURVE",
"676 626 OFFCURVE",
"701 631 CURVE SMOOTH",
"734 638 LINE",
"734 700 LINE",
"481 700 LINE",
"471 639 LINE",
"519 632 LINE SMOOTH",
"541 629 OFFCURVE",
"551 611 OFFCURVE",
"530 585 CURVE SMOOTH",
"285 333 LINE",
"285 579 LINE SMOOTH",
"285 609 OFFCURVE",
"285 624 OFFCURVE",
"313 629 CURVE SMOOTH",
"374 640 LINE",
"374 700 LINE",
"49 700 LINE",
"49 640 LINE",
"106 630 LINE SMOOTH",
"136 625 OFFCURVE",
"137 614 OFFCURVE",
"137 583 CURVE SMOOTH",
"137 116 LINE SMOOTH",
"137 86 OFFCURVE",
"135 75 OFFCURVE",
"106 70 CURVE SMOOTH",
"49 60 LINE",
"49 0 LINE",
"368 0 LINE",
"368 60 LINE",
"311 70 LINE SMOOTH",
"282 75 OFFCURVE",
"285 86 OFFCURVE",
"285 117 CURVE SMOOTH",
"285 227 LINE",
"366 309 LINE",
"508 80 LINE SMOOTH",
"556 2 OFFCURVE",
"616 -14 OFFCURVE",
"668 -14 CURVE SMOOTH"
);
}
);
width = 776;
}
);
rightKerningGroup = K;
unicode = 004B;
},
{
glyphname = L;
layers = (
{
anchors = (
{
name = bottom;
position = "{326, -30}";
},
{
name = top;
position = "{201, 730}";
}
);
background = {
paths = (
{
closed = 1;
nodes = (
"250 596 LINE SMOOTH",
"250 627 OFFCURVE",
"253 638 OFFCURVE",
"282 643 CURVE SMOOTH",
"348 652 LINE",
"348 700 LINE",
"62 700 LINE",
"62 652 LINE",
"118 643 LINE SMOOTH",
"148 638 OFFCURVE",
"151 627 OFFCURVE",
"151 596 CURVE SMOOTH",
"151 108 LINE SMOOTH",
"151 78 OFFCURVE",
"149 62 OFFCURVE",
"120 57 CURVE SMOOTH",
"62 48 LINE",
"62 0 LINE",
"552 0 LINE",
"577 214 LINE",
"522 214 LINE",
"485 93 OFFCURVE",
"461 55 OFFCURVE",
"363 55 CURVE SMOOTH",
"250 55 LINE"
);
}
);
};
hints = (
{
place = "{151, 99}";
},
{
horizontal = 1;
place = "{0, 55}";
},
{
horizontal = 1;
place = "{700, -20}";
target = down;
type = TopGhost;
}
);
layerId = UUID0;
paths = (
{
closed = 1;
nodes = (
"552 0 LINE",
"577 214 LINE",
"522 214 LINE",
"485 93 OFFCURVE",
"461 55 OFFCURVE",
"363 55 CURVE SMOOTH",
"250 55 LINE",
"250 596 LINE SMOOTH",
"250 627 OFFCURVE",
"253 638 OFFCURVE",
"282 643 CURVE SMOOTH",
"348 652 LINE",
"348 700 LINE",
"62 700 LINE",
"62 652 LINE",
"118 643 LINE SMOOTH",
"148 638 OFFCURVE",
"151 627 OFFCURVE",
"151 596 CURVE SMOOTH",
"151 108 LINE SMOOTH",
"151 78 OFFCURVE",
"149 62 OFFCURVE",
"120 57 CURVE SMOOTH",
"62 48 LINE",
"62 0 LINE"
);
}
);
width = 637;
},
{
anchors = (
{
name = bottom;
position = "{326, -30}";
},
{
name = top;
position = "{209, 740}";
}
);
background = {
paths = (
{
closed = 1;
nodes = (
"281 586 LINE SMOOTH",
"281 617 OFFCURVE",
"285 625 OFFCURVE",
"314 630 CURVE SMOOTH",
"379 639 LINE",
"379 700 LINE",
"49 700 LINE",
"49 640 LINE",
"101 630 LINE SMOOTH",
"133 624 OFFCURVE",
"133 614 OFFCURVE",
"133 583 CURVE SMOOTH",
"133 121 LINE SMOOTH",
"133 84 OFFCURVE",
"131 75 OFFCURVE",
"102 70 CURVE SMOOTH",
"49 60 LINE",
"49 0 LINE",
"571 0 LINE",
"599 227 LINE",
"523 227 LINE",
"486 106 OFFCURVE",
"453 70 OFFCURVE",
"368 70 CURVE SMOOTH",
"281 70 LINE"
);
}
);
};
hints = (
{
place = "{133, 148}";
},
{
horizontal = 1;
place = "{0, 70}";
},
{
horizontal = 1;
place = "{700, -20}";
target = down;
type = TopGhost;
}
);
layerId = "4181654C-020A-47A3-85ED-5DF79C071187";
paths = (
{
closed = 1;
nodes = (
"571 0 LINE",
"599 227 LINE",
"523 227 LINE",
"486 106 OFFCURVE",
"453 70 OFFCURVE",
"368 70 CURVE SMOOTH",
"281 70 LINE",
"281 586 LINE SMOOTH",
"281 617 OFFCURVE",
"285 625 OFFCURVE",
"314 630 CURVE SMOOTH",
"379 639 LINE",
"379 700 LINE",
"49 700 LINE",
"49 640 LINE",
"101 630 LINE SMOOTH",
"133 624 OFFCURVE",
"133 614 OFFCURVE",
"133 583 CURVE SMOOTH",
"133 121 LINE SMOOTH",
"133 84 OFFCURVE",
"131 75 OFFCURVE",
"102 70 CURVE SMOOTH",
"49 60 LINE",
"49 0 LINE"
);
}
);
width = 629;
}
);
rightKerningGroup = L;
unicode = 004C;
},
{
glyphname = M;
layers = (
{
anchors = (
{
name = bottom;
position = "{487, -30}";
}
);
background = {
paths = (
{
closed = 1;
nodes = (
"748 108 LINE SMOOTH",
"748 78 OFFCURVE",
"746 62 OFFCURVE",
"717 57 CURVE SMOOTH",
"655 48 LINE",
"655 0 LINE",
"940 0 LINE",
"940 48 LINE",
"879 57 LINE SMOOTH",
"850 62 OFFCURVE",
"847 73 OFFCURVE",
"847 104 CURVE SMOOTH",
"817 592 LINE SMOOTH",
"817 622 OFFCURVE",
"819 639 OFFCURVE",
"847 643 CURVE SMOOTH",
"910 652 LINE",
"910 700 LINE",
"679 700 LINE",
"496 193 LINE",
"325 700 LINE",
"93 700 LINE",
"93 652 LINE",
"149 643 LINE SMOOTH",
"178 638 OFFCURVE",
"181 627 OFFCURVE",
"181 596 CURVE SMOOTH",
"151 108 LINE SMOOTH",
"151 78 OFFCURVE",
"149 62 OFFCURVE",
"121 57 CURVE SMOOTH",
"63 48 LINE",
"63 0 LINE",
"309 0 LINE",
"309 48 LINE",
"253 57 LINE SMOOTH",
"224 62 OFFCURVE",
"221 73 OFFCURVE",
"221 104 CURVE SMOOTH",
"251 623 LINE",
"431 113 LINE",
"531 113 LINE",
"718 622 LINE"
);
}
);
};
hints = (
{
place = "{166, 70}";
},
{
place = "{733, 99}";
},
{
horizontal = 1;
place = "{0, 21}";
target = up;
type = BottomGhost;
},
{
horizontal = 1;
place = "{700, -20}";
target = down;
type = TopGhost;
}
);
layerId = UUID0;
paths = (
{
closed = 1;
nodes = (
"309 0 LINE",
"309 48 LINE",
"253 57 LINE SMOOTH",
"224 62 OFFCURVE",
"221 73 OFFCURVE",
"221 104 CURVE SMOOTH",
"251 615 LINE",
"251 623 LINE",
"431 113 LINE",
"531 113 LINE",
"718 622 LINE",
"718 614 LINE",
"748 108 LINE SMOOTH",
"748 78 OFFCURVE",
"746 62 OFFCURVE",
"717 57 CURVE SMOOTH",
"655 48 LINE",
"655 0 LINE",
"940 0 LINE",
"940 48 LINE",
"879 57 LINE SMOOTH",
"850 62 OFFCURVE",
"847 73 OFFCURVE",
"847 104 CURVE SMOOTH",
"817 592 LINE SMOOTH",
"817 622 OFFCURVE",
"819 639 OFFCURVE",
"847 643 CURVE SMOOTH",
"910 652 LINE",
"910 700 LINE",
"679 700 LINE",
"500 203 LINE",
"496 193 LINE",
"325 700 LINE",
"93 700 LINE",
"93 652 LINE",
"149 643 LINE SMOOTH",
"178 638 OFFCURVE",
"181 627 OFFCURVE",
"181 596 CURVE SMOOTH",
"151 108 LINE SMOOTH",
"149 78 OFFCURVE",
"148 61 OFFCURVE",
"120 57 CURVE SMOOTH",
"63 48 LINE",
"63 0 LINE"
);
}
);
width = 1003;
},
{
anchors = (
{
name = bottom;
position = "{487, -30}";
}
);
background = {
paths = (
{
closed = 1;
nodes = (
"487 273 LINE",
"484 273 LINE",
"344 700 LINE",
"68 700 LINE",
"68 640 LINE",
"124 629 LINE SMOOTH",
"153 624 OFFCURVE",
"158 613 OFFCURVE",
"156 582 CURVE SMOOTH",
"126 113 LINE SMOOTH",
"124 83 OFFCURVE",
"124 75 OFFCURVE",
"96 70 CURVE SMOOTH",
"42 60 LINE",
"42 0 LINE",
"300 0 LINE",
"300 60 LINE",
"246 70 LINE SMOOTH",
"217 75 OFFCURVE",
"214 87 OFFCURVE",
"216 118 CURVE SMOOTH",
"239 549 LINE",
"243 549 LINE",
"393 113 LINE",
"506 113 LINE",
"669 556 LINE",
"672 556 LINE",
"695 123 LINE SMOOTH",
"697 87 OFFCURVE",
"695 77 OFFCURVE",
"668 71 CURVE SMOOTH",
"611 60 LINE",
"611 0 LINE",
"930 0 LINE",
"930 60 LINE",
"878 70 LINE SMOOTH",
"849 75 OFFCURVE",
"848 86 OFFCURVE",
"846 117 CURVE SMOOTH",
"817 578 LINE SMOOTH",
"815 608 OFFCURVE",
"818 623 OFFCURVE",
"846 629 CURVE SMOOTH",
"901 640 LINE",
"901 700 LINE",
"642 700 LINE"
);
}
);
};
hints = (
{
place = "{141, 86}";
},
{
place = "{683, 148}";
},
{
horizontal = 1;
place = "{700, -20}";
target = down;
type = TopGhost;
},
{
horizontal = 1;
place = "{0, 21}";
target = up;
type = BottomGhost;
},
{
horizontal = 1;
place = "{556, -20}";
target = down;
type = TopGhost;
}
);
layerId = "4181654C-020A-47A3-85ED-5DF79C071187";
paths = (
{
closed = 1;
nodes = (
"300 0 LINE",
"300 60 LINE",
"246 70 LINE SMOOTH",
"217 75 OFFCURVE",
"214 87 OFFCURVE",
"216 118 CURVE SMOOTH",
"239 549 LINE",
"243 549 LINE",
"393 113 LINE",
"506 113 LINE",
"669 556 LINE",
"672 556 LINE",
"695 123 LINE SMOOTH",
"697 87 OFFCURVE",
"695 77 OFFCURVE",
"668 71 CURVE SMOOTH",
"611 60 LINE",
"611 0 LINE",
"930 0 LINE",
"930 60 LINE",
"878 70 LINE SMOOTH",
"849 75 OFFCURVE",
"848 86 OFFCURVE",
"846 117 CURVE SMOOTH",
"817 578 LINE SMOOTH",
"815 608 OFFCURVE",
"818 623 OFFCURVE",
"846 629 CURVE SMOOTH",
"901 640 LINE",
"901 700 LINE",
"642 700 LINE",
"487 273 LINE",
"484 273 LINE",
"344 700 LINE",
"68 700 LINE",
"68 640 LINE",
"124 629 LINE SMOOTH",
"153 624 OFFCURVE",
"158 613 OFFCURVE",
"156 582 CURVE SMOOTH",
"126 113 LINE SMOOTH",
"124 83 OFFCURVE",
"123 75 OFFCURVE",
"95 70 CURVE SMOOTH",
"42 60 LINE",
"42 0 LINE"
);
}
);
width = 963;
}
);
unicode = 004D;
},
{
glyphname = N;
layers = (
{
anchors = (
{
name = bottom;
position = "{411, -30}";
},
{
name = top;
position = "{413, 730}";
}
);
background = {
paths = (
{
closed = 1;
nodes = (
"686 592 LINE",
"686 622 OFFCURVE",
"688 638 OFFCURVE",
"717 643 CURVE",
"774 652 LINE",
"774 700 LINE",
"529 700 LINE",
"529 652 LINE",
"584 643 LINE",
"614 638 OFFCURVE",
"617 627 OFFCURVE",
"617 596 CURVE",
"617 129 LINE",
"285 700 LINE",
"63 700 LINE",
"63 652 LINE",
"119 643 LINE",
"148 638 OFFCURVE",
"151 627 OFFCURVE",
"151 596 CURVE",
"151 108 LINE",
"151 78 OFFCURVE",
"149 62 OFFCURVE",
"121 57 CURVE",
"63 48 LINE",
"63 0 LINE",
"309 0 LINE",
"309 48 LINE",
"253 57 LINE",
"224 62 OFFCURVE",
"221 73 OFFCURVE",
"221 104 CURVE",
"221 609 LINE",
"583 0 LINE",
"686 0 LINE"
);
}
);
};
hints = (
{
place = "{151, 70}";
},
{
place = "{617, 69}";
},
{
horizontal = 1;
place = "{700, -20}";
target = down;
type = TopGhost;
},
{
horizontal = 1;
place = "{0, 21}";
target = up;
type = BottomGhost;
}
);
layerId = UUID0;
paths = (
{
closed = 1;
nodes = (
"309 0 LINE",
"309 48 LINE",
"253 57 LINE",
"224 62 OFFCURVE",
"221 73 OFFCURVE",
"221 104 CURVE",
"221 601 LINE",
"221 609 LINE",
"583 0 LINE",
"686 0 LINE",
"686 592 LINE",
"686 622 OFFCURVE",
"688 638 OFFCURVE",
"717 643 CURVE",
"774 652 LINE",
"774 700 LINE",
"529 700 LINE",
"529 652 LINE",
"584 643 LINE",
"614 638 OFFCURVE",
"617 627 OFFCURVE",
"617 596 CURVE",
"617 137 LINE",
"617 129 LINE",
"285 700 LINE",
"63 700 LINE",
"63 652 LINE",
"119 643 LINE",
"148 638 OFFCURVE",
"151 627 OFFCURVE",
"151 596 CURVE",
"151 108 LINE",
"151 78 OFFCURVE",
"149 62 OFFCURVE",
"121 57 CURVE",
"63 48 LINE",
"63 0 LINE"
);
}
);
width = 824;
},
{
anchors = (
{
name = bottom;
position = "{411, -30}";
},
{
name = top;
position = "{416, 740}";
}
);
background = {
paths = (
{
closed = 1;
nodes = (
"698 580 LINE",
"698 613 OFFCURVE",
"699 625 OFFCURVE",
"728 630 CURVE SMOOTH",
"782 640 LINE",
"782 700 LINE",
"524 700 LINE",
"524 640 LINE",
"577 630 LINE SMOOTH",
"606 625 OFFCURVE",
"608 615 OFFCURVE",
"608 584 CURVE",
"608 171 LINE",
"605 171 LINE",
"288 700 LINE",
"50 700 LINE",
"50 640 LINE",
"103 630 LINE SMOOTH",
"132 625 OFFCURVE",
"134 615 OFFCURVE",
"134 584 CURVE",
"134 120 LINE",
"134 85 OFFCURVE",
"132 75 OFFCURVE",
"104 70 CURVE SMOOTH",
"50 60 LINE",
"50 0 LINE",
"308 0 LINE",
"308 60 LINE",
"256 70 LINE SMOOTH",
"227 76 OFFCURVE",
"224 85 OFFCURVE",
"224 116 CURVE",
"224 529 LINE",
"228 529 LINE",
"545 0 LINE",
"698 0 LINE"
);
}
);
};
hints = (
{
place = "{134, 90}";
},
{
place = "{608, 90}";
},
{
horizontal = 1;
place = "{700, -20}";
target = down;
type = TopGhost;
},
{
horizontal = 1;
place = "{0, 21}";
target = up;
type = BottomGhost;
}
);
layerId = "4181654C-020A-47A3-85ED-5DF79C071187";
paths = (
{
closed = 1;
nodes = (
"308 0 LINE",
"308 60 LINE",
"256 70 LINE SMOOTH",
"227 76 OFFCURVE",
"224 85 OFFCURVE",
"224 116 CURVE SMOOTH",
"224 529 LINE",
"228 529 LINE",
"545 0 LINE",
"698 0 LINE",
"698 580 LINE",
"698 613 OFFCURVE",
"699 625 OFFCURVE",
"728 630 CURVE SMOOTH",
"782 640 LINE",
"782 700 LINE",
"524 700 LINE",
"524 640 LINE",
"577 630 LINE SMOOTH",
"606 625 OFFCURVE",
"608 615 OFFCURVE",
"608 584 CURVE",
"608 171 LINE",
"605 171 LINE",
"288 700 LINE",
"50 700 LINE",
"50 640 LINE",
"103 630 LINE SMOOTH",
"132 625 OFFCURVE",
"134 615 OFFCURVE",
"134 584 CURVE SMOOTH",
"134 120 LINE SMOOTH",
"134 85 OFFCURVE",
"132 75 OFFCURVE",
"104 70 CURVE SMOOTH",
"50 60 LINE",
"50 0 LINE"
);
}
);
width = 815;
}
);
leftKerningGroup = N;
rightKerningGroup = N;
unicode = 004E;
},
{
glyphname = O;
layers = (
{
anchors = (
{
name = bottom;
position = "{385, -30}";
},
{
name = top;
position = "{391, 730}";
}
);
background = {
paths = (
{
closed = 1;
nodes = (
"59 135 OFFCURVE",
"182 -14 OFFCURVE",
"387 -14 CURVE SMOOTH",
"570 -14 OFFCURVE",
"719 122 OFFCURVE",
"719 368 CURVE SMOOTH",
"719 598 OFFCURVE",
"570 714 OFFCURVE",
"396 714 CURVE SMOOTH",
"225 714 OFFCURVE",
"59 607 OFFCURVE",
"59 336 CURVE SMOOTH"
);
},
{
closed = 1;
nodes = (
"165 565 OFFCURVE",
"259 650 OFFCURVE",
"383 650 CURVE SMOOTH",
"519 650 OFFCURVE",
"610 547 OFFCURVE",
"610 349 CURVE SMOOTH",
"610 144 OFFCURVE",
"528 53 OFFCURVE",
"399 53 CURVE SMOOTH",
"255 53 OFFCURVE",
"165 170 OFFCURVE",
"165 357 CURVE SMOOTH"
);
}
);
};
hints = (
{
place = "{59, 106}";
},
{
place = "{610, 109}";
},
{
horizontal = 1;
place = "{-14, 67}";
},
{
horizontal = 1;
place = "{650, 64}";
}
);
layerId = UUID0;
paths = (
{
closed = 1;
nodes = (
"570 -14 OFFCURVE",
"719 122 OFFCURVE",
"719 368 CURVE SMOOTH",
"719 598 OFFCURVE",
"570 714 OFFCURVE",
"396 714 CURVE SMOOTH",
"225 714 OFFCURVE",
"59 607 OFFCURVE",
"59 336 CURVE SMOOTH",
"59 135 OFFCURVE",
"182 -14 OFFCURVE",
"387 -14 CURVE SMOOTH"
);
},
{
closed = 1;
nodes = (
"255 53 OFFCURVE",
"165 170 OFFCURVE",
"165 357 CURVE SMOOTH",
"165 565 OFFCURVE",
"259 650 OFFCURVE",
"383 650 CURVE SMOOTH",
"519 650 OFFCURVE",
"610 547 OFFCURVE",
"610 349 CURVE SMOOTH",
"610 144 OFFCURVE",
"528 53 OFFCURVE",
"399 53 CURVE SMOOTH"
);
}
);
width = 779;
},
{
anchors = (
{
name = bottom;
position = "{385, -30}";
},
{
name = top;
position = "{389, 740}";
}
);
background = {
paths = (
{
closed = 1;
nodes = (
"46 139 OFFCURVE",
"153 -14 OFFCURVE",
"385 -14 CURVE SMOOTH",
"609 -14 OFFCURVE",
"725 154 OFFCURVE",
"725 368 CURVE SMOOTH",
"725 599 OFFCURVE",
"581 714 OFFCURVE",
"396 714 CURVE SMOOTH",
"206 714 OFFCURVE",
"46 600 OFFCURVE",
"46 337 CURVE SMOOTH"
);
},
{
closed = 1;
nodes = (
"202 539 OFFCURVE",
"264 631 OFFCURVE",
"380 631 CURVE SMOOTH",
"504 631 OFFCURVE",
"571 518 OFFCURVE",
"571 350 CURVE SMOOTH",
"571 157 OFFCURVE",
"504 70 OFFCURVE",
"394 70 CURVE SMOOTH",
"261 70 OFFCURVE",
"202 188 OFFCURVE",
"202 357 CURVE SMOOTH"
);
}
);
};
hints = (
{
place = "{46, 156}";
},
{
place = "{571, 154}";
},
{
horizontal = 1;
place = "{-14, 84}";
},
{
horizontal = 1;
place = "{631, 83}";
}
);
layerId = "4181654C-020A-47A3-85ED-5DF79C071187";
paths = (
{
closed = 1;
nodes = (
"609 -14 OFFCURVE",
"725 154 OFFCURVE",
"725 368 CURVE SMOOTH",
"725 599 OFFCURVE",
"581 714 OFFCURVE",
"396 714 CURVE SMOOTH",
"206 714 OFFCURVE",
"46 600 OFFCURVE",
"46 337 CURVE SMOOTH",
"46 139 OFFCURVE",
"153 -14 OFFCURVE",
"385 -14 CURVE SMOOTH"
);
},
{
closed = 1;
nodes = (
"261 70 OFFCURVE",
"202 188 OFFCURVE",
"202 357 CURVE SMOOTH",
"202 539 OFFCURVE",
"264 631 OFFCURVE",
"380 631 CURVE SMOOTH",
"504 631 OFFCURVE",
"571 518 OFFCURVE",
"571 350 CURVE SMOOTH",
"571 157 OFFCURVE",
"504 70 OFFCURVE",
"394 70 CURVE SMOOTH"
);
}
);
width = 772;
}
);
leftKerningGroup = O;
rightKerningGroup = O;
unicode = 004F;
},
{
glyphname = P;
layers = (
{
background = {
paths = (
{
closed = 1;
nodes = (
"62 0 LINE",
"357 0 LINE",
"357 48 LINE",
"287 56 LINE SMOOTH",
"255 60 OFFCURVE",
"250 73 OFFCURVE",
"250 106 CURVE SMOOTH",
"250 282 LINE",
"259 280 OFFCURVE",
"291 277 OFFCURVE",
"329 277 CURVE SMOOTH",
"438 277 OFFCURVE",
"577 333 OFFCURVE",
"577 502 CURVE SMOOTH",
"577 655 OFFCURVE",
"460 700 OFFCURVE",
"308 700 CURVE SMOOTH",
"62 700 LINE",
"62 652 LINE",
"118 643 LINE SMOOTH",
"148 638 OFFCURVE",
"151 627 OFFCURVE",
"151 596 CURVE SMOOTH",
"151 108 LINE SMOOTH",
"151 78 OFFCURVE",
"149 62 OFFCURVE",
"120 57 CURVE SMOOTH",
"62 48 LINE"
);
},
{
closed = 1;
nodes = (
"250 646 LINE",
"301 646 LINE SMOOTH",
"400 646 OFFCURVE",
"470 616 OFFCURVE",
"470 499 CURVE SMOOTH",
"470 396 OFFCURVE",
"422 331 OFFCURVE",
"308 331 CURVE SMOOTH",
"285 331 OFFCURVE",
"260 333 OFFCURVE",
"250 336 CURVE"
);
}
);
};
hints = (
{
place = "{151, 99}";
},
{
place = "{470, 107}";
},
{
horizontal = 1;
place = "{277, 54}";
},
{
horizontal = 1;
place = "{646, 54}";
},
{
horizontal = 1;
place = "{0, 21}";
target = up;
type = BottomGhost;
}
);
layerId = UUID0;
paths = (
{
closed = 1;
nodes = (
"357 0 LINE",
"357 48 LINE",
"287 56 LINE SMOOTH",
"255 60 OFFCURVE",
"250 73 OFFCURVE",
"250 106 CURVE SMOOTH",
"250 282 LINE",
"259 280 OFFCURVE",
"291 277 OFFCURVE",
"329 277 CURVE SMOOTH",
"438 277 OFFCURVE",
"577 333 OFFCURVE",
"577 502 CURVE SMOOTH",
"577 655 OFFCURVE",
"460 700 OFFCURVE",
"308 700 CURVE SMOOTH",
"62 700 LINE",
"62 652 LINE",
"118 643 LINE SMOOTH",
"148 638 OFFCURVE",
"151 627 OFFCURVE",
"151 596 CURVE SMOOTH",
"151 108 LINE SMOOTH",
"151 78 OFFCURVE",
"149 62 OFFCURVE",
"120 57 CURVE SMOOTH",
"62 48 LINE",
"62 0 LINE"
);
},
{
closed = 1;
nodes = (
"285 331 OFFCURVE",
"260 333 OFFCURVE",
"250 336 CURVE",
"250 646 LINE",
"301 646 LINE SMOOTH",
"400 646 OFFCURVE",
"470 616 OFFCURVE",
"470 499 CURVE SMOOTH",
"470 396 OFFCURVE",
"422 331 OFFCURVE",
"308 331 CURVE SMOOTH"
);
}
);
width = 602;
},
{
background = {
paths = (
{
closed = 1;
nodes = (
"51 0 LINE",
"389 0 LINE",
"389 58 LINE",
"319 66 LINE SMOOTH",
"287 70 OFFCURVE",
"282 83 OFFCURVE",
"282 116 CURVE SMOOTH",
"282 272 LINE",
"291 270 OFFCURVE",
"333 267 OFFCURVE",
"371 267 CURVE SMOOTH",
"480 267 OFFCURVE",
"619 320 OFFCURVE",
"619 489 CURVE SMOOTH",
"619 642 OFFCURVE",
"502 700 OFFCURVE",
"350 700 CURVE SMOOTH",
"51 700 LINE",
"51 640 LINE",
"102 631 LINE SMOOTH",
"132 626 OFFCURVE",
"135 615 OFFCURVE",
"135 584 CURVE SMOOTH",
"135 120 LINE SMOOTH",
"135 90 OFFCURVE",
"133 74 OFFCURVE",
"104 69 CURVE SMOOTH",
"51 60 LINE"
);
},
{
closed = 1;
nodes = (
"283 630 LINE",
"331 630 LINE SMOOTH",
"424 630 OFFCURVE",
"465 578 OFFCURVE",
"465 496 CURVE SMOOTH",
"465 406 OFFCURVE",
"421 337 OFFCURVE",
"323 337 CURVE SMOOTH",
"303 337 OFFCURVE",
"292 338 OFFCURVE",
"283 339 CURVE"
);
}
);
};
hints = (
{
place = "{135, 148}";
},
{
place = "{465, 154}";
},
{
horizontal = 1;
place = "{267, 70}";
},
{
horizontal = 1;
place = "{630, 70}";
},
{
horizontal = 1;
place = "{0, 21}";
target = up;
type = BottomGhost;
}
);
layerId = "4181654C-020A-47A3-85ED-5DF79C071187";
paths = (
{
closed = 1;
nodes = (
"389 0 LINE",
"389 58 LINE",
"319 66 LINE SMOOTH",
"287 70 OFFCURVE",
"282 83 OFFCURVE",
"282 116 CURVE SMOOTH",
"282 272 LINE",
"291 270 OFFCURVE",
"333 267 OFFCURVE",
"371 267 CURVE SMOOTH",
"480 267 OFFCURVE",
"619 320 OFFCURVE",
"619 489 CURVE SMOOTH",
"619 642 OFFCURVE",
"502 700 OFFCURVE",
"350 700 CURVE SMOOTH",
"51 700 LINE",
"51 640 LINE",
"102 631 LINE SMOOTH",
"132 626 OFFCURVE",
"135 615 OFFCURVE",
"135 584 CURVE SMOOTH",
"135 120 LINE SMOOTH",
"135 90 OFFCURVE",
"133 74 OFFCURVE",
"104 69 CURVE SMOOTH",
"51 60 LINE",
"51 0 LINE"
);
},
{
closed = 1;
nodes = (
"303 337 OFFCURVE",
"292 338 OFFCURVE",
"283 339 CURVE",
"283 630 LINE",
"331 630 LINE SMOOTH",
"424 630 OFFCURVE",
"465 578 OFFCURVE",
"465 496 CURVE SMOOTH",
"465 406 OFFCURVE",
"421 337 OFFCURVE",
"323 337 CURVE SMOOTH"
);
}
);
width = 644;
}
);
leftKerningGroup = P;
rightKerningGroup = P;
unicode = 0050;
},
{
glyphname = Q;
layers = (
{
background = {
paths = (
{
closed = 1;
nodes = (
"67 135 OFFCURVE",
"190 -14 OFFCURVE",
"395 -14 CURVE SMOOTH",
"427 -14 OFFCURVE",
"458 -10 OFFCURVE",
"487 -2 CURVE",
"537 -98 OFFCURVE",
"595 -191 OFFCURVE",
"706 -191 CURVE SMOOTH",
"781 -191 OFFCURVE",
"833 -153 OFFCURVE",
"895 -75 CURVE",
"875 -45 LINE",
"828 -79 OFFCURVE",
"790 -94 OFFCURVE",
"734 -94 CURVE SMOOTH",
"672 -94 OFFCURVE",
"623 -34 OFFCURVE",
"573 36 CURVE",
"665 96 OFFCURVE",
"727 210 OFFCURVE",
"727 368 CURVE SMOOTH",
"727 598 OFFCURVE",
"578 714 OFFCURVE",
"404 714 CURVE SMOOTH",
"233 714 OFFCURVE",
"67 607 OFFCURVE",
"67 336 CURVE SMOOTH"
);
},
{
closed = 1;
nodes = (
"173 565 OFFCURVE",
"267 650 OFFCURVE",
"391 650 CURVE SMOOTH",
"527 650 OFFCURVE",
"618 547 OFFCURVE",
"618 349 CURVE SMOOTH",
"618 223 OFFCURVE",
"587 139 OFFCURVE",
"534 94 CURVE",
"477 174 OFFCURVE",
"415 249 OFFCURVE",
"330 249 CURVE SMOOTH",
"285 249 OFFCURVE",
"247 239 OFFCURVE",
"200 196 CURVE",
"183 240 OFFCURVE",
"173 296 OFFCURVE",
"173 357 CURVE SMOOTH"
);
},
{
closed = 1;
nodes = (
"379 193 OFFCURVE",
"418 131 OFFCURVE",
"456 57 CURVE",
"441 54 OFFCURVE",
"424 53 OFFCURVE",
"407 53 CURVE SMOOTH",
"326 53 OFFCURVE",
"262 89 OFFCURVE",
"222 153 CURVE",
"254 184 OFFCURVE",
"284 193 OFFCURVE",
"317 193 CURVE SMOOTH"
);
}
);
};
hints = (
{
place = "{67, 106}";
},
{
place = "{618, 109}";
},
{
horizontal = 1;
place = "{-191, 97}";
},
{
horizontal = 1;
place = "{-14, 67}";
},
{
horizontal = 1;
place = "{193, 56}";
},
{
horizontal = 1;
place = "{650, 64}";
}
);
layerId = UUID0;
paths = (
{
closed = 1;
nodes = (
"781 -191 OFFCURVE",
"833 -153 OFFCURVE",
"895 -75 CURVE",
"875 -45 LINE",
"828 -79 OFFCURVE",
"790 -94 OFFCURVE",
"734 -94 CURVE SMOOTH",
"672 -94 OFFCURVE",
"623 -34 OFFCURVE",
"573 36 CURVE",
"665 96 OFFCURVE",
"727 210 OFFCURVE",
"727 368 CURVE SMOOTH",
"727 598 OFFCURVE",
"578 714 OFFCURVE",
"404 714 CURVE SMOOTH",
"233 714 OFFCURVE",
"67 607 OFFCURVE",
"67 336 CURVE SMOOTH",
"67 135 OFFCURVE",
"190 -14 OFFCURVE",
"395 -14 CURVE SMOOTH",
"427 -14 OFFCURVE",
"458 -10 OFFCURVE",
"487 -2 CURVE",
"537 -98 OFFCURVE",
"595 -191 OFFCURVE",
"706 -191 CURVE SMOOTH"
);
},
{
closed = 1;
nodes = (
"326 53 OFFCURVE",
"262 89 OFFCURVE",
"222 153 CURVE",
"254 184 OFFCURVE",
"284 193 OFFCURVE",
"317 193 CURVE SMOOTH",
"379 193 OFFCURVE",
"418 131 OFFCURVE",
"456 57 CURVE",
"441 54 OFFCURVE",
"424 53 OFFCURVE",
"407 53 CURVE SMOOTH"
);
},
{
closed = 1;
nodes = (
"477 174 OFFCURVE",
"415 249 OFFCURVE",
"330 249 CURVE SMOOTH",
"285 249 OFFCURVE",
"247 239 OFFCURVE",
"200 196 CURVE",
"183 240 OFFCURVE",
"173 296 OFFCURVE",
"173 357 CURVE SMOOTH",
"173 565 OFFCURVE",
"267 650 OFFCURVE",
"391 650 CURVE SMOOTH",
"527 650 OFFCURVE",
"618 547 OFFCURVE",
"618 349 CURVE SMOOTH",
"618 223 OFFCURVE",
"587 139 OFFCURVE",
"534 94 CURVE"
);
}
);
width = 779;
},
{
background = {
paths = (
{
closed = 1;
nodes = (
"46 139 OFFCURVE",
"153 -14 OFFCURVE",
"385 -14 CURVE SMOOTH",
"417 -14 OFFCURVE",
"447 -10 OFFCURVE",
"475 -3 CURVE",
"548 -132 OFFCURVE",
"602 -190 OFFCURVE",
"705 -190 CURVE SMOOTH",
"780 -190 OFFCURVE",
"840 -149 OFFCURVE",
"897 -77 CURVE",
"867 -34 LINE",
"820 -68 OFFCURVE",
"789 -83 OFFCURVE",
"750 -83 CURVE SMOOTH",
"670 -83 OFFCURVE",
"649 -52 OFFCURVE",
"582 44 CURVE",
"676 111 OFFCURVE",
"725 230 OFFCURVE",
"725 368 CURVE SMOOTH",
"725 599 OFFCURVE",
"581 714 OFFCURVE",
"396 714 CURVE SMOOTH",
"206 714 OFFCURVE",
"46 600 OFFCURVE",
"46 337 CURVE SMOOTH"
);
},
{
closed = 1;
nodes = (
"202 539 OFFCURVE",
"264 631 OFFCURVE",
"380 631 CURVE SMOOTH",
"504 631 OFFCURVE",
"571 518 OFFCURVE",
"571 350 CURVE SMOOTH",
"571 250 OFFCURVE",
"553 179 OFFCURVE",
"521 133 CURVE",
"457 221 OFFCURVE",
"410 266 OFFCURVE",
"330 266 CURVE SMOOTH",
"294 266 OFFCURVE",
"255 251 OFFCURVE",
"217 223 CURVE",
"207 262 OFFCURVE",
"202 307 OFFCURVE",
"202 357 CURVE SMOOTH"
);
},
{
closed = 1;
nodes = (
"362 178 OFFCURVE",
"396 136 OFFCURVE",
"432 74 CURVE",
"420 71 OFFCURVE",
"407 70 OFFCURVE",
"394 70 CURVE SMOOTH",
"323 70 OFFCURVE",
"274 103 OFFCURVE",
"243 159 CURVE",
"266 172 OFFCURVE",
"290 178 OFFCURVE",
"312 178 CURVE SMOOTH"
);
}
);
};
hints = (
{
place = "{46, 156}";
},
{
place = "{571, 154}";
},
{
horizontal = 1;
place = "{-190, 107}";
},
{
horizontal = 1;
place = "{-14, 84}";
},
{
horizontal = 1;
place = "{178, 88}";
},
{
horizontal = 1;
place = "{631, 83}";
}
);
layerId = "4181654C-020A-47A3-85ED-5DF79C071187";
paths = (
{
closed = 1;
nodes = (
"780 -190 OFFCURVE",
"840 -149 OFFCURVE",
"897 -77 CURVE",
"867 -34 LINE",
"820 -68 OFFCURVE",
"789 -83 OFFCURVE",
"750 -83 CURVE SMOOTH",
"670 -83 OFFCURVE",
"649 -52 OFFCURVE",
"582 44 CURVE",
"676 111 OFFCURVE",
"725 230 OFFCURVE",
"725 368 CURVE SMOOTH",
"725 599 OFFCURVE",
"581 714 OFFCURVE",
"396 714 CURVE SMOOTH",
"206 714 OFFCURVE",
"46 600 OFFCURVE",
"46 337 CURVE SMOOTH",
"46 139 OFFCURVE",
"153 -14 OFFCURVE",
"385 -14 CURVE SMOOTH",
"417 -14 OFFCURVE",
"447 -10 OFFCURVE",
"475 -3 CURVE",
"548 -132 OFFCURVE",
"602 -190 OFFCURVE",
"705 -190 CURVE SMOOTH"
);
},
{
closed = 1;
nodes = (
"323 70 OFFCURVE",
"274 103 OFFCURVE",
"243 159 CURVE",
"266 172 OFFCURVE",
"290 178 OFFCURVE",
"312 178 CURVE SMOOTH",
"362 178 OFFCURVE",
"396 136 OFFCURVE",
"432 74 CURVE",
"420 71 OFFCURVE",
"407 70 OFFCURVE",
"394 70 CURVE SMOOTH"
);
},
{
closed = 1;
nodes = (
"457 221 OFFCURVE",
"410 266 OFFCURVE",
"330 266 CURVE SMOOTH",
"294 266 OFFCURVE",
"255 251 OFFCURVE",
"217 223 CURVE",
"207 262 OFFCURVE",
"202 307 OFFCURVE",
"202 357 CURVE SMOOTH",
"202 539 OFFCURVE",
"264 631 OFFCURVE",
"380 631 CURVE SMOOTH",
"504 631 OFFCURVE",
"571 518 OFFCURVE",
"571 350 CURVE SMOOTH",
"571 250 OFFCURVE",
"553 179 OFFCURVE",
"521 133 CURVE"
);
}
);
width = 772;
}
);
leftKerningGroup = O;
rightKerningGroup = O;
unicode = 0051;
},
{
glyphname = R;
layers = (
{
anchors = (
{
name = top;
position = "{345, 740}";
}
);
background = {
paths = (
{
closed = 1;
nodes = (
"450 114 LINE SMOOTH",
"484 32 OFFCURVE",
"514 -14 OFFCURVE",
"597 -14 CURVE SMOOTH",
"638 -14 OFFCURVE",
"671 0 OFFCURVE",
"698 26 CURVE",
"688 62 LINE",
"670 56 OFFCURVE",
"656 53 OFFCURVE",
"643 53 CURVE SMOOTH",
"588 53 OFFCURVE",
"572 95 OFFCURVE",
"544 162 CURVE SMOOTH",
"509 244 LINE SMOOTH",
"488 294 OFFCURVE",
"462 320 OFFCURVE",
"408 335 CURVE",
"408 338 LINE",
"467 349 OFFCURVE",
"582 401 OFFCURVE",
"582 521 CURVE SMOOTH",
"582 656 OFFCURVE",
"463 700 OFFCURVE",
"313 700 CURVE SMOOTH",
"62 700 LINE",
"62 652 LINE",
"118 643 LINE SMOOTH",
"148 638 OFFCURVE",
"151 627 OFFCURVE",
"151 596 CURVE SMOOTH",
"151 108 LINE SMOOTH",
"151 78 OFFCURVE",
"149 62 OFFCURVE",
"120 57 CURVE SMOOTH",
"62 48 LINE",
"62 0 LINE",
"357 0 LINE",
"357 48 LINE",
"287 56 LINE SMOOTH",
"255 60 OFFCURVE",
"250 73 OFFCURVE",
"250 106 CURVE SMOOTH",
"250 318 LINE",
"263 320 OFFCURVE",
"277 321 OFFCURVE",
"295 321 CURVE SMOOTH",
"362 321 OFFCURVE",
"375 294 OFFCURVE",
"402 229 CURVE SMOOTH"
);
},
{
closed = 1;
nodes = (
"250 646 LINE",
"306 646 LINE SMOOTH",
"405 646 OFFCURVE",
"475 620 OFFCURVE",
"475 515 CURVE SMOOTH",
"475 428 OFFCURVE",
"420 369 OFFCURVE",
"306 369 CURVE SMOOTH",
"292 369 OFFCURVE",
"266 369 OFFCURVE",
"250 371 CURVE"
);
}
);
};
hints = (
{
place = "{151, 99}";
},
{
place = "{470, 107}";
},
{
horizontal = 1;
place = "{-14, 67}";
},
{
horizontal = 1;
place = "{321, 48}";
},
{
horizontal = 1;
place = "{646, 54}";
},
{
horizontal = 1;
place = "{0, 21}";
target = up;
type = BottomGhost;
}
);
layerId = UUID0;
paths = (
{
closed = 1;
nodes = (
"638 -14 OFFCURVE",
"671 0 OFFCURVE",
"698 26 CURVE",
"688 62 LINE",
"670 56 OFFCURVE",
"656 53 OFFCURVE",
"643 53 CURVE SMOOTH",
"588 53 OFFCURVE",
"572 95 OFFCURVE",
"544 162 CURVE SMOOTH",
"509 244 LINE SMOOTH",
"488 294 OFFCURVE",
"462 320 OFFCURVE",
"408 335 CURVE",
"408 338 LINE",
"467 349 OFFCURVE",
"582 401 OFFCURVE",
"582 521 CURVE SMOOTH",
"582 656 OFFCURVE",
"463 700 OFFCURVE",
"313 700 CURVE SMOOTH",
"62 700 LINE",
"62 652 LINE",
"118 643 LINE SMOOTH",
"148 638 OFFCURVE",
"151 627 OFFCURVE",
"151 596 CURVE SMOOTH",
"151 108 LINE SMOOTH",
"151 78 OFFCURVE",
"149 62 OFFCURVE",
"120 57 CURVE SMOOTH",
"62 48 LINE",
"62 0 LINE",
"357 0 LINE",
"357 48 LINE",
"287 56 LINE SMOOTH",
"255 60 OFFCURVE",
"250 73 OFFCURVE",
"250 106 CURVE SMOOTH",
"250 318 LINE",
"263 320 OFFCURVE",
"277 321 OFFCURVE",
"295 321 CURVE SMOOTH",
"362 321 OFFCURVE",
"375 294 OFFCURVE",
"402 229 CURVE SMOOTH",
"450 114 LINE SMOOTH",
"484 32 OFFCURVE",
"514 -14 OFFCURVE",
"597 -14 CURVE SMOOTH"
);
},
{
closed = 1;
nodes = (
"292 369 OFFCURVE",
"266 369 OFFCURVE",
"250 371 CURVE",
"250 646 LINE",
"306 646 LINE SMOOTH",
"405 646 OFFCURVE",
"475 620 OFFCURVE",
"475 515 CURVE SMOOTH",
"475 428 OFFCURVE",
"420 369 OFFCURVE",
"306 369 CURVE SMOOTH"
);
}
);
width = 725;
},
{
anchors = (
{
name = top;
position = "{345, 740}";
}
);
background = {
paths = (
{
closed = 1;
nodes = (
"435 115 LINE",
"472 31 OFFCURVE",
"495 -14 OFFCURVE",
"595 -14 CURVE SMOOTH",
"634 -14 OFFCURVE",
"684 1 OFFCURVE",
"714 28 CURVE",
"701 75 LINE",
"683 69 OFFCURVE",
"667 67 OFFCURVE",
"652 67 CURVE SMOOTH",
"613 67 OFFCURVE",
"598 105 OFFCURVE",
"573 163 CURVE SMOOTH",
"539 243 LINE SMOOTH",
"518 293 OFFCURVE",
"490 327 OFFCURVE",
"428 344 CURVE",
"428 347 LINE",
"500 361 OFFCURVE",
"610 414 OFFCURVE",
"610 527 CURVE SMOOTH",
"610 661 OFFCURVE",
"506 700 OFFCURVE",
"375 700 CURVE SMOOTH",
"49 700 LINE",
"49 639 LINE",
"101 630 LINE SMOOTH",
"131 625 OFFCURVE",
"134 614 OFFCURVE",
"134 583 CURVE SMOOTH",
"134 121 LINE SMOOTH",
"134 91 OFFCURVE",
"132 75 OFFCURVE",
"103 70 CURVE SMOOTH",
"49 61 LINE",
"49 0 LINE",
"373 0 LINE",
"373 61 LINE",
"319 69 LINE SMOOTH",
"287 73 OFFCURVE",
"281 86 OFFCURVE",
"281 119 CURVE SMOOTH",
"281 308 LINE",
"285 309 OFFCURVE",
"290 310 OFFCURVE",
"295 310 CURVE SMOOTH",
"345 310 OFFCURVE",
"358 290 OFFCURVE",
"385 229 CURVE SMOOTH"
);
},
{
closed = 1;
nodes = (
"282 630 LINE",
"323 630 LINE SMOOTH",
"406 630 OFFCURVE",
"456 598 OFFCURVE",
"456 513 CURVE SMOOTH",
"456 439 OFFCURVE",
"418 376 OFFCURVE",
"308 376 CURVE SMOOTH",
"292 376 OFFCURVE",
"282 378 OFFCURVE",
"282 378 CURVE"
);
}
);
};
hints = (
{
place = "{134, 148}";
},
{
place = "{456, 154}";
},
{
horizontal = 1;
place = "{-14, 81}";
},
{
horizontal = 1;
place = "{310, 66}";
},
{
horizontal = 1;
place = "{630, 70}";
},
{
horizontal = 1;
place = "{0, 21}";
target = up;
type = BottomGhost;
}
);
layerId = "4181654C-020A-47A3-85ED-5DF79C071187";
paths = (
{
closed = 1;
nodes = (
"634 -14 OFFCURVE",
"684 1 OFFCURVE",
"714 28 CURVE",
"701 75 LINE",
"683 69 OFFCURVE",
"667 67 OFFCURVE",
"652 67 CURVE SMOOTH",
"613 67 OFFCURVE",
"598 105 OFFCURVE",
"573 163 CURVE SMOOTH",
"539 243 LINE SMOOTH",
"518 293 OFFCURVE",
"490 327 OFFCURVE",
"428 344 CURVE",
"428 347 LINE",
"500 361 OFFCURVE",
"610 414 OFFCURVE",
"610 527 CURVE SMOOTH",
"610 661 OFFCURVE",
"506 700 OFFCURVE",
"375 700 CURVE SMOOTH",
"49 700 LINE",
"49 639 LINE",
"101 630 LINE SMOOTH",
"131 625 OFFCURVE",
"134 614 OFFCURVE",
"134 583 CURVE SMOOTH",
"134 121 LINE SMOOTH",
"134 91 OFFCURVE",
"132 75 OFFCURVE",
"103 70 CURVE SMOOTH",
"49 61 LINE",
"49 0 LINE",
"373 0 LINE",
"373 61 LINE",
"319 69 LINE SMOOTH",
"287 73 OFFCURVE",
"281 86 OFFCURVE",
"281 119 CURVE SMOOTH",
"281 308 LINE",
"285 309 OFFCURVE",
"290 310 OFFCURVE",
"295 310 CURVE SMOOTH",
"345 310 OFFCURVE",
"358 290 OFFCURVE",
"385 229 CURVE SMOOTH",
"435 115 LINE",
"472 31 OFFCURVE",
"495 -14 OFFCURVE",
"595 -14 CURVE SMOOTH"
);
},
{
closed = 1;
nodes = (
"292 376 OFFCURVE",
"282 378 OFFCURVE",
"282 378 CURVE",
"282 630 LINE",
"323 630 LINE SMOOTH",
"406 630 OFFCURVE",
"456 598 OFFCURVE",
"456 513 CURVE SMOOTH",
"456 439 OFFCURVE",
"418 376 OFFCURVE",
"308 376 CURVE SMOOTH"
);
}
);
width = 719;
}
);
rightKerningGroup = R;
unicode = 0052;
},
{
glyphname = S;
layers = (
{
anchors = (
{
name = bottom;
position = "{312, -30}";
},
{
name = top;
position = "{308, 730}";
}
);
background = {
paths = (
{
closed = 1;
nodes = (
"380 659 OFFCURVE",
"443 626 OFFCURVE",
"479 504 CURVE",
"535 512 LINE",
"513 714 LINE",
"466 714 LINE",
"453 662 LINE",
"418 692 OFFCURVE",
"362 714 OFFCURVE",
"305 714 CURVE SMOOTH",
"159 714 OFFCURVE",
"91 620 OFFCURVE",
"91 521 CURVE SMOOTH",
"91 260 OFFCURVE",
"453 371 OFFCURVE",
"453 165 CURVE SMOOTH",
"453 93 OFFCURVE",
"407 50 OFFCURVE",
"323 50 CURVE SMOOTH",
"244 50 OFFCURVE",
"169 90 OFFCURVE",
"123 215 CURVE",
"66 210 LINE",
"86 -6 LINE",
"130 -6 LINE",
"146 53 LINE",
"176 24 OFFCURVE",
"239 -14 OFFCURVE",
"326 -14 CURVE SMOOTH",
"482 -14 OFFCURVE",
"550 100 OFFCURVE",
"550 200 CURVE SMOOTH",
"550 456 OFFCURVE",
"188 362 OFFCURVE",
"188 549 CURVE SMOOTH",
"188 617 OFFCURVE",
"239 659 OFFCURVE",
"308 659 CURVE SMOOTH"
);
}
);
};
hints = (
{
place = "{91, 97}";
},
{
place = "{453, 97}";
},
{
horizontal = 1;
place = "{-14, 64}";
},
{
horizontal = 1;
place = "{659, 55}";
},
{
horizontal = 1;
place = "{-6, 21}";
target = up;
type = BottomGhost;
}
);
layerId = UUID0;
paths = (
{
closed = 1;
nodes = (
"482 -14 OFFCURVE",
"550 100 OFFCURVE",
"550 200 CURVE SMOOTH",
"550 340 OFFCURVE",
"441 375 OFFCURVE",
"343 409 CURVE SMOOTH",
"262 437 OFFCURVE",
"188 464 OFFCURVE",
"188 549 CURVE SMOOTH",
"188 617 OFFCURVE",
"239 659 OFFCURVE",
"308 659 CURVE SMOOTH",
"380 659 OFFCURVE",
"443 626 OFFCURVE",
"479 504 CURVE",
"535 512 LINE",
"513 714 LINE",
"466 714 LINE",
"453 662 LINE",
"418 692 OFFCURVE",
"362 714 OFFCURVE",
"305 714 CURVE SMOOTH",
"159 714 OFFCURVE",
"91 620 OFFCURVE",
"91 521 CURVE SMOOTH",
"91 379 OFFCURVE",
"199 347 OFFCURVE",
"296 314 CURVE SMOOTH",
"378 287 OFFCURVE",
"453 259 OFFCURVE",
"453 165 CURVE SMOOTH",
"453 93 OFFCURVE",
"407 50 OFFCURVE",
"323 50 CURVE SMOOTH",
"244 50 OFFCURVE",
"169 90 OFFCURVE",
"123 215 CURVE",
"66 210 LINE",
"86 -6 LINE",
"130 -6 LINE",
"146 53 LINE",
"176 24 OFFCURVE",
"239 -14 OFFCURVE",
"326 -14 CURVE SMOOTH"
);
}
);
width = 613;
},
{
anchors = (
{
name = bottom;
position = "{312, -30}";
},
{
name = top;
position = "{304, 740}";
}
);
background = {
paths = (
{
closed = 1;
nodes = (
"538 502 LINE",
"516 714 LINE",
"456 714 LINE",
"443 664 LINE",
"416 685 OFFCURVE",
"368 714 OFFCURVE",
"290 714 CURVE SMOOTH",
"125 714 OFFCURVE",
"60 602 OFFCURVE",
"60 505 CURVE SMOOTH",
"60 378 OFFCURVE",
"138 329 OFFCURVE",
"262 288 CURVE SMOOTH",
"350 259 OFFCURVE",
"410 233 OFFCURVE",
"410 168 CURVE SMOOTH",
"410 126 OFFCURVE",
"386 71 OFFCURVE",
"294 71 CURVE SMOOTH",
"203 71 OFFCURVE",
"146 133 OFFCURVE",
"116 207 CURVE",
"42 197 LINE",
"59 -6 LINE",
"123 -6 LINE",
"137 43 LINE",
"179 9 OFFCURVE",
"252 -14 OFFCURVE",
"313 -14 CURVE SMOOTH",
"443 -14 OFFCURVE",
"553 68 OFFCURVE",
"553 204 CURVE SMOOTH",
"553 341 OFFCURVE",
"450 375 OFFCURVE",
"349 416 CURVE SMOOTH",
"260 452 OFFCURVE",
"197 470 OFFCURVE",
"197 540 CURVE SMOOTH",
"197 602 OFFCURVE",
"242 633 OFFCURVE",
"301 633 CURVE SMOOTH",
"374 633 OFFCURVE",
"429 594 OFFCURVE",
"464 489 CURVE"
);
}
);
};
hints = (
{
place = "{60, 137}";
},
{
place = "{410, 143}";
},
{
horizontal = 1;
place = "{-14, 85}";
},
{
horizontal = 1;
place = "{633, 81}";
},
{
horizontal = 1;
place = "{-6, 21}";
target = up;
type = BottomGhost;
}
);
layerId = "4181654C-020A-47A3-85ED-5DF79C071187";
paths = (
{
closed = 1;
nodes = (
"443 -14 OFFCURVE",
"553 68 OFFCURVE",
"553 204 CURVE SMOOTH",
"553 341 OFFCURVE",
"450 375 OFFCURVE",
"349 416 CURVE SMOOTH",
"260 452 OFFCURVE",
"197 470 OFFCURVE",
"197 540 CURVE SMOOTH",
"197 602 OFFCURVE",
"242 633 OFFCURVE",
"301 633 CURVE SMOOTH",
"374 633 OFFCURVE",
"429 594 OFFCURVE",
"464 489 CURVE",
"538 502 LINE",
"516 714 LINE",
"456 714 LINE",
"443 664 LINE",
"416 685 OFFCURVE",
"368 714 OFFCURVE",
"290 714 CURVE SMOOTH",
"125 714 OFFCURVE",
"60 602 OFFCURVE",
"60 505 CURVE SMOOTH",
"60 378 OFFCURVE",
"138 329 OFFCURVE",
"262 288 CURVE SMOOTH",
"350 259 OFFCURVE",
"410 233 OFFCURVE",
"410 168 CURVE SMOOTH",
"410 126 OFFCURVE",
"386 71 OFFCURVE",
"294 71 CURVE SMOOTH",
"203 71 OFFCURVE",
"146 133 OFFCURVE",
"116 207 CURVE",
"42 197 LINE",
"59 -6 LINE",
"123 -6 LINE",
"137 43 LINE",
"179 9 OFFCURVE",
"252 -14 OFFCURVE",
"313 -14 CURVE SMOOTH"
);
}
);
width = 592;
}
);
leftKerningGroup = S;
rightKerningGroup = S;
unicode = 0053;
},
{
glyphname = T;
layers = (
{
anchors = (
{
name = bottom;
position = "{369, -30}";
},
{
name = top;
position = "{369, 730}";
}
);
background = {
paths = (
{
closed = 1;
nodes = (
"659 700 LINE",
"81 700 LINE",
"42 500 LINE",
"96 487 LINE",
"139 617 OFFCURVE",
"165 645 OFFCURVE",
"265 645 CURVE SMOOTH",
"320 645 LINE",
"320 110 LINE SMOOTH",
"320 80 OFFCURVE",
"316 64 OFFCURVE",
"287 60 CURVE SMOOTH",
"207 48 LINE",
"207 0 LINE",
"532 0 LINE",
"532 48 LINE",
"453 60 LINE SMOOTH",
"424 65 OFFCURVE",
"419 75 OFFCURVE",
"419 106 CURVE SMOOTH",
"419 645 LINE",
"475 645 LINE SMOOTH",
"575 645 OFFCURVE",
"599 617 OFFCURVE",
"641 487 CURVE",
"696 500 LINE"
);
}
);
};
hints = (
{
place = "{320, 99}";
},
{
horizontal = 1;
place = "{645, 55}";
},
{
horizontal = 1;
place = "{0, 21}";
target = up;
type = BottomGhost;
}
);
layerId = UUID0;
paths = (
{
closed = 1;
nodes = (
"532 0 LINE",
"532 48 LINE",
"453 60 LINE SMOOTH",
"424 65 OFFCURVE",
"419 75 OFFCURVE",
"419 106 CURVE SMOOTH",
"419 645 LINE",
"475 645 LINE SMOOTH",
"575 645 OFFCURVE",
"599 617 OFFCURVE",
"641 487 CURVE",
"696 500 LINE",
"659 700 LINE",
"81 700 LINE",
"42 500 LINE",
"96 487 LINE",
"139 617 OFFCURVE",
"165 645 OFFCURVE",
"265 645 CURVE SMOOTH",
"320 645 LINE",
"320 110 LINE SMOOTH",
"320 80 OFFCURVE",
"316 64 OFFCURVE",
"287 60 CURVE SMOOTH",
"207 48 LINE",
"207 0 LINE"
);
}
);
width = 738;
},
{
anchors = (
{
name = bottom;
position = "{369, -30}";
},
{
name = top;
position = "{364, 740}";
}
);
background = {
paths = (
{
closed = 1;
nodes = (
"27 495 LINE",
"102 478 LINE",
"145 608 OFFCURVE",
"164 630 OFFCURVE",
"264 630 CURVE SMOOTH",
"289 630 LINE",
"289 123 LINE SMOOTH",
"289 93 OFFCURVE",
"285 75 OFFCURVE",
"256 71 CURVE SMOOTH",
"196 61 LINE",
"196 0 LINE",
"530 0 LINE",
"530 61 LINE",
"471 71 LINE SMOOTH",
"442 76 OFFCURVE",
"437 88 OFFCURVE",
"437 119 CURVE SMOOTH",
"437 630 LINE",
"478 630 LINE SMOOTH",
"571 630 OFFCURVE",
"586 605 OFFCURVE",
"626 481 CURVE",
"702 498 LINE",
"662 700 LINE",
"67 700 LINE"
);
}
);
};
hints = (
{
place = "{289, 148}";
},
{
horizontal = 1;
place = "{630, 70}";
},
{
horizontal = 1;
place = "{0, 21}";
target = up;
type = BottomGhost;
}
);
layerId = "4181654C-020A-47A3-85ED-5DF79C071187";
paths = (
{
closed = 1;
nodes = (
"530 0 LINE",
"530 61 LINE",
"471 71 LINE SMOOTH",
"442 76 OFFCURVE",
"437 88 OFFCURVE",
"437 119 CURVE SMOOTH",
"437 630 LINE",
"478 630 LINE SMOOTH",
"571 630 OFFCURVE",
"586 605 OFFCURVE",
"626 481 CURVE",
"702 498 LINE",
"662 700 LINE",
"67 700 LINE",
"27 495 LINE",
"102 478 LINE",
"145 608 OFFCURVE",
"164 630 OFFCURVE",
"264 630 CURVE SMOOTH",
"289 630 LINE",
"289 123 LINE SMOOTH",
"289 93 OFFCURVE",
"285 75 OFFCURVE",
"256 71 CURVE SMOOTH",
"196 61 LINE",
"196 0 LINE"
);
}
);
width = 729;
}
);
leftKerningGroup = T;
rightKerningGroup = T;
unicode = 0054;
},
{
glyphname = U;
layers = (
{
anchors = (
{
name = bottom;
position = "{399, -30}";
},
{
name = top;
position = "{416, 730}";
}
);
background = {
paths = (
{
closed = 1;
nodes = (
"677 592 LINE SMOOTH",
"677 622 OFFCURVE",
"679 638 OFFCURVE",
"708 643 CURVE SMOOTH",
"765 652 LINE",
"765 700 LINE",
"519 700 LINE",
"519 652 LINE",
"574 643 LINE SMOOTH",
"604 638 OFFCURVE",
"607 627 OFFCURVE",
"607 596 CURVE SMOOTH",
"607 279 LINE SMOOTH",
"607 114 OFFCURVE",
"536 56 OFFCURVE",
"418 56 CURVE SMOOTH",
"285 56 OFFCURVE",
"237 124 OFFCURVE",
"237 272 CURVE SMOOTH",
"237 592 LINE SMOOTH",
"237 622 OFFCURVE",
"239 638 OFFCURVE",
"267 643 CURVE SMOOTH",
"325 652 LINE",
"325 700 LINE",
"49 700 LINE",
"49 652 LINE",
"105 643 LINE SMOOTH",
"135 638 OFFCURVE",
"138 627 OFFCURVE",
"138 596 CURVE SMOOTH",
"138 265 LINE SMOOTH",
"138 103 OFFCURVE",
"199 -14 OFFCURVE",
"404 -14 CURVE SMOOTH",
"578 -14 OFFCURVE",
"677 79 OFFCURVE",
"677 291 CURVE SMOOTH"
);
}
);
};
hints = (
{
place = "{138, 99}";
},
{
place = "{607, 70}";
},
{
horizontal = 1;
place = "{-14, 70}";
},
{
horizontal = 1;
place = "{700, -20}";
target = down;
type = TopGhost;
}
);
layerId = UUID0;
paths = (
{
closed = 1;
nodes = (
"578 -14 OFFCURVE",
"677 79 OFFCURVE",
"677 291 CURVE SMOOTH",
"677 592 LINE SMOOTH",
"677 622 OFFCURVE",
"679 638 OFFCURVE",
"708 643 CURVE SMOOTH",
"765 652 LINE",
"765 700 LINE",
"519 700 LINE",
"519 652 LINE",
"574 643 LINE SMOOTH",
"604 638 OFFCURVE",
"607 627 OFFCURVE",
"607 596 CURVE SMOOTH",
"607 279 LINE SMOOTH",
"607 114 OFFCURVE",
"536 56 OFFCURVE",
"418 56 CURVE SMOOTH",
"285 56 OFFCURVE",
"237 124 OFFCURVE",
"237 272 CURVE SMOOTH",
"237 592 LINE SMOOTH",
"237 622 OFFCURVE",
"239 638 OFFCURVE",
"267 643 CURVE SMOOTH",
"325 652 LINE",
"325 700 LINE",
"49 700 LINE",
"49 652 LINE",
"105 643 LINE SMOOTH",
"135 638 OFFCURVE",
"138 627 OFFCURVE",
"138 596 CURVE SMOOTH",
"138 265 LINE SMOOTH",
"138 103 OFFCURVE",
"199 -14 OFFCURVE",
"404 -14 CURVE SMOOTH"
);
}
);
width = 810;
},
{
anchors = (
{
name = bottom;
position = "{399, -30}";
},
{
name = top;
position = "{418, 740}";
}
);
background = {
paths = (
{
closed = 1;
nodes = (
"672 579 LINE SMOOTH",
"672 609 OFFCURVE",
"674 625 OFFCURVE",
"703 630 CURVE SMOOTH",
"758 639 LINE",
"758 700 LINE",
"491 700 LINE",
"491 639 LINE",
"544 630 LINE SMOOTH",
"574 625 OFFCURVE",
"577 614 OFFCURVE",
"577 583 CURVE SMOOTH",
"577 273 LINE SMOOTH",
"577 170 OFFCURVE",
"551 80 OFFCURVE",
"421 80 CURVE SMOOTH",
"293 80 OFFCURVE",
"271 152 OFFCURVE",
"271 274 CURVE SMOOTH",
"271 579 LINE SMOOTH",
"271 609 OFFCURVE",
"273 625 OFFCURVE",
"301 630 CURVE SMOOTH",
"357 639 LINE",
"357 700 LINE",
"36 700 LINE",
"36 639 LINE",
"90 630 LINE SMOOTH",
"120 625 OFFCURVE",
"123 614 OFFCURVE",
"123 583 CURVE SMOOTH",
"123 260 LINE SMOOTH",
"123 98 OFFCURVE",
"194 -14 OFFCURVE",
"402 -14 CURVE SMOOTH",
"573 -14 OFFCURVE",
"672 75 OFFCURVE",
"672 271 CURVE SMOOTH"
);
}
);
};
hints = (
{
place = "{123, 148}";
},
{
place = "{577, 95}";
},
{
horizontal = 1;
place = "{-14, 94}";
},
{
horizontal = 1;
place = "{700, -20}";
target = down;
type = TopGhost;
}
);
layerId = "4181654C-020A-47A3-85ED-5DF79C071187";
paths = (
{
closed = 1;
nodes = (
"573 -14 OFFCURVE",
"672 75 OFFCURVE",
"672 271 CURVE SMOOTH",
"672 579 LINE SMOOTH",
"672 609 OFFCURVE",
"674 625 OFFCURVE",
"703 630 CURVE SMOOTH",
"758 639 LINE",
"758 700 LINE",
"491 700 LINE",
"491 639 LINE",
"544 630 LINE SMOOTH",
"574 625 OFFCURVE",
"577 614 OFFCURVE",
"577 583 CURVE SMOOTH",
"577 273 LINE SMOOTH",
"577 170 OFFCURVE",
"551 80 OFFCURVE",
"421 80 CURVE SMOOTH",
"293 80 OFFCURVE",
"271 152 OFFCURVE",
"271 274 CURVE SMOOTH",
"271 579 LINE SMOOTH",
"271 609 OFFCURVE",
"273 625 OFFCURVE",
"301 630 CURVE SMOOTH",
"357 639 LINE",
"357 700 LINE",
"36 700 LINE",
"36 639 LINE",
"90 630 LINE SMOOTH",
"120 625 OFFCURVE",
"123 614 OFFCURVE",
"123 583 CURVE SMOOTH",
"123 260 LINE SMOOTH",
"123 98 OFFCURVE",
"194 -14 OFFCURVE",
"402 -14 CURVE SMOOTH"
);
}
);
width = 790;
}
);
leftKerningGroup = U;
rightKerningGroup = U;
unicode = 0055;
},
{
glyphname = V;
layers = (
{
anchors = (
{
name = top;
position = "{376, 730}";
}
);
background = {
paths = (
{
closed = 1;
nodes = (
"212 595 LINE SMOOTH",
"199 630 OFFCURVE",
"204 641 OFFCURVE",
"231 645 CURVE SMOOTH",
"286 652 LINE",
"286 700 LINE",
"22 700 LINE",
"22 649 LINE",
"62 641 LINE SMOOTH",
"91 634 OFFCURVE",
"94 626 OFFCURVE",
"107 591 CURVE SMOOTH",
"314 0 LINE",
"420 0 LINE",
"623 590 LINE SMOOTH",
"638 629 OFFCURVE",
"644 639 OFFCURVE",
"668 644 CURVE SMOOTH",
"717 652 LINE",
"717 700 LINE",
"480 700 LINE",
"480 653 LINE",
"529 642 LINE SMOOTH",
"557 636 OFFCURVE",
"563 623 OFFCURVE",
"551 589 CURVE SMOOTH",
"383 86 LINE",
"379 86 LINE"
);
}
);
};
hints = (
{
horizontal = 1;
place = "{700, -20}";
target = down;
type = TopGhost;
},
{
horizontal = 1;
place = "{0, 21}";
target = up;
type = BottomGhost;
}
);
layerId = UUID0;
paths = (
{
closed = 1;
nodes = (
"420 0 LINE",
"623 590 LINE SMOOTH",
"638 629 OFFCURVE",
"644 639 OFFCURVE",
"668 644 CURVE SMOOTH",
"717 652 LINE",
"717 700 LINE",
"480 700 LINE",
"480 653 LINE",
"529 642 LINE SMOOTH",
"557 636 OFFCURVE",
"563 623 OFFCURVE",
"551 589 CURVE SMOOTH",
"383 86 LINE",
"379 86 LINE",
"212 595 LINE SMOOTH",
"199 630 OFFCURVE",
"204 641 OFFCURVE",
"231 645 CURVE SMOOTH",
"286 652 LINE",
"286 700 LINE",
"22 700 LINE",
"22 649 LINE",
"62 641 LINE SMOOTH",
"91 634 OFFCURVE",
"94 626 OFFCURVE",
"107 591 CURVE SMOOTH",
"314 0 LINE"
);
}
);
width = 739;
},
{
anchors = (
{
name = top;
position = "{376, 730}";
}
);
background = {
paths = (
{
closed = 1;
nodes = (
"247 586 LINE SMOOTH",
"234 621 OFFCURVE",
"239 632 OFFCURVE",
"266 636 CURVE SMOOTH",
"321 643 LINE",
"321 700 LINE",
"1 700 LINE",
"1 640 LINE",
"41 632 LINE SMOOTH",
"70 625 OFFCURVE",
"73 617 OFFCURVE",
"86 582 CURVE SMOOTH",
"284 0 LINE",
"436 0 LINE",
"628 581 LINE SMOOTH",
"643 620 OFFCURVE",
"649 630 OFFCURVE",
"673 635 CURVE SMOOTH",
"722 643 LINE",
"722 700 LINE",
"467 700 LINE",
"464 644 LINE",
"515 633 LINE SMOOTH",
"543 627 OFFCURVE",
"549 614 OFFCURVE",
"537 580 CURVE SMOOTH",
"392 134 LINE",
"387 134 LINE"
);
}
);
};
hints = (
{
horizontal = 1;
place = "{700, -20}";
target = down;
type = TopGhost;
},
{
horizontal = 1;
place = "{0, 21}";
target = up;
type = BottomGhost;
}
);
layerId = "4181654C-020A-47A3-85ED-5DF79C071187";
paths = (
{
closed = 1;
nodes = (
"436 0 LINE",
"628 581 LINE SMOOTH",
"643 620 OFFCURVE",
"649 630 OFFCURVE",
"673 635 CURVE SMOOTH",
"722 643 LINE",
"722 700 LINE",
"467 700 LINE",
"464 644 LINE",
"515 633 LINE SMOOTH",
"543 627 OFFCURVE",
"549 614 OFFCURVE",
"537 580 CURVE SMOOTH",
"392 134 LINE",
"387 134 LINE",
"247 586 LINE SMOOTH",
"234 621 OFFCURVE",
"239 632 OFFCURVE",
"266 636 CURVE SMOOTH",
"321 643 LINE",
"321 700 LINE",
"1 700 LINE",
"1 640 LINE",
"41 632 LINE SMOOTH",
"70 625 OFFCURVE",
"73 617 OFFCURVE",
"86 582 CURVE SMOOTH",
"284 0 LINE"
);
}
);
width = 719;
}
);
leftKerningGroup = V;
rightKerningGroup = V;
unicode = 0056;
},
{
glyphname = W;
layers = (
{
anchors = (
{
name = top;
position = "{544, 730}";
}
);
background = {
paths = (
{
closed = 1;
nodes = (
"208 595 LINE SMOOTH",
"200 631 OFFCURVE",
"204 641 OFFCURVE",
"231 645 CURVE SMOOTH",
"282 652 LINE",
"282 700 LINE",
"18 700 LINE",
"18 649 LINE",
"58 641 LINE SMOOTH",
"87 635 OFFCURVE",
"94 627 OFFCURVE",
"103 591 CURVE SMOOTH",
"255 0 LINE",
"375 0 LINE",
"531 601 LINE",
"534 601 LINE",
"708 0 LINE",
"821 0 LINE",
"972 590 LINE SMOOTH",
"982 630 OFFCURVE",
"995 640 OFFCURVE",
"1019 644 CURVE SMOOTH",
"1066 652 LINE",
"1066 700 LINE",
"829 700 LINE",
"829 653 LINE",
"878 642 LINE SMOOTH",
"906 636 OFFCURVE",
"910 624 OFFCURVE",
"902 589 CURVE SMOOTH",
"784 91 LINE",
"779 91 LINE",
"600 700 LINE",
"491 700 LINE",
"330 86 LINE",
"325 86 LINE"
);
}
);
};
hints = (
{
horizontal = 1;
place = "{700, -20}";
target = down;
type = TopGhost;
},
{
horizontal = 1;
place = "{0, 21}";
target = up;
type = BottomGhost;
}
);
layerId = UUID0;
paths = (
{
closed = 1;
nodes = (
"375 0 LINE",
"531 601 LINE",
"534 601 LINE",
"708 0 LINE",
"821 0 LINE",
"972 590 LINE SMOOTH",
"982 630 OFFCURVE",
"995 640 OFFCURVE",
"1019 644 CURVE SMOOTH",
"1066 652 LINE",
"1066 700 LINE",
"829 700 LINE",
"829 653 LINE",
"878 642 LINE SMOOTH",
"906 636 OFFCURVE",
"910 624 OFFCURVE",
"902 589 CURVE SMOOTH",
"784 91 LINE",
"779 91 LINE",
"600 700 LINE",
"491 700 LINE",
"330 86 LINE",
"325 86 LINE",
"208 595 LINE SMOOTH",
"200 631 OFFCURVE",
"204 641 OFFCURVE",
"231 645 CURVE SMOOTH",
"282 652 LINE",
"282 700 LINE",
"18 700 LINE",
"18 649 LINE",
"58 641 LINE SMOOTH",
"87 635 OFFCURVE",
"94 627 OFFCURVE",
"103 591 CURVE SMOOTH",
"255 0 LINE"
);
}
);
width = 1084;
},
{
anchors = (
{
name = top;
position = "{566, 740}";
}
);
background = {
paths = (
{
closed = 1;
nodes = (
"242 587 LINE SMOOTH",
"234 623 OFFCURVE",
"238 633 OFFCURVE",
"265 636 CURVE SMOOTH",
"316 642 LINE",
"316 700 LINE",
"5 700 LINE",
"5 639 LINE",
"45 633 LINE SMOOTH",
"74 629 OFFCURVE",
"81 619 OFFCURVE",
"90 583 CURVE SMOOTH",
"228 0 LINE",
"393 0 LINE",
"529 526 LINE",
"532 526 LINE",
"674 0 LINE",
"848 0 LINE",
"993 582 LINE SMOOTH",
"1003 622 OFFCURVE",
"1016 633 OFFCURVE",
"1040 636 CURVE SMOOTH",
"1087 642 LINE",
"1087 700 LINE",
"829 700 LINE",
"829 643 LINE",
"878 634 LINE SMOOTH",
"906 628 OFFCURVE",
"910 616 OFFCURVE",
"902 581 CURVE SMOOTH",
"798 137 LINE",
"794 137 LINE",
"640 700 LINE",
"489 700 LINE",
"342 139 LINE",
"338 139 LINE"
);
}
);
};
hints = (
{
horizontal = 1;
place = "{700, -20}";
target = down;
type = TopGhost;
},
{
horizontal = 1;
place = "{0, 21}";
target = up;
type = BottomGhost;
},
{
horizontal = 1;
place = "{526, -20}";
target = down;
type = TopGhost;
}
);
layerId = "4181654C-020A-47A3-85ED-5DF79C071187";
paths = (
{
closed = 1;
nodes = (
"393 0 LINE",
"529 526 LINE",
"532 526 LINE",
"674 0 LINE",
"848 0 LINE",
"993 582 LINE SMOOTH",
"1003 622 OFFCURVE",
"1016 633 OFFCURVE",
"1040 636 CURVE SMOOTH",
"1087 642 LINE",
"1087 700 LINE",
"829 700 LINE",
"829 643 LINE",
"878 634 LINE SMOOTH",
"906 628 OFFCURVE",
"910 616 OFFCURVE",
"902 581 CURVE SMOOTH",
"798 137 LINE",
"794 137 LINE",
"640 700 LINE",
"489 700 LINE",
"342 139 LINE",
"338 139 LINE",
"242 587 LINE SMOOTH",
"234 623 OFFCURVE",
"238 633 OFFCURVE",
"265 636 CURVE SMOOTH",
"316 642 LINE",
"316 700 LINE",
"5 700 LINE",
"5 639 LINE",
"45 633 LINE SMOOTH",
"74 629 OFFCURVE",
"81 619 OFFCURVE",
"90 583 CURVE SMOOTH",
"228 0 LINE"
);
}
);
width = 1088;
}
);
leftKerningGroup = W;
rightKerningGroup = W;
unicode = 0057;
},
{
glyphname = X;
layers = (
{
background = {
paths = (
{
closed = 1;
nodes = (
"115 100 LINE",
"85 70 OFFCURVE",
"77 63 OFFCURVE",
"53 58 CURVE SMOOTH",
"15 50 LINE",
"15 0 LINE",
"248 0 LINE",
"248 49 LINE",
"204 59 LINE SMOOTH",
"175 66 OFFCURVE",
"179 77 OFFCURVE",
"196 99 CURVE SMOOTH",
"336 289 LINE",
"476 100 LINE",
"497 74 OFFCURVE",
"494 59 OFFCURVE",
"468 56 CURVE SMOOTH",
"423 50 LINE",
"423 0 LINE",
"692 0 LINE",
"692 52 LINE",
"654 58 LINE SMOOTH",
"625 63 OFFCURVE",
"608 78 OFFCURVE",
"585 107 CURVE",
"396 364 LINE",
"566 596 LINE",
"592 629 OFFCURVE",
"603 637 OFFCURVE",
"628 642 CURVE SMOOTH",
"666 650 LINE",
"666 700 LINE",
"451 700 LINE",
"441 651 LINE",
"479 641 LINE SMOOTH",
"508 634 OFFCURVE",
"509 625 OFFCURVE",
"487 597 CURVE",
"359 415 LINE",
"223 601 LINE",
"204 624 OFFCURVE",
"202 640 OFFCURVE",
"229 644 CURVE SMOOTH",
"269 651 LINE",
"269 700 LINE",
"25 700 LINE",
"15 648 LINE",
"50 640 LINE SMOOTH",
"78 633 OFFCURVE",
"88 622 OFFCURVE",
"112 593 CURVE",
"298 340 LINE"
);
}
);
};
hints = (
{
horizontal = 1;
place = "{0, 21}";
target = up;
type = BottomGhost;
},
{
horizontal = 1;
place = "{700, -20}";
target = down;
type = TopGhost;
}
);
layerId = UUID0;
paths = (
{
closed = 1;
nodes = (
"248 0 LINE",
"248 49 LINE",
"204 59 LINE SMOOTH",
"175 66 OFFCURVE",
"179 77 OFFCURVE",
"196 99 CURVE SMOOTH",
"336 289 LINE",
"476 100 LINE",
"497 74 OFFCURVE",
"494 59 OFFCURVE",
"468 56 CURVE SMOOTH",
"423 50 LINE",
"423 0 LINE",
"692 0 LINE",
"692 52 LINE",
"654 58 LINE SMOOTH",
"625 63 OFFCURVE",
"608 78 OFFCURVE",
"585 107 CURVE",
"396 364 LINE",
"566 596 LINE",
"592 629 OFFCURVE",
"603 637 OFFCURVE",
"628 642 CURVE SMOOTH",
"666 650 LINE",
"666 700 LINE",
"451 700 LINE",
"441 651 LINE",
"479 641 LINE SMOOTH",
"508 634 OFFCURVE",
"509 625 OFFCURVE",
"487 597 CURVE",
"359 415 LINE",
"223 601 LINE",
"204 624 OFFCURVE",
"202 640 OFFCURVE",
"229 644 CURVE SMOOTH",
"269 651 LINE",
"269 700 LINE",
"25 700 LINE",
"15 648 LINE",
"50 640 LINE SMOOTH",
"78 633 OFFCURVE",
"88 622 OFFCURVE",
"112 593 CURVE",
"298 340 LINE",
"115 100 LINE",
"85 70 OFFCURVE",
"77 63 OFFCURVE",
"53 58 CURVE SMOOTH",
"15 50 LINE",
"15 0 LINE"
);
}
);
width = 707;
},
{
background = {
paths = (
{
closed = 1;
nodes = (
"429 644 LINE",
"483 629 LINE SMOOTH",
"510 622 OFFCURVE",
"504 610 OFFCURVE",
"492 592 CURVE SMOOTH",
"382 439 LINE",
"268 597 LINE SMOOTH",
"259 609 OFFCURVE",
"252 626 OFFCURVE",
"273 630 CURVE SMOOTH",
"333 639 LINE",
"333 700 LINE",
"23 700 LINE",
"12 641 LINE",
"42 633 LINE SMOOTH",
"70 626 OFFCURVE",
"83 623 OFFCURVE",
"105 593 CURVE SMOOTH",
"294 334 LINE",
"125 113 LINE SMOOTH",
"99 79 OFFCURVE",
"89 73 OFFCURVE",
"53 66 CURVE SMOOTH",
"19 59 LINE",
"19 0 LINE",
"297 0 LINE",
"297 55 LINE",
"239 67 LINE SMOOTH",
"216 73 OFFCURVE",
"219 86 OFFCURVE",
"231 101 CURVE SMOOTH",
"352 262 LINE",
"465 108 LINE SMOOTH",
"480 88 OFFCURVE",
"482 72 OFFCURVE",
"459 69 CURVE SMOOTH",
"405 60 LINE",
"405 0 LINE",
"740 0 LINE",
"740 62 LINE",
"707 68 LINE SMOOTH",
"678 73 OFFCURVE",
"660 77 OFFCURVE",
"638 107 CURVE SMOOTH",
"443 375 LINE",
"604 594 LINE SMOOTH",
"629 628 OFFCURVE",
"644 628 OFFCURVE",
"669 633 CURVE SMOOTH",
"709 640 LINE",
"709 700 LINE",
"440 700 LINE"
);
}
);
};
hints = (
{
horizontal = 1;
place = "{700, -20}";
target = down;
type = TopGhost;
},
{
horizontal = 1;
place = "{0, 21}";
target = up;
type = BottomGhost;
}
);
layerId = "4181654C-020A-47A3-85ED-5DF79C071187";
paths = (
{
closed = 1;
nodes = (
"297 0 LINE",
"297 55 LINE",
"239 67 LINE SMOOTH",
"216 73 OFFCURVE",
"219 86 OFFCURVE",
"231 101 CURVE SMOOTH",
"352 262 LINE",
"465 108 LINE SMOOTH",
"480 88 OFFCURVE",
"482 72 OFFCURVE",
"459 69 CURVE SMOOTH",
"405 60 LINE",
"405 0 LINE",
"740 0 LINE",
"740 62 LINE",
"707 68 LINE SMOOTH",
"678 73 OFFCURVE",
"660 77 OFFCURVE",
"638 107 CURVE SMOOTH",
"443 375 LINE",
"604 594 LINE SMOOTH",
"629 628 OFFCURVE",
"644 628 OFFCURVE",
"669 633 CURVE SMOOTH",
"709 640 LINE",
"709 700 LINE",
"440 700 LINE",
"429 644 LINE",
"483 629 LINE SMOOTH",
"510 622 OFFCURVE",
"504 610 OFFCURVE",
"492 592 CURVE SMOOTH",
"382 439 LINE",
"268 597 LINE SMOOTH",
"259 609 OFFCURVE",
"252 626 OFFCURVE",
"273 630 CURVE SMOOTH",
"333 639 LINE",
"333 700 LINE",
"23 700 LINE",
"12 641 LINE",
"42 633 LINE SMOOTH",
"70 626 OFFCURVE",
"83 623 OFFCURVE",
"105 593 CURVE SMOOTH",
"294 334 LINE",
"125 113 LINE SMOOTH",
"99 79 OFFCURVE",
"89 73 OFFCURVE",
"53 66 CURVE SMOOTH",
"19 59 LINE",
"19 0 LINE"
);
}
);
width = 752;
}
);
unicode = 0058;
},
{
glyphname = Y;
layers = (
{
anchors = (
{
name = bottom;
position = "{351, -30}";
},
{
name = top;
position = "{371, 730}";
}
);
background = {
paths = (
{
closed = 1;
nodes = (
"302 108 LINE SMOOTH",
"302 78 OFFCURVE",
"300 62 OFFCURVE",
"271 57 CURVE SMOOTH",
"209 48 LINE",
"209 0 LINE",
"494 0 LINE",
"494 48 LINE",
"433 57 LINE SMOOTH",
"404 62 OFFCURVE",
"401 73 OFFCURVE",
"401 104 CURVE SMOOTH",
"401 292 LINE",
"584 589 LINE SMOOTH",
"606 624 OFFCURVE",
"617 640 OFFCURVE",
"641 644 CURVE SMOOTH",
"690 652 LINE",
"690 700 LINE",
"449 700 LINE",
"449 653 LINE",
"495 642 LINE SMOOTH",
"523 636 OFFCURVE",
"533 621 OFFCURVE",
"512 591 CURVE",
"374 358 LINE",
"369 358 LINE",
"223 595 LINE",
"202 626 OFFCURVE",
"215 642 OFFCURVE",
"242 645 CURVE SMOOTH",
"297 652 LINE",
"297 700 LINE",
"18 700 LINE",
"18 649 LINE",
"55 642 LINE SMOOTH",
"84 636 OFFCURVE",
"95 623 OFFCURVE",
"115 591 CURVE SMOOTH",
"302 293 LINE"
);
}
);
};
hints = (
{
place = "{302, 99}";
},
{
horizontal = 1;
place = "{0, 21}";
target = up;
type = BottomGhost;
},
{
horizontal = 1;
place = "{700, -20}";
target = down;
type = TopGhost;
}
);
layerId = UUID0;
paths = (
{
closed = 1;
nodes = (
"494 0 LINE",
"494 48 LINE",
"433 57 LINE SMOOTH",
"404 62 OFFCURVE",
"401 73 OFFCURVE",
"401 104 CURVE SMOOTH",
"401 292 LINE",
"584 589 LINE SMOOTH",
"606 624 OFFCURVE",
"617 640 OFFCURVE",
"641 644 CURVE SMOOTH",
"690 652 LINE",
"690 700 LINE",
"449 700 LINE",
"449 653 LINE",
"495 642 LINE SMOOTH",
"523 636 OFFCURVE",
"533 621 OFFCURVE",
"512 591 CURVE",
"374 358 LINE",
"369 358 LINE",
"223 595 LINE",
"202 626 OFFCURVE",
"215 642 OFFCURVE",
"242 645 CURVE SMOOTH",
"297 652 LINE",
"297 700 LINE",
"18 700 LINE",
"18 649 LINE",
"55 642 LINE SMOOTH",
"84 636 OFFCURVE",
"95 623 OFFCURVE",
"115 591 CURVE SMOOTH",
"302 293 LINE",
"302 108 LINE SMOOTH",
"302 78 OFFCURVE",
"300 62 OFFCURVE",
"271 57 CURVE SMOOTH",
"209 48 LINE",
"209 0 LINE"
);
}
);
width = 708;
},
{
anchors = (
{
name = bottom;
position = "{351, -30}";
},
{
name = top;
position = "{374, 740}";
}
);
background = {
paths = (
{
closed = 1;
nodes = (
"282 118 LINE SMOOTH",
"282 88 OFFCURVE",
"280 75 OFFCURVE",
"251 70 CURVE SMOOTH",
"174 60 LINE",
"174 0 LINE",
"539 0 LINE",
"539 60 LINE",
"462 70 LINE SMOOTH",
"433 75 OFFCURVE",
"430 86 OFFCURVE",
"430 117 CURVE SMOOTH",
"430 272 LINE",
"597 580 LINE SMOOTH",
"617 616 OFFCURVE",
"631 631 OFFCURVE",
"655 635 CURVE SMOOTH",
"684 643 LINE",
"684 700 LINE",
"433 700 LINE",
"433 644 LINE",
"486 632 LINE SMOOTH",
"514 626 OFFCURVE",
"520 614 OFFCURVE",
"503 581 CURVE SMOOTH",
"384 360 LINE",
"379 360 LINE",
"257 586 LINE SMOOTH",
"240 619 OFFCURVE",
"249 632 OFFCURVE",
"276 636 CURVE SMOOTH",
"321 643 LINE",
"321 700 LINE",
"5 700 LINE",
"5 640 LINE",
"39 633 LINE SMOOTH",
"68 627 OFFCURVE",
"80 615 OFFCURVE",
"99 582 CURVE SMOOTH",
"282 264 LINE"
);
}
);
};
hints = (
{
place = "{282, 148}";
},
{
horizontal = 1;
place = "{0, 21}";
target = up;
type = BottomGhost;
},
{
horizontal = 1;
place = "{700, -20}";
target = down;
type = TopGhost;
}
);
layerId = "4181654C-020A-47A3-85ED-5DF79C071187";
paths = (
{
closed = 1;
nodes = (
"539 0 LINE",
"539 60 LINE",
"462 70 LINE SMOOTH",
"433 75 OFFCURVE",
"430 86 OFFCURVE",
"430 117 CURVE SMOOTH",
"430 272 LINE",
"597 580 LINE SMOOTH",
"617 616 OFFCURVE",
"631 631 OFFCURVE",
"655 635 CURVE SMOOTH",
"684 643 LINE",
"684 700 LINE",
"433 700 LINE",
"433 644 LINE",
"486 632 LINE SMOOTH",
"514 626 OFFCURVE",
"520 614 OFFCURVE",
"503 581 CURVE SMOOTH",
"384 360 LINE",
"379 360 LINE",
"257 586 LINE SMOOTH",
"240 619 OFFCURVE",
"249 632 OFFCURVE",
"276 636 CURVE SMOOTH",
"321 643 LINE",
"321 700 LINE",
"5 700 LINE",
"5 640 LINE",
"39 633 LINE SMOOTH",
"68 627 OFFCURVE",
"80 615 OFFCURVE",
"99 582 CURVE SMOOTH",
"282 264 LINE",
"282 118 LINE SMOOTH",
"282 88 OFFCURVE",
"280 75 OFFCURVE",
"251 70 CURVE SMOOTH",
"174 60 LINE",
"174 0 LINE"
);
}
);
width = 689;
}
);
leftKerningGroup = Y;
rightKerningGroup = Y;
unicode = 0059;
},
{
glyphname = Z;
layers = (
{
anchors = (
{
name = bottom;
position = "{321, -30}";
},
{
name = top;
position = "{325, 730}";
}
);
background = {
paths = (
{
closed = 1;
nodes = (
"588 700 LINE",
"79 700 LINE",
"67 509 LINE",
"126 514 LINE",
"156 610 OFFCURVE",
"173 647 OFFCURVE",
"256 647 CURVE SMOOTH",
"470 647 LINE",
"58 48 LINE",
"58 0 LINE",
"578 0 LINE",
"597 199 LINE",
"542 199 LINE",
"504 90 OFFCURVE",
"475 55 OFFCURVE",
"389 55 CURVE SMOOTH",
"178 55 LINE",
"588 650 LINE"
);
}
);
};
hints = (
{
horizontal = 1;
place = "{0, 55}";
},
{
horizontal = 1;
place = "{647, 53}";
}
);
layerId = UUID0;
paths = (
{
closed = 1;
nodes = (
"578 0 LINE",
"597 199 LINE",
"542 199 LINE",
"504 90 OFFCURVE",
"475 55 OFFCURVE",
"389 55 CURVE SMOOTH",
"178 55 LINE",
"588 650 LINE",
"588 700 LINE",
"79 700 LINE",
"67 509 LINE",
"126 514 LINE",
"156 610 OFFCURVE",
"173 647 OFFCURVE",
"256 647 CURVE SMOOTH",
"470 647 LINE",
"58 48 LINE",
"58 0 LINE"
);
}
);
width = 657;
},
{
anchors = (
{
name = bottom;
position = "{352, -30}";
},
{
name = top;
position = "{326, 740}";
}
);
background = {
paths = (
{
closed = 1;
nodes = (
"595 700 LINE",
"66 700 LINE",
"54 476 LINE",
"123 481 LINE",
"153 577 OFFCURVE",
"170 631 OFFCURVE",
"253 631 CURVE SMOOTH",
"423 631 LINE",
"45 68 LINE",
"45 0 LINE",
"589 0 LINE",
"608 229 LINE",
"543 229 LINE",
"496 94 OFFCURVE",
"467 70 OFFCURVE",
"397 70 CURVE SMOOTH",
"220 70 LINE",
"595 631 LINE"
);
}
);
};
hints = (
{
horizontal = 1;
place = "{0, 70}";
},
{
horizontal = 1;
place = "{631, 69}";
}
);
layerId = "4181654C-020A-47A3-85ED-5DF79C071187";
paths = (
{
closed = 1;
nodes = (
"589 0 LINE",
"608 229 LINE",
"543 229 LINE",
"496 94 OFFCURVE",
"467 70 OFFCURVE",
"397 70 CURVE SMOOTH",
"220 70 LINE",
"595 631 LINE",
"595 700 LINE",
"66 700 LINE",
"54 476 LINE",
"123 481 LINE",
"153 577 OFFCURVE",
"170 631 OFFCURVE",
"253 631 CURVE SMOOTH",
"423 631 LINE",
"45 68 LINE",
"45 0 LINE"
);
}
);
width = 661;
}
);
leftKerningGroup = Z;
rightKerningGroup = Z;
unicode = 005A;
},
